<svg width="59" height="59" viewBox="0 0 59 59" fill="none" xmlns="http://www.w3.org/2000/svg">
<g clip-path="url(#clip0_269_588)">
<path d="M51.625 0H7.375C3.30769 0 0 3.30769 0 7.375V51.625C0 55.6923 3.30769 59 7.375 59H51.625C55.6923 59 59 55.6923 59 51.625V7.375C59 3.30769 55.6923 0 51.625 0Z" fill="#5483F5"/>
<path d="M49.7812 29.5H40.5625V22.125C40.5625 20.0895 42.2145 20.2812 44.25 20.2812H47.9375V11.0625H40.5625C34.4523 11.0625 29.5 16.0148 29.5 22.125V29.5H22.125V38.7188H29.5V59H40.5625V38.7188H46.0938L49.7812 29.5Z" fill="white"/>
</g>
<defs>
<clipPath id="clip0_269_588">
<rect width="59" height="59" fill="white"/>
</clipPath>
</defs>
</svg>
