<svg width="59" height="59" viewBox="0 0 59 59" fill="none" xmlns="http://www.w3.org/2000/svg">
<g clip-path="url(#clip0_269_585)">
<path d="M3.68728 4.01444C-0.949139 8.83031 -0.000222236 13.9461 -0.000222236 29.4877C-0.000222236 42.3939 -2.25206 55.3321 9.5332 58.378C13.2133 59.3245 45.8207 59.3245 49.4959 58.3731C54.4027 57.1071 58.395 53.127 58.9408 46.1871C59.017 45.2186 59.017 13.774 58.9383 12.7858C58.3582 5.39357 53.8078 1.13327 47.8119 0.270398C46.4377 0.0712735 46.1624 0.0122735 39.1119 -1.81794e-05C14.1032 0.0122735 8.62115 -1.10135 3.68728 4.01444Z" fill="#5483F5"/>
<path d="M29.4953 7.7167C20.5691 7.7167 12.0927 6.92266 8.85511 15.2318C7.51778 18.6637 7.71199 23.1206 7.71199 29.5025C7.71199 35.1025 7.53253 40.3658 8.85511 43.7706C12.0854 52.0847 20.6305 51.2882 29.4904 51.2882C38.038 51.2882 46.8511 52.1781 50.1281 43.7706C51.4679 40.3044 51.2712 35.9138 51.2712 29.5025C51.2712 20.9917 51.7407 15.4973 47.6132 11.3722C43.434 7.19308 37.7823 7.7167 29.4854 7.7167H29.4953ZM27.5434 11.6427C46.1628 11.6132 48.5326 9.54325 47.2248 38.2984C46.7602 48.4685 39.0164 47.3524 29.4977 47.3524C12.1419 47.3524 11.6429 46.8558 11.6429 29.4926C11.6429 11.9278 13.0195 11.6525 27.5434 11.6377V11.6427ZM41.1232 15.2589C39.6802 15.2589 38.51 16.429 38.51 17.8721C38.51 19.3151 39.6802 20.4853 41.1232 20.4853C42.5662 20.4853 43.7364 19.3151 43.7364 17.8721C43.7364 16.429 42.5662 15.2589 41.1232 15.2589ZM29.4953 18.3146C23.3175 18.3146 18.3099 23.3247 18.3099 29.5025C18.3099 35.6802 23.3175 40.6879 29.4953 40.6879C35.6731 40.6879 40.6782 35.6802 40.6782 29.5025C40.6782 23.3247 35.6731 18.3146 29.4953 18.3146ZM29.4953 22.2405C39.0951 22.2405 39.1074 36.7644 29.4953 36.7644C19.8979 36.7644 19.8832 22.2405 29.4953 22.2405Z" fill="white"/>
</g>
<defs>
<clipPath id="clip0_269_585">
<rect width="59" height="59" fill="white"/>
</clipPath>
</defs>
</svg>
