<svg width="28" height="28" viewBox="0 0 28 28" fill="none" xmlns="http://www.w3.org/2000/svg">
<path d="M23.898 4.09901C18.4299 -1.36749 9.56551 -1.36618 4.09901 4.10201C-1.36749 9.57021 -1.36618 18.4345 4.10202 23.901C9.57022 29.3675 18.4345 29.3662 23.901 23.898C26.5263 21.2718 28.0008 17.7103 28 13.997C27.9992 10.2843 26.5237 6.72389 23.898 4.09901ZM21.2025 19.5018C21.2019 19.5024 21.2013 19.5031 21.2007 19.5037V19.499L20.4913 20.2037C19.5739 21.1327 18.2379 21.5149 16.968 21.2117C15.6885 20.8692 14.4723 20.3241 13.3653 19.597C12.3369 18.9398 11.3838 18.1714 10.5233 17.3057C9.7316 16.5198 9.02034 15.6568 8.39996 14.7297C7.7214 13.7321 7.18431 12.6453 6.80396 11.5003C6.36794 10.1553 6.72926 8.6793 7.73731 7.68771L8.56796 6.85706C8.79891 6.62507 9.17417 6.62425 9.4061 6.8552C9.4067 6.8558 9.40736 6.8564 9.40796 6.85706L12.0306 9.4797C12.2626 9.71065 12.2634 10.0859 12.0325 10.3178C12.0319 10.3184 12.0313 10.319 12.0306 10.3197L10.4906 11.8597C10.0487 12.2968 9.99317 12.9913 10.36 13.493C10.917 14.2575 11.5333 14.9768 12.2033 15.6444C12.9503 16.3946 13.7623 17.077 14.63 17.6837C15.1313 18.0334 15.8109 17.9745 16.2446 17.5437L17.7333 16.0317C17.9642 15.7998 18.3395 15.7989 18.5714 16.0299C18.572 16.0305 18.5726 16.0311 18.5732 16.0317L21.2006 18.6637C21.4326 18.8946 21.4335 19.2698 21.2025 19.5018Z" fill="url(#paint0_linear_56_831)"/>
<defs>
<linearGradient id="paint0_linear_56_831" x1="14" y1="0" x2="14" y2="28" gradientUnits="userSpaceOnUse">
<stop stop-color="#5483F5"/>
<stop offset="1" stop-color="#5483F5"/>
</linearGradient>
</defs>
</svg>
