<svg xmlns="http://www.w3.org/2000/svg" viewBox="0 0 98.79 110.98"><defs><style>.cls-1{fill:#fff;}</style></defs><title>Ресурс 3</title><g id="Слой_2" data-name="Слой 2"><g id="Слой_1-2" data-name="Слой 1"><path class="cls-1" d="M34.63,93.8c0-.18,0-.36,0-.54V69c0-.65-.16-.77-.78-.55-1.18.43-2.41.69-3.61,1.06-1.36.41-2.75.64-4.14.95-.66.14-1.36.22-2,.32-1.58.24-3.16.33-4.74.53a8.19,8.19,0,0,1-1,0,36.79,36.79,0,0,1-6-.54,22,22,0,0,1-3-.75,14.69,14.69,0,0,1-3.58-1.7,12.57,12.57,0,0,1-2.83-2.47c-.34-.41-.64-.86-1-1.29a2.27,2.27,0,0,0-.65-1.25A12.93,12.93,0,0,1,.18,59.81,16,16,0,0,1,0,56.36a17.89,17.89,0,0,1,.56-3.77c.3-1.26.69-2.49,1.11-3.72.19-.58.45-1.13.68-1.69A37.75,37.75,0,0,1,4.45,43a33,33,0,0,1,1.88-3.06c.16,0,.22-.16.3-.26.6-.84,1.19-1.69,1.8-2.52s1.39-1.87,2.1-2.79c.31-.38.79-.66.87-1.21l1.26-1.45a1.8,1.8,0,0,0,.82-.9h0a1.91,1.91,0,0,0,.9-1h0a.91.91,0,0,0,.63-.63,17.93,17.93,0,0,1,1.91-1.89c.34,0,.52-.29.73-.49.54-.5,1.05-1,1.59-1.53.3-.28.74-.49.84-1h0a1,1,0,0,0,.59-.29c.63-.69,1.39-1.22,2.08-1.84a.4.4,0,0,1,.44-.13,7.66,7.66,0,0,1-1.11,1,4,4,0,0,0-1.2,1.22h0a3.63,3.63,0,0,0-1.44,1.28,15.27,15.27,0,0,1-2,2,80.74,80.74,0,0,0-8,9.17c-.39.14-.48.55-.69.84a6.69,6.69,0,0,0-1.21,1.86h0a2.81,2.81,0,0,0-.81,1.27c-.71,1.19-1.42,2.39-2,3.64A29.19,29.19,0,0,0,3.42,47.3c-.34.92-.66,1.84-1,2.77a21.22,21.22,0,0,0-.92,4.84A12.48,12.48,0,0,0,2.5,61a9.73,9.73,0,0,0,2.63,3.59A13.83,13.83,0,0,0,11,67.35a24.27,24.27,0,0,0,5.95.57,31.77,31.77,0,0,0,4.66-.34c1-.16,1.93-.27,2.88-.48s2.06-.51,3.09-.75,2.28-.67,3.43-1a28.44,28.44,0,0,0,2.82-1c.34-.14.84-.12.84-.75,0-5.46,0-10.91,0-16.36,0-.33-.13-.46-.43-.39a15,15,0,0,1-2.41.25,11.51,11.51,0,0,1-6-.89,5.74,5.74,0,0,1-3.4-4.37A8.19,8.19,0,0,1,22.6,38s.12-.07.14-.11l1-2.88a5.38,5.38,0,0,1,.58-1c0-.09.12-.26.23,0-.06.45-.46.78-.47,1.24a.33.33,0,0,0-.17.21v.44h0a.33.33,0,0,0-.18.46l0,.17a2.23,2.23,0,0,0-.43,1.73v.17a3.11,3.11,0,0,0-.08,2.32l.08,0V41c-.05.24-.08.48.19.63l0,.15a.84.84,0,0,0,.42.85h0c.08.66.57,1,1.07,1.26h0a1.75,1.75,0,0,0,1,.71c.1.2.29.18.47.15h0a.19.19,0,0,0,.17.19c.39-.06.68.36,1.08.2h.17c.31.43.74.21,1.13.22h.42a.26.26,0,0,0,.24.18H31a.26.26,0,0,0,.24-.18h.33a4.24,4.24,0,0,0,.94,0c.24,0,.5,0,.64-.24l.17,0c1,.19,1.28,0,1.28-1V29c0-2.56,0-5.12,0-7.68h0a1.5,1.5,0,0,1,.63.11c.08.17.23.15.38.14h5.49c.23,0,.49,0,.64-.21l.1,0,.34.05a.2.2,0,0,0,.21.19H43a3.06,3.06,0,0,0,1.43-.21l.08,0a.29.29,0,0,0,.3.19H53.4a.19.19,0,0,0,.2-.15c.51-.2.57-.75.8-1.14a2.32,2.32,0,0,0,.48-1.49v-.18a1,1,0,0,0-.2-1.27h0c0-.23-.15-.34-.31-.46s-.05-.14,0-.18h.28a1.54,1.54,0,0,1,1,1.52,4.93,4.93,0,0,1-1,2.7c-.23.36-.2.43.22.43h3.11A.62.62,0,0,0,58.7,21a10.55,10.55,0,0,0,1-2.41.71.71,0,0,0,.19-.81l0-.26a1.57,1.57,0,0,0-.22-1.72h0a1.33,1.33,0,0,0-1.07-1.18l-.17,0c-.07-.29-.28-.24-.49-.22-.18-.14-.41-.07-.61-.11s-.29-.1-.45-.08h-.63l-.38-.2h.16a14,14,0,0,0,2.24,0l.33,0c.09.23.28.18.47.17a1.63,1.63,0,0,1,.42.11c.27.13.49.36.81.37,0,.13.05.19.18.19a.64.64,0,0,0,.45.45.83.83,0,0,0,0,.22,4.22,4.22,0,0,1,.23,3A3.84,3.84,0,0,0,61,19.69a4,4,0,0,0-.64,1.43c-.19,0-.18.18-.18.31v7c0,.14,0,.33.19.34a.76.76,0,0,0,.63-.65c0-.19.19-.29.29-.42s.5-.46.54-.82c.19,0,.27-.14.35-.25.5-.65,1-1.3,1.44-2,.19-.3.53-.53.55-.94a2,2,0,0,0,.64-1.07,3,3,0,0,0,.77-1.27c.16-.43.54-.76.49-1.26.26-.13.23-.42.33-.63a13,13,0,0,0,.91-4,5.29,5.29,0,0,0-.24-1.78,3,3,0,0,0-1-1.84,1,1,0,0,0-.62-.64,1.94,1.94,0,0,0-1.27-.81.23.23,0,0,0-.13-.17,9.85,9.85,0,0,0-1.77-.48,1,1,0,0,0-.87-.2l-.14,0c-.05-.18-.19-.2-.34-.2h-1c-.2,0-.44-.1-.55.18l-.73,0c-.26-.13-.53,0-.8-.06a.23.23,0,0,1-.18-.15l0,0h1c.17,0,.36,0,.45-.18l.44,0h4a7,7,0,0,1,2.54.63,6,6,0,0,1,3,2.53,7.25,7.25,0,0,1,.82,2.56,9.38,9.38,0,0,1-.15,3,14.17,14.17,0,0,1-1.18,3.54c0,.05-.13.08-.16.15a28.68,28.68,0,0,1-2.25,3.91.44.44,0,0,0-.12.36,38.64,38.64,0,0,1-2.41,3.12c-.84,1-1.71,1.95-2.64,2.86a1.45,1.45,0,0,0-.92,1.48c0,5.22,0,10.44,0,15.67a1.62,1.62,0,0,0,0,.22c0,.12,0,.26.14.3s.23,0,.31-.14.11-.18.16-.27h0c.07,0,.16,0,.21-.07.82-.66,1.63-1.34,2.45-2a.41.41,0,0,0,.15-.26c1.66-1.37,3.21-2.86,4.8-4.32,1-1,2-2,3-3a75,75,0,0,0,5-5.73A57.81,57.81,0,0,0,80.12,28a40.19,40.19,0,0,0,3.1-6.1c.47-1.19.9-2.39,1.26-3.61a18.54,18.54,0,0,0,.73-4A12.45,12.45,0,0,0,84,7.46,10.22,10.22,0,0,0,81.32,4.2a11.93,11.93,0,0,0-2.63-1.58,15.44,15.44,0,0,0-3.31-1.08c-1-.21-2-.32-3-.47-.09-.22-.29-.18-.46-.18H68.26c-.17,0-.37,0-.46.18h0a15.84,15.84,0,0,0-3.08.19.41.41,0,0,0-.36.24h-.18a.75.75,0,0,0-.62,0c-.63.15-1.3.18-1.92.38a.28.28,0,0,1-.37-.09c1-.46,2.15-.32,3.17-.68a2,2,0,0,1,.87-.2A5.47,5.47,0,0,0,67.07.64,20,20,0,0,1,70.33.3c1.69-.14,3.4,0,5.1,0a4.77,4.77,0,0,1,.66.1,6.58,6.58,0,0,0,1.83.09h.17c0,.25.23.22.41.25a16.91,16.91,0,0,1,2.21.53c.62.23,1.22.47,1.84.69A13.2,13.2,0,0,1,85.8,3.87,4.25,4.25,0,0,0,87,4.68h0a.5.5,0,0,0,0,.13c.37.67,1.07,1.07,1.36,1.8a.3.3,0,0,0,.3.16h0a1.14,1.14,0,0,0,.26.75,12.09,12.09,0,0,1,1.46,5.85A22.77,22.77,0,0,1,90,18.24a30.87,30.87,0,0,1-1.21,4.15,29.84,29.84,0,0,1-1.18,2.81,33,33,0,0,1-2,3.72,3.68,3.68,0,0,0-.74,1.51h0c-.49.07-.43.54-.62.83s-.29.37-.41.57c-.4.64-.83,1.27-1.28,1.88a3.74,3.74,0,0,0-.85,1.33l-.61.84a.58.58,0,0,0-.47.61h0A4.28,4.28,0,0,0,79.36,38C78.17,39.34,77,40.7,75.78,42c-1.63,1.65-3.26,3.29-5,4.83q-1.49,1.34-3,2.64a7.18,7.18,0,0,0-1.44,1.07c-.23.19-.55.3-.65.64h0a.23.23,0,0,0-.25.2l-1.86,1.43c-1,.82-2.15,1.55-3.21,2.36-.35.13-.2.44-.2.66q0,18.51,0,37c0,.39,0,.78,0,1.17H58.48c-1.34,0-2.66,0-4,.15s-2.87-.1-4.3-.12c-4.9-.08-9.79,0-14.69,0A1.31,1.31,0,0,1,34.63,93.8ZM58.48,75.29V73.38a3,3,0,0,1-.19-1.75c0-5,0-10,0-15v-5.6A4.13,4.13,0,0,1,58.12,50c0-4.6,0-9.2,0-13.8a4.34,4.34,0,0,1,.16-1.86V31.17a5.8,5.8,0,0,1-.18-1.38,49.61,49.61,0,0,1,.17-5.72c.13-.81,0-.86-.81-.86H49.3a4.59,4.59,0,0,1-1.84-.14.32.32,0,0,0-.25,0,1.5,1.5,0,0,1-.75.11H37.6a5.83,5.83,0,0,0-.59,0c-.36,0-.5.23-.49.6,0,1.07,0,2.14,0,3.21a1,1,0,0,1-.07.53.75.75,0,0,0,0,.7,1.88,1.88,0,0,1,.1.71v4.06a1.68,1.68,0,0,1-.08.63,1.8,1.8,0,0,0,0,1.19,3.29,3.29,0,0,1,.12,1c-.1,3,.22,5.93-.18,8.88a18.11,18.11,0,0,0,.18,2.55c0,4.88,0,9.76,0,14.64a4,4,0,0,1-.18,1.69v3.7A4.19,4.19,0,0,1,36.52,69v5.67a3.5,3.5,0,0,1-.11.79,3.72,3.72,0,0,0-.06,1.41l0,.25c-.11.17-.07.27.13.19a1.31,1.31,0,0,1,.47-.09h20.7l.18,0c.61.06.63,0,.63-.56Zm-11.84,6.4c.23-.11.23-.23,0-.36V79.62c.21-.13.21-.26,0-.37h0c0-.28-.23-.27-.42-.27H37.57c-.16,0-.34,0-.4.19h0c-.34,0-.28.26-.28.46V92c0,.5.19.7.67.7h8.86a.65.65,0,0,0,.57-.29c.08-.13,0-.15-.13-.16a18.39,18.39,0,0,1,0-2.1c.1-.46-.23-.43-.52-.43-1.89,0-3.79,0-5.69,0-.39,0-.54-.12-.52-.52,0-.74,0-1.48,0-2.21h5.51c.24.25.32,0,.33-.15,0-.72,0-1.44,0-2.16,0-.22-.18-.34-.42-.22-1.81,0-3.62,0-5.43,0V82.66c0-.7,0-.7.68-.7h5.31c.21,0,.49.08.51-.28Zm9.07,10v.63c-.1,0-.19,0-.1.17a.62.62,0,0,0,.54.27H58c.58,0,.74-.17.74-.77V79.7c0-.56-.15-.71-.73-.71H56.21c-.58,0-.69.11-.7.68,0,1.3,0,2.59,0,3.89,0,.38-.14.5-.5.49-1,0-2,0-3,0-.39,0-.52-.13-.51-.52,0-1.28,0-2.56,0-3.84,0-.53-.16-.69-.7-.7H49.1c-.64,0-.74.1-.74.73V92a.69.69,0,0,0,.13.55c.13.12.21.1.25-.07l2.52,0c.4.07.26-.24.26-.4,0-1.51,0-3,0-4.52,0-.41.06-.57.53-.54,1,0,1.9,0,2.85,0,.6,0,.61,0,.61.59v3.53C55.51,91.32,55.46,91.54,55.71,91.64Z"/><path class="cls-1" d="M88.68,87V84.22a5.48,5.48,0,0,0,.43-1.92l0-.16a1.28,1.28,0,0,0,.38-.86v0c.36-.18.42-.59.65-.87.38-.44.83-.8,1.23-1.2h0a1.28,1.28,0,0,0,.89-.37h.79a7.85,7.85,0,0,1,2.26.17c.35.1.58.42,1,.44l.14,0a.48.48,0,0,0,.44.35,7.48,7.48,0,0,1,1.76,4,13.21,13.21,0,0,1,.12,2.73A7.9,7.9,0,0,1,97,91.37a4,4,0,0,1-2.48,1.3,4.61,4.61,0,0,1-3.85-1,2.13,2.13,0,0,1-.55-.64,1.47,1.47,0,0,0-.6-.9l0-.1a.58.58,0,0,0,0-.23,7.67,7.67,0,0,1-.63-2.49A.25.25,0,0,0,88.68,87Zm7.58-1.38a9.92,9.92,0,0,0-.65-3.2,2.06,2.06,0,0,0-1.83-1.3,2,2,0,0,0-1.88,1,4.92,4.92,0,0,0-.7,2.42c0,.56,0,1.12,0,1.67a5.55,5.55,0,0,0,.61,2.68,2.07,2.07,0,0,0,3.7.08A8.94,8.94,0,0,0,96.26,85.65Z"/><path class="cls-1" d="M61.67,85.63c0-2,0-4.1,0-6.14,0-.4.12-.52.51-.52q3.52,0,7.05,0c.36,0,.47.12.46.47,0,.54,0,1.08,0,1.62,0,.37-.13.47-.47.46-1.52,0-3,0-4.56,0-.41,0-.53.13-.51.51a15.5,15.5,0,0,1,0,1.67c0,.49.15.58.59.57,1.26,0,2.52,0,3.79,0,.4,0,.54.12.52.51a12.34,12.34,0,0,0,0,1.49c0,.41-.15.52-.53.51-1.29,0-2.59,0-3.88,0-.37,0-.5.1-.49.48,0,.69,0,1.39,0,2.08,0,.33.09.44.43.44,1.58,0,3.17,0,4.75,0,.4,0,.56.1.54.53s0,1.08,0,1.62c0,.27-.08.38-.36.38H62.06c-.34,0-.39-.17-.39-.45q0-3.1,0-6.19Z"/><path class="cls-1" d="M79.22,81a3.42,3.42,0,0,1,.51,1.93,5.57,5.57,0,0,1-.56,3.1,3.11,3.11,0,0,1-2.33,1.64,13.69,13.69,0,0,1-2.56.13c-.63,0-.63,0-.63.66,0,1.13,0,2.26,0,3.38,0,.36-.12.49-.47.48a14.81,14.81,0,0,0-1.49,0c-.41,0-.54-.12-.54-.54,0-3.92,0-7.83,0-11.74,0-1.16-.19-1,1-1s2.68,0,4,0a3.19,3.19,0,0,1,2.5,1.09C78.74,80.46,79.05,80.67,79.22,81Zm-5.57,2.36v1.44c0,.2,0,.36.28.36.69,0,1.38,0,2.07,0a1.17,1.17,0,0,0,1-.85,3,3,0,0,0,0-1.77,1.12,1.12,0,0,0-.77-.79,7.81,7.81,0,0,0-2.36-.15c-.26,0-.28.17-.28.36Z"/><path class="cls-1" d="M81.12,85.62q0-3,0-6.1c0-.4.11-.56.53-.55,1.93,0,3.86,0,5.78,0,.4,0,.55.13.53.52s0,1,0,1.53-.13.51-.5.5c-1.12,0-2.23,0-3.34,0-.43,0-.53.12-.53.53,0,3.24,0,6.47,0,9.71,0,.43-.13.55-.53.53a11.69,11.69,0,0,0-1.45,0c-.39,0-.52-.12-.51-.52,0-2.05,0-4.09,0-6.14Z"/><path class="cls-1" d="M93.28,101.13l0,.42c0,.16-.1.41.15.43s.27-.23.27-.42,0-.12,0-.18a22.89,22.89,0,0,1,.57-2.71c.19-.79.34-1.58.49-2.37.11-.59.35-.81.93-.82s1.35,0,2,0c.52,0,.69.21.69.74,0,3.88,0,7.76,0,11.64,0,.82,0,.88-.86.88h-1.4c-.32,0-.52-.13-.52-.47v-3.89h-.18c.08.53-.35.95-.26,1.48v.09c-.3.24-.16.58-.19.88a4.94,4.94,0,0,0-.25,1.14c-.08.63-.29.79-.91.79h-.63c-.68,0-.75-.06-.9-.74l-.72-3.25s0-.07-.07-.11c-.17.13-.11.31-.11.46,0,1,0,2,0,2.94,0,.55-.15.69-.7.7s-1,0-1.53,0a.48.48,0,0,1-.55-.47,5.67,5.67,0,0,1-.05-.58V96.54c0-.89.17-1.05,1.05-1.06.57,0,1.14,0,1.71,0a.79.79,0,0,1,.88.66,7.62,7.62,0,0,1,.21.92A18.25,18.25,0,0,0,93,99.81a3,3,0,0,1,.07.67C93.13,100.71,93,101,93.28,101.13Zm2.63-1a.53.53,0,0,1,.17.51c0,.41,0,.82,0,1.22,0,2,0,4,0,5.92,0,.36.1.54.49.51a6.76,6.76,0,0,1,.9,0c.35,0,.48-.13.47-.48,0-.66,0-1.32,0-2,0-3.07,0-6.14,0-9.21,0-.4-.09-.58-.53-.55a11.16,11.16,0,0,1-1.53,0,.54.54,0,0,0-.65.51c-.27,1.27-.57,2.53-.82,3.8s-.59,2.26-.7,3.42c0,.14-.07.28-.24.27s-.15-.16-.17-.27c-.11-.62-.23-1.23-.36-1.84-.38-1.77-.82-3.52-1.13-5.31-.06-.37-.21-.63-.68-.58a13.83,13.83,0,0,1-1.44,0c-.59,0-.59,0-.59.6,0,3.45,0,6.9,0,10.35,0,1.28,0,1.27,1.29,1.27.39,0,.56-.14.53-.53,0-.1,0-.21,0-.31,0-2.32.06-4.64-.05-7,0-.14-.08-.34.13-.38s.17.14.18.25a32.69,32.69,0,0,0,.7,3.38c.2,1.27.6,2.52.8,3.8a.88.88,0,0,0,1.28.72.25.25,0,0,0,.16-.14,5,5,0,0,0,.21-.73c.13-1.15.5-2.24.71-3.38.16-.93.47-1.84.62-2.79C95.72,100.88,95.81,100.53,95.91,100.13Z"/><path class="cls-1" d="M74.48,108.73H72.4c0-.16-.2-.26-.19-.44.05-1-.09-2.07,0-3.11.08-1.7.07-3.4,0-5.1,0-1.46,0-2.91.06-4.36a.91.91,0,0,1,.7-.23c1,0,2,0,3,0a3.31,3.31,0,0,1,3.44,2.69c.07.27.16.54.27.92.13-.33.24-.56.32-.8a4.18,4.18,0,0,1,2.54-2.88A3.61,3.61,0,0,1,87,96.9,8,8,0,0,1,88.07,100a13.46,13.46,0,0,1,.11,3.64,6.4,6.4,0,0,1-2,4.62,3.56,3.56,0,0,1-5-.18,6.44,6.44,0,0,1-1.65-3.6,15.16,15.16,0,0,1-.26-2,5.66,5.66,0,0,1-.76,1.14,2.89,2.89,0,0,1-2,1c-.37,0-.75,0-1.12,0s-.48.14-.47.48c0,1,0,2,0,2.94,0,.2,0,.43-.17.58A.26.26,0,0,0,74.48,108.73ZM77,103.9l.26,0c.17,0,.24-.06.31-.19a2.5,2.5,0,0,0,1.32-2,7,7,0,0,0-.13-3.77,2.63,2.63,0,0,0-2.49-1.88c-1,0-2.07,0-3.11,0-.46,0-.59.12-.59.58,0,3.46,0,6.92,0,10.38,0,1.49-.23,1.23,1.3,1.26.35,0,.43-.14.43-.45,0-1.21,0-2.41,0-3.61a.82.82,0,0,1,.55-.12h1.61A.57.57,0,0,0,77,103.9Zm3-1.31a10.35,10.35,0,0,0,.23,2.47,7.41,7.41,0,0,0,1,2.25,3,3,0,0,0,2.89,1.25,2.78,2.78,0,0,0,1.81-.77,5.58,5.58,0,0,0,1.63-3.58,13.33,13.33,0,0,0,.08-3.46,9.08,9.08,0,0,0-1.1-3.55A3.27,3.27,0,0,0,82.48,96a4.19,4.19,0,0,0-2,2.49A10,10,0,0,0,80,102.59Z"/><path class="cls-1" d="M20.88,24.29a4,4,0,0,1,1.2-1.22,7.66,7.66,0,0,0,1.11-1,.4.4,0,0,0-.44.13c-.69.62-1.45,1.15-2.08,1.84a1,1,0,0,1-.59.29c.21-.43.64-.65,1-.95.64-.58,1.31-1.12,2-1.67,1.21-1,2.44-2,3.72-2.93.32-.24.62-.51.93-.76a.64.64,0,0,0,.63-.45c1.13-.8,2.25-1.61,3.4-2.39s2-1.37,3.06-2,2.22-1.34,3.34-2,2.32-1.33,3.51-1.95c1.79-.93,3.6-1.84,5.44-2.67S50.61,5,52.41,4.29c1.59-.62,3.21-1.15,4.84-1.64,1.16-.35,2.32-.68,3.49-1C62.16,1.29,63.61,1,65,.73,65.73.58,66.45.49,67.17.4A51.06,51.06,0,0,1,73.1,0c1.48,0,2.94.17,4.4.29a.6.6,0,0,1,.42.16A6.58,6.58,0,0,1,76.09.36a4.77,4.77,0,0,0-.66-.1c-1.7,0-3.41-.1-5.1,0a20,20,0,0,0-3.26.34,5.47,5.47,0,0,1-1.76.25,2,2,0,0,0-.87.2c-1,.36-2.14.22-3.17.68a.28.28,0,0,0,.37.09c.62-.2,1.29-.23,1.92-.38a.75.75,0,0,1,.62,0c-.12.18-.31.17-.49.18a13.89,13.89,0,0,0-2.63.51c-1.2.31-2.4.61-3.59,1-1.63.47-3.23,1-4.84,1.59-1.14.39-2.25.91-3.37,1.38-1.53.65-3.06,1.32-4.54,2.09-1.08.56-2.2,1.06-3.26,1.67-1.33.76-2.68,1.5-4,2.29s-2.86,1.72-4.24,2.65c-1.81,1.21-3.59,2.44-5.31,3.77S24.27,21.42,22.54,23A8.94,8.94,0,0,1,20.88,24.29ZM58.76,2.41a.18.18,0,0,0,.24.1,8.27,8.27,0,0,1,1.1-.23c.24-.06.47-.18.72-.23C60.9,2,61,2,61,1.91s-.09-.07-.15,0A14.41,14.41,0,0,0,58.76,2.41Z"/><path class="cls-1" d="M44.77,104.74c-.41-1.22-.84-2.43-1.23-3.65s-.8-2.56-1.25-3.82c-.11-.31-.19-.66-.28-1,0-.13-.06-.24-.23-.22a1.11,1.11,0,0,0-1-.38c-1.63,0-3.27,0-4.9,0a2,2,0,0,0-1,.18c.06-.35.37-.39.62-.39h5.69c.32,0,.5.37.72.37s.4-.37.72-.37c.6,0,1.2,0,1.8,0s.68.24.79.7.33,1.15.49,1.72c.11.39.23.78.33,1.17a1.94,1.94,0,0,0,.34.65,11.86,11.86,0,0,0,.26-1.26c.09-.8.42-1.53.52-2.33a.69.69,0,0,1,.77-.65c.51,0,1,0,1.54,0s.84.39.66,1c-.29.92-.52,1.84-.73,2.77s-.48,1.79-.71,2.68-.5,2-.76,3a9.66,9.66,0,0,1-1.21,3.19,2,2,0,0,1-1.11.79,3.06,3.06,0,0,1-2.24-.18.51.51,0,0,1-.3-.47c0-.77,0-1.54,0-2.3,0-.47.37-.65.89-.45.36.14.64.1.82-.28Q45.1,105,44.77,104.74Zm0-1.48c0,.18,0,.35.19.41l0,.18a.33.33,0,0,0,.17.45l0,.27v.63c0,.13,0,.26-.1.35a.21.21,0,0,0-.16.23s0,0,0,0a.23.23,0,0,0-.18.16,3,3,0,0,1-1,0c-.26,0-.27.19-.27.38v1.29c0,.77.15.9.94.85H45c.21,0,.46.11.58-.18l.24-.08a.2.2,0,0,0,.2-.17,5.64,5.64,0,0,0,1.25-2.82c.21-1,.49-1.91.74-2.86.32-1.2.57-2.43,1-3.62.25-.76.4-1.56.6-2.34,0-.15.12-.36-.15-.37a5.07,5.07,0,0,0-1.61.06c-.34.11-.26.68-.36,1,0,.13-.12.25-.14.38-.11,1.18-.55,2.29-.69,3.47a4.12,4.12,0,0,1-.28.77,4.66,4.66,0,0,1-.29-.67c-.44-1.56-.88-3.12-1.3-4.69a.43.43,0,0,0-.47-.38H43.16c-.55,0-.64.07-.48.6.36,1.18.75,2.35,1.14,3.52C44.15,101.21,44.51,102.22,44.77,103.26Z"/><path class="cls-1" d="M66.52,99.49v.83a.29.29,0,0,0,0,.35c0,2.51,0,5,0,7.53,0,.12,0,.24-.11.33s-.29,0-.34.19a17.19,17.19,0,0,1-1.9,0,.84.84,0,0,0-.42-.45c0-.29,0-.57,0-.86V96.75c0-.23,0-.46,0-.68a.4.4,0,0,0,.22-.4l.19,0a.75.75,0,0,0,.44.08h5.9a.79.79,0,0,0,.43-.07c.37.07.39.35.39.65v6.18c0,1.83,0,3.66,0,5.5,0,.66-.12.78-.79.78l-1.31,0c-.11-.21-.23-.24-.36,0a.28.28,0,0,1-.28-.33l0-.11c.23-.12.15-.34.15-.52V98.6H69c0,1.22,0,2.43,0,3.65,0,1.85,0,3.69,0,5.54,0,.32,0,.52.44.5s.87,0,1.3,0c.28,0,.18-.2.18-.31V96.46c0-.16,0-.34-.21-.38-2,0-4,0-6,0-.44,0-.55.13-.55.56,0,3.58,0,7.17,0,10.75,0,1-.15.92.92.91s.95.12.95-1q0-4.36,0-8.72h.26l.1.21.07.24v.19A.18.18,0,0,0,66.52,99.49Z"/><path class="cls-1" d="M49.19,110.89l0-2.62,0-2.68,0,0c.26-.07.58.12.78-.19h0c.32,0,.27-.28.25-.49a2.85,2.85,0,0,1,.22-1,30.11,30.11,0,0,0,.5-7.4c0-.77.21-1,1-1h5c.59.05.76.23.76.83,0,2.84,0,5.69,0,8.53,0,.36,0,.57.48.54s.59.21.58.62c0,1.53,0,3,0,4.57,0,.19,0,.4-.28.4s-.32-.21-.31-.43c0-1.32,0-2.65.14-4,.06-.57,0-.58-.54-.6s-.58-.11-.58-.69V96.8c0-.73,0-.73-.71-.73-1.44,0-2.89,0-4.33,0-.45,0-.55.13-.54.56,0,1.1,0,2.2,0,3.3a16.16,16.16,0,0,1-.6,4.21,3.87,3.87,0,0,1-.49,1.42c-.12,0-.19.09,0,.19-.13.28-.36.26-.6.17,0-.06,0-.12-.11-.1s-.07.12-.08.18h0a.29.29,0,0,0-.17.29V108a.29.29,0,0,0,.15.26c0,.79,0,1.58,0,2.37,0,.3-.11.38-.38.32Z"/><path class="cls-1" d="M58.48,94H97.34c.21,0,.42,0,.63,0,0,.6,0,.6-.57.6H84.57l-.59,0a2.54,2.54,0,0,0-2.09,0H73.68c-.11-.17-.29-.13-.45-.14-.44,0-.89,0-1.34,0-2.27-.13-4.55,0-6.83,0a1.71,1.71,0,0,0-1.16.2H60.75c-.06-.13-.19-.16-.31-.22a3.28,3.28,0,0,0-1.45-.2C58.8,94.16,58.59,94.22,58.48,94Z"/><path class="cls-1" d="M34.86,95.88a2,2,0,0,1,1-.18c1.63,0,3.27,0,4.9,0a1.11,1.11,0,0,1,1,.38v.17a1.54,1.54,0,0,0,0,1.54v.63c-.19.06-.2.21-.2.36l-.12,0-3.53,0c-.16,0-.39,0-.34.26l0,1c0,.28.23.27.42.27h2l.15,0a.22.22,0,0,0,.19.17l.42,0h0c.06.3.31.4.54.52a3.05,3.05,0,0,1,.9,1.56,7.84,7.84,0,0,1,0,3.88c-.21.83-1.21,2-2.08,2.06-.29.07-.64-.14-.89.19H35.89c-.07-.18-.22-.19-.37-.18a1.14,1.14,0,0,1-.67-.19c0-.16,0-.32,0-.49V96.37A1,1,0,0,1,34.86,95.88Zm5.19,4.88-.37-.06c-.14-.21-.36-.18-.56-.19l-2,0c0-.53,0-1.06,0-1.58s.13-.52.52-.51c1.05,0,2.11,0,3.16,0,.36,0,.53-.13.52-.5s0-.91,0-1.36-.15-.49-.52-.49q-2.55,0-5.1,0c-.35,0-.46.11-.46.47q0,5.64,0,11.29c0,.36.12.47.47.47,1.1,0,2.2,0,3.29,0a2.76,2.76,0,0,0,2.78-2.4,5.93,5.93,0,0,0,0-2.81,2.87,2.87,0,0,0-1.44-2.14A.28.28,0,0,0,40.05,100.76Z"/><path class="cls-1" d="M98,94c-.21,0-.42,0-.63,0H60.22c0-.39,0-.78,0-1.17q0-18.53,0-37c0-.22-.15-.53.2-.66V92.88c0,.84,0,.84.82.84H97.34C97.56,93.73,97.92,93.55,98,94Z"/><path class="cls-1" d="M58.48,94c.11.23.32.17.51.17a3.28,3.28,0,0,1,1.45.2c.12.06.25.09.31.22-.15,0-.3,0-.45,0H35.4c-.81,0-.81,0-.77-.81a1.31,1.31,0,0,0,.86.19c4.9,0,9.79,0,14.69,0,1.43,0,2.87.24,4.3.12S57.14,94,58.48,94Z"/><path class="cls-1" d="M55.32,102.21c0,1.07,0,2.14,0,3.21,0,.4-.12.58-.54.56-.67,0-1.33,0-2,0-.44,0-.5-.15-.36-.57a10.26,10.26,0,0,0,.57-2.34,37.4,37.4,0,0,0,.17-4.23c0-.34.14-.46.46-.45s.85,0,1.27,0,.42.12.41.43C55.31,100,55.32,101.08,55.32,102.21Zm-.46,0c0-.93,0-1.87,0-2.8,0-.34-.13-.49-.47-.51-.61,0-.7,0-.71.66a20.08,20.08,0,0,1-.56,5.52c-.08.26.05.32.27.32s.69,0,1,0,.45-.12.45-.45C54.85,104,54.86,103.1,54.86,102.19Z"/><path class="cls-1" d="M84.87,30.43a3.68,3.68,0,0,1,.74-1.51,33,33,0,0,0,2-3.72,29.84,29.84,0,0,0,1.18-2.81A30.87,30.87,0,0,0,90,18.24a22.77,22.77,0,0,0,.43-4.86,12.09,12.09,0,0,0-1.46-5.85,1.14,1.14,0,0,1-.26-.75,2.89,2.89,0,0,1,.79,1.32,11.88,11.88,0,0,1,1.12,5.22c0,.8,0,1.6,0,2.39A19.18,19.18,0,0,1,90,19.07c-.23,1.08-.61,2.11-.94,3.16a31.24,31.24,0,0,1-1.26,3,33.16,33.16,0,0,1-1.89,3.65A5.74,5.74,0,0,1,84.87,30.43Z"/><path class="cls-1" d="M53.93,108.28c.74,0,1.47,0,2.21,0,.33,0,.45.12.44.45,0,.62,0,1.24,0,1.86,0,.19,0,.4-.27.4s-.32-.2-.32-.43v-1.4c0-.28-.11-.4-.4-.4-1.13,0-2.26,0-3.38,0-.34,0-.5.12-.49.48s0,1,0,1.44c0,.15,0,.31-.22.31s-.22-.17-.22-.32c0-.68,0-1.35,0-2,0-.29.15-.36.39-.35Z"/><path class="cls-1" d="M59.33,102h3.1a.6.6,0,0,0,.47.22,24.14,24.14,0,0,1,0,2.69.23.23,0,0,0-.25.22l-.16,0c-.94-.1-1.88,0-2.83,0-.65,0-.74-.09-.74-.72s0-1,0-1.53A.82.82,0,0,1,59.33,102Zm2.94,2.72c.12,0,.2,0,.19-.16v-1.9c0-.24-.15-.26-.32-.26H59.63c-.18,0-.33,0-.32.27v1.89c0,.19.14.19.28.16Z"/><path class="cls-1" d="M72.23,95.71c-.07,1.45-.11,2.9-.06,4.36.07,1.7.08,3.4,0,5.1,0,1,.09,2.07,0,3.11,0,.18.16.28.19.44-.32,0-.37-.23-.43-.46a2.14,2.14,0,0,1,0-.36V96.34C72,96.1,71.88,95.81,72.23,95.71Z"/><path class="cls-1" d="M87,4.68a4.25,4.25,0,0,1-1.16-.81,13.2,13.2,0,0,0-3.25-1.94c-.62-.22-1.22-.46-1.84-.69A16.91,16.91,0,0,0,78.5.71c-.18,0-.38,0-.41-.25A7.41,7.41,0,0,1,80.23.9a14.82,14.82,0,0,1,3.29,1.23,13.23,13.23,0,0,1,3.1,2.1A1.06,1.06,0,0,1,87,4.68Z"/><path class="cls-1" d="M63.9,94.58a1.71,1.71,0,0,1,1.16-.2c2.28,0,4.56-.11,6.83,0,.45,0,.9,0,1.34,0,.16,0,.34,0,.45.14-.69,0-1.38,0-2.07,0H64.4C64.23,94.61,64.07,94.59,63.9,94.58Z"/><path class="cls-1" d="M68.64,108.25l0,.11c-.18-.16-.13-.38-.13-.59v-8c0-.8,0-.81-.82-.8a5.32,5.32,0,0,0-1.13.05l-.07-.24,1.48,0c.69,0,.69,0,.69.7C68.63,102.4,68.63,105.32,68.64,108.25Z"/><path class="cls-1" d="M11.4,33.16c-.08.55-.56.83-.87,1.21-.71.92-1.42,1.85-2.1,2.79s-1.2,1.68-1.8,2.52c-.08.1-.14.23-.3.26,0-.42.32-.64.51-.92,1.1-1.61,2.25-3.19,3.49-4.69.28-.33.55-.66.82-1C11.22,33.24,11.28,33.16,11.4,33.16Z"/><path class="cls-1" d="M71,95.63a.79.79,0,0,1-.43.07h-5.9a.75.75,0,0,1-.44-.08c.12-.2.32-.15.49-.15h5.85C70.68,95.47,70.86,95.44,71,95.63Z"/><path class="cls-1" d="M59.33,102a.82.82,0,0,0-.42.86c0,.5,0,1,0,1.53s.09.7.74.72c1,0,1.89-.06,2.83,0-.1.2-.28.19-.46.19H59.64c-.67,0-1-.3-1-1s0-1.2,0-1.79S58.9,102,59.33,102Z"/><path class="cls-1" d="M20.08,24.31c-.1.47-.54.68-.84,1-.54.5-1,1-1.59,1.53-.21.2-.39.47-.73.49a.61.61,0,0,1,.25-.37l2.64-2.47A.4.4,0,0,1,20.08,24.31Z"/><path class="cls-1" d="M81.71,35.05a3.74,3.74,0,0,1,.85-1.33c.45-.61.88-1.24,1.28-1.88.12-.2.27-.38.41-.57h.18a3.65,3.65,0,0,1-.71,1.18c-.56.83-1.17,1.62-1.76,2.43C81.89,35,81.83,35,81.71,35.05Z"/><path class="cls-1" d="M37.59,99c-.05-.31.18-.26.34-.26l3.53,0c-.13.18-.33.17-.52.17H38.16A1.23,1.23,0,0,0,37.59,99Z"/><path class="cls-1" d="M96.3,79.41c-.38,0-.61-.34-1-.44a7.85,7.85,0,0,0-2.26-.17h-.63a.31.31,0,0,1,.23-.2,6.37,6.37,0,0,1,2.09,0,3.55,3.55,0,0,1,1.06.34C96,79.09,96.25,79.15,96.3,79.41Z"/><path class="cls-1" d="M95.19,105.85c-.09-.53.34-.95.26-1.48h.18v3.89c-.2-.11-.17-.3-.17-.48,0-.47,0-1,0-1.43C95.46,106.14,95.43,106,95.19,105.85Z"/><path class="cls-1" d="M88.66,6.77a.3.3,0,0,1-.3-.16c-.29-.73-1-1.13-1.36-1.8a.5.5,0,0,1,0-.13c.46.12.64.56.92.87A2.71,2.71,0,0,1,88.66,6.77Z"/><path class="cls-1" d="M88.68,87a.25.25,0,0,1,.17.24,7.67,7.67,0,0,0,.63,2.49.58.58,0,0,1,0,.23,1.65,1.65,0,0,1-.5-1A4.79,4.79,0,0,1,88.68,87Z"/><path class="cls-1" d="M40,100.3H38c-.19,0-.4,0-.42-.27l1.66,0A1,1,0,0,1,40,100.3Z"/><path class="cls-1" d="M91.39,79.18c-.4.4-.85.76-1.23,1.2-.23.28-.29.69-.65.87-.07-.22.1-.36.2-.52a4.57,4.57,0,0,1,1.35-1.45A.42.42,0,0,1,91.39,79.18Z"/><path class="cls-1" d="M65.7,51.13c.1-.34.42-.45.65-.64a7.18,7.18,0,0,1,1.44-1.07.07.07,0,0,1,0,0A7.47,7.47,0,0,1,65.7,51.13Z"/><path class="cls-1" d="M49.19,105.59l0,2.68a.51.51,0,0,1-.13-.41c0-.6,0-1.2,0-1.8C49,105.89,49,105.7,49.19,105.59Z"/><path class="cls-1" d="M88.67,84.49v2.35A3.64,3.64,0,0,1,88.67,84.49Z"/><path class="cls-1" d="M81.89,94.58a2.54,2.54,0,0,1,2.09,0A14.58,14.58,0,0,1,81.89,94.58Z"/><path class="cls-1" d="M89.11,82.3a5.48,5.48,0,0,1-.43,1.92,6.82,6.82,0,0,1,.24-1.74C88.93,82.41,89,82.36,89.11,82.3Z"/><path class="cls-1" d="M41.77,97.78a1.54,1.54,0,0,1,0-1.54A6.61,6.61,0,0,1,41.77,97.78Z"/><path class="cls-1" d="M79.36,38a4.28,4.28,0,0,1,1.27-1.53A4.47,4.47,0,0,1,79.36,38Z"/><path class="cls-1" d="M49.6,108.27a.29.29,0,0,1-.15-.26v-1.72a.29.29,0,0,1,.17-.29Z"/><path class="cls-1" d="M14.38,29.81a1.91,1.91,0,0,1-.9,1A1.57,1.57,0,0,1,14.38,29.81Z"/><path class="cls-1" d="M1.27,63.34a2.27,2.27,0,0,1,.65,1.25A2,2,0,0,1,1.27,63.34Z"/><path class="cls-1" d="M34.85,108.35a1.14,1.14,0,0,0,.67.19c.15,0,.3,0,.37.18a1.71,1.71,0,0,1-.78,0A.33.33,0,0,1,34.85,108.35Z"/><path class="cls-1" d="M84.43,31.26h-.18c.19-.29.13-.76.62-.83A2.24,2.24,0,0,1,84.43,31.26Z"/><path class="cls-1" d="M13.48,30.81a1.8,1.8,0,0,1-.82.9A1.49,1.49,0,0,1,13.48,30.81Z"/><path class="cls-1" d="M89.52,90.09a1.47,1.47,0,0,1,.6.9A1.22,1.22,0,0,1,89.52,90.09Z"/><path class="cls-1" d="M93.72,101.38c0,.06,0,.12,0,.18s0,.44-.27.42-.14-.27-.15-.43C93.48,101.57,93.58,101.43,93.72,101.38Z"/><path class="cls-1" d="M79.22,81c-.17-.29-.48-.5-.5-.88C79,80.31,79.29,80.53,79.22,81Z"/><path class="cls-1" d="M92.29,78.8a1.28,1.28,0,0,1-.89.37A1,1,0,0,1,92.29,78.8Z"/><path class="cls-1" d="M39.23,108.72c.25-.33.6-.12.89-.19A1.08,1.08,0,0,1,39.23,108.72Z"/><path class="cls-1" d="M89.51,81.28a1.28,1.28,0,0,1-.38.86A.93.93,0,0,1,89.51,81.28Z"/><path class="cls-1" d="M15,29.18a.91.91,0,0,1-.63.63A.87.87,0,0,1,15,29.18Z"/><path class="cls-1" d="M95,106.82c0-.3-.11-.64.19-.88A.82.82,0,0,1,95,106.82Z"/><path class="cls-1" d="M28.31,17.54a.64.64,0,0,1-.63.45A.88.88,0,0,1,28.31,17.54Z"/><path class="cls-1" d="M41.3,101c-.23-.12-.48-.22-.54-.52C41,100.63,41.29,100.68,41.3,101Z"/><path class="cls-1" d="M50,105.38c-.2.31-.52.12-.78.19C49.41,105.24,49.72,105.41,50,105.38Z"/><path class="cls-1" d="M80.63,36.5a.58.58,0,0,1,.47-.61A1.07,1.07,0,0,1,80.63,36.5Z"/><path class="cls-1" d="M63.76,108.26a.84.84,0,0,1,.42.45A.39.39,0,0,1,63.76,108.26Z"/><path class="cls-1" d="M93.28,101.13c-.28-.16-.15-.42-.17-.65A.57.57,0,0,1,93.28,101.13Z"/><path class="cls-1" d="M41.58,98.77c0-.15,0-.3.2-.36C41.78,98.57,41.87,98.77,41.58,98.77Z"/><path class="cls-1" d="M50.24,104.89c0,.21.07.45-.25.49C50,105.2,50.05,105,50.24,104.89Z"/><path class="cls-1" d="M66.51,100.67a.29.29,0,0,1,0-.35C66.67,100.43,66.67,100.55,66.51,100.67Z"/><path class="cls-1" d="M96.88,79.8a.48.48,0,0,1-.44-.35C96.65,79.49,96.83,79.56,96.88,79.8Z"/><path class="cls-1" d="M62.9,102.22a.6.6,0,0,1-.47-.22C62.65,101.94,62.82,102,62.9,102.22Z"/><path class="cls-1" d="M44.77,104.74q.33.23,0,.45Z"/><path class="cls-1" d="M40.75,100.51l-.42,0,0-.17C40.49,100.3,40.66,100.31,40.75,100.51Z"/><path class="cls-1" d="M66.08,108.72c0-.17.19-.19.34-.19C66.36,108.69,66.27,108.79,66.08,108.72Z"/><path class="cls-1" d="M64,95.67a.4.4,0,0,1-.22.4C63.72,95.87,63.83,95.76,64,95.67Z"/><path class="cls-1" d="M66.52,99.49a.18.18,0,0,1,0-.26C66.66,99.32,66.65,99.41,66.52,99.49Z"/><path class="cls-1" d="M74.48,108.73a.26.26,0,0,1,.27-.19C74.75,108.72,74.68,108.81,74.48,108.73Z"/><path class="cls-1" d="M62.65,105.13a.23.23,0,0,1,.25-.22C62.9,105.08,62.85,105.2,62.65,105.13Z"/><path class="cls-1" d="M68.88,108.69c.13-.21.25-.18.36,0Z"/><path class="cls-1" d="M65.45,51.33a.23.23,0,0,1,.25-.2C65.69,51.28,65.6,51.34,65.45,51.33Z"/><path class="cls-1" d="M49.62,106c0-.06,0-.15.08-.18s.09,0,.11.1Z"/><path class="cls-1" d="M40.31,100.32l0,.17a.22.22,0,0,1-.19-.17Z"/><path class="cls-1" d="M50.41,105.74c-.16-.1-.09-.15,0-.19Z"/><path class="cls-1" d="M49.19,110.89l.07.07S49.19,110.94,49.19,110.89Z"/><path class="cls-1" d="M36.34,63.62a4,4,0,0,0,.18-1.69c0-4.88,0-9.76,0-14.64a18.11,18.11,0,0,1-.18-2.55c.4-3,.08-5.92.18-8.88a3.29,3.29,0,0,0-.12-1,1.8,1.8,0,0,1,0-1.19,1.68,1.68,0,0,0,.08-.63V29a1.88,1.88,0,0,0-.1-.71.75.75,0,0,1,0-.7,1,1,0,0,0,.07-.53c0-1.07,0-2.14,0-3.21,0-.37.13-.56.49-.6a5.83,5.83,0,0,1,.59,0h8.86a1.5,1.5,0,0,0,.75-.11.32.32,0,0,1,.25,0,4.59,4.59,0,0,0,1.84.14h8.18c.84,0,.94.05.81.86a49.61,49.61,0,0,0-.17,5.72,5.8,5.8,0,0,0,.18,1.38c-.26,0-.4.18-.56.33C56.4,32.82,55,34,53.5,35.2c-.8.65-1.65,1.24-2.49,1.85a3.38,3.38,0,0,0-1,.78c0,.12,0,.23-.18.22s-.4.15-.59.25-.45.11-.48-.28h0c.32-.16.3-.3,0-.42-1,.36-2,.74-3.07,1.08-.74.24-.75.23-.31.79a.24.24,0,0,0,.21.19l.06.07a.23.23,0,0,0,.19.2h0a.23.23,0,0,0,.19.18h0a1,1,0,0,1-.82.46l0,0a.21.21,0,0,0-.19-.23h0c0-.15-.11-.2-.24-.21h0a.23.23,0,0,0-.18-.17l0,0c0-.13-.06-.21-.19-.23h0c0-.17-.13-.2-.27-.2s-.14.06-.16.15c-.22,1.09-.42,2.19-.66,3.28-.17.78-.37,1.54-.51,2.32s-.36,1.66-.53,2.49a.48.48,0,0,0,.11.53l3.49-5.61a.24.24,0,0,0,.17-.19h0a1.15,1.15,0,0,0,.84-.24,1.87,1.87,0,0,1,.9-.39h0a.19.19,0,0,0,.18.19c.21,0,.3.23.44.36,1.12,1.07,2.13,2.27,3.3,3.3.06.06.07.19.19.15s.09-.18.07-.27c-.12-.48-.16-1-.28-1.45s-.08-.8-.19-1.19a12.2,12.2,0,0,1-.58-3.11c.23-.13.47-.26.69-.41,1.46-1,2.86-2,4.25-3.1.35-.27.69-.58,1-.85s.84-.91,1.45-1.11a4.34,4.34,0,0,0-.16,1.86c0,4.6,0,9.2,0,13.8a4.13,4.13,0,0,0,.18,1.06.58.58,0,0,0-.33.12c-.83.59-1.65,1.19-2.5,1.75a5,5,0,0,1-1.76,1c-.16-.69-.36-1.38-.48-2.08-.19-1.19-.47-2.37-.69-3.56,0-.13,0-.28-.2-.32s-.21.14-.28.23Q50.22,50.63,48.38,53c-.69.91-.68.83.16,1.48a3.35,3.35,0,0,0,1.54,1.24h0c.42.35.34.64-.11.89-.07,0-.11.14-.17.21l-.17-.08a.19.19,0,0,0-.21-.19h0c0-.16-.12-.2-.26-.2-.59-.31-1.07-.78-1.63-1.15s-.58-.4-1,.16l-.27.36c-.88,1.16-1.75,2.32-2.63,3.47-.41.54-.84,1.06-1.26,1.59a6,6,0,0,0-1.36.57c-.11,0-.25.1-.34,0s0-.21.09-.31c.15-.34.56-.51.59-.93s.39-.57.6-.86c1.07-1.51,2.23-2.95,3.35-4.42.61-.8.63-.82-.17-1.46-1-.83-2.08-1.63-3.12-2.44-.19-.14-.38-.17-.44.11-.23,1-.44,2.07-.64,3.11-.17.85-.31,1.7-.49,2.55-.25,1.21-.53,2.42-.8,3.62a.52.52,0,0,0-.17.64l0,.27c-.3.15-.24.43-.22.69v.21c-.27.09-.47.3-.74.4A9.45,9.45,0,0,0,36.34,63.62ZM48.16,27.9c.18,0,.21-.12.19-.27-.35-1.4-.53-2.85-.93-4.24h-.15l-.63,2.82a.69.69,0,0,0-.18.81l0,.44c-.27.17-.25.43-.2.69v.13c-.22.09-.29.26-.11.4a.3.3,0,0,0,.53-.12l.15,0a.23.23,0,0,0,.31-.21l.17,0c.23.13.36,0,.44-.19h0c.18,0,.38.05.45-.2Zm-1.51,2.27c0,.14,0,.25.19.27l.08.18c0,.13.1.23.24.21s.11-.12.12-.21l0-.17c.2,0,.25-.14.21-.32l0-.14c.16,0,.19-.15.17-.3a.13.13,0,0,1,0-.06c.25-.1.29-.36.41-.56a.39.39,0,0,0-.06-.52.34.34,0,0,0-.51.19h0a2.55,2.55,0,0,0-1.24.47.23.23,0,0,0-.1.31c.09.25.14.53.43.65ZM51.07,46.6c-.09-.11-.15-.21-.23-.29L47.49,43c-.28-.28-.44-.28-.65.07-1.09,1.77-2.2,3.53-3.28,5.3-.11.18-.39.37-.25.57s.39,0,.59-.09l.18,0,1.8-.52c.83-.24,1.65-.51,2.48-.74s1.57-.54,2.39-.68C50.87,46.83,51,46.69,51.07,46.6ZM50,48.16l-.23.06L48,48.78c-.8.26-1.61.52-2.41.76q-.9.28-1.8.51c-.19.05-.38.12-.44.26s.17.28.29.38c.91.71,1.85,1.38,2.75,2.11.33.27.48.14.67-.12l1.64-2.2,1.48-1.95c.06-.09.13-.17.1-.28S50.09,48.17,50,48.16ZM49.4,36.23a.59.59,0,0,0-.08-.2c-.25-.42-.52-.83-.77-1.25s-.61-1.05-.93-1.56c-.07-.12-.14-.27-.34-.27s-.17.17-.23.27a17.68,17.68,0,0,0-.74,1.67c-.41.9-.8,1.81-1.21,2.72,0,.11-.11.23,0,.33s.19,0,.29-.06a3.81,3.81,0,0,1,.66-.27c1.08-.27,2.08-.75,3.15-1C49.35,36.52,49.43,36.44,49.4,36.23Zm-.7-6.69a8.51,8.51,0,0,0-.79,1.61,1,1,0,0,0,0,1.08c.48.74.91,1.52,1.36,2.28a1.45,1.45,0,0,0,.56.69Zm-4.17,6.93.15,0c.65-1.23,1.08-2.56,1.7-3.8.16-.33.44-.71.24-1.11a3.51,3.51,0,0,0-.8-1.19Z"/><path class="cls-1" d="M58.3,56.65c0,5,0,10,0,15a3,3,0,0,0,.19,1.75c-.33.08-.55-.14-.8-.28l0-.52c.1-.26.22-.53-.18-.65l-.07-.27c.25-.33.22-.42-.2-.54V71c.3-.64-.14-1.24-.13-1.88,0-.29-.16-.59-.06-.92a.46.46,0,0,0-.14-.42c-.39-.43-.26-1-.46-1.5,0-.09,0-.24.08-.35s.11-.23,0-.34c-.21-.37-.06-.9-.52-1.15a.25.25,0,0,1-.05-.21,2.24,2.24,0,0,0,0-1,13.41,13.41,0,0,1-.2-1.55c0-.33-.27-.59-.42-.88s-.32-.23-.56-.12-.51.49-.78.72c-1,.84-1.77,1.91-2.75,2.78a.51.51,0,0,0-.13.5h0a.59.59,0,0,0-.64.23,7.37,7.37,0,0,1-1,1.06.63.63,0,0,0-.24.62h0c-.57,0-.65,0-.64.63h0c-.56,0-.64.09-.64.63h0c-.57,0-.64.06-.64.63h0c-.65,0-.68.09-.71.63s.41.39.7.43h0a.58.58,0,0,0,.49.73.42.42,0,0,1,.3.18,4.82,4.82,0,0,0,1.3,1A19.41,19.41,0,0,1,51,72.55c.59.48,1.23.9,1.83,1.36.17.14.4.15.57.34.34.4.69.84,1.31.81a.21.21,0,0,1,.15.09c.16.51.7.62,1,1a1.17,1.17,0,0,0,1.08.33H57v.18c-.36.21,0,.42,0,.63H37a4.52,4.52,0,0,1,.34-.51c.19-.29.59-.48.48-.93a.27.27,0,0,0,.18-.18.74.74,0,0,0,.88-.67v0a.55.55,0,0,0,.47-.46h0a.18.18,0,0,0,.19-.18h0c.35,0,.64,0,.45-.47h0a.89.89,0,0,0,.88-.32c.55-.58,1.13-1.12,1.7-1.68s1.2-1.16,1.78-1.76a1,1,0,0,0-.27-1.6c-.54-.27-1.19-.41-1.42-1.09a.2.2,0,0,0-.15-.1c-.44,0-.58-.37-.85-.59-.09-.07-.2-.15-.14-.3a.34.34,0,0,1,.36-.21,1.43,1.43,0,0,1,.75.29l1.17.9c.21.15.47.16.66.37.68.74,1.09.74,1.84.06.23-.21.44-.44.67-.65,1.38-1.23,2.61-2.61,3.94-3.9.48-.46.93-1,1.44-1.4a.68.68,0,0,0,.23-.9c-.23-.55-.24-.55.38-.67a1.91,1.91,0,0,0,1.52-1.43h0a2.15,2.15,0,0,0,1.3-.51.69.69,0,0,1,.78-.21.11.11,0,0,0,.16-.1c0-.46.41-.51.71-.63a1.08,1.08,0,0,0,.75-.81Z"/><path class="cls-1" d="M40.75,66.7c-.53-.35-1.1-.67-1.6-1.06s-.43,0-.45.19a10.06,10.06,0,0,0-.29,1.53c0,.15.06.34-.16.42a.57.57,0,0,1,0-.22c0-.64,0-.63-.59-.45-.41.11-.8.45-1.28.21v-3.7a9.45,9.45,0,0,1,2.17-1c.27-.1.47-.31.74-.4,0,.1,0,.27.12.31s.21-.1.28-.19c.33-.42.64-.84,1-1.27a2.41,2.41,0,0,1,.78-.87c0,.42-.44.59-.59.93,0,.1-.2.19-.09.31s.23,0,.34,0a6,6,0,0,1,1.36-.57c-.39.81-1.13,1.38-1.55,2.27a10.39,10.39,0,0,1,1.26-.36c.94-.14,1.82-.52,2.75-.72s1.8-.51,2.7-.74,1.92-.51,2.88-.79A3.93,3.93,0,0,1,52,60.17a2,2,0,0,1-.85.68,9.37,9.37,0,0,0-1.56.94c.17.13.33,0,.43.11-.12.29-.39.15-.59.22-.91.34-1.85.55-2.78.8-.66.17-1.3.39-2,.54s-1.29.43-2,.55a11.92,11.92,0,0,0-1.63.44c-.22.08-.35.23,0,.43a1.72,1.72,0,0,1,.65.58l-.49.23C40.43,66,40.43,66,40.75,66.7Z"/><path class="cls-1" d="M50,37.83a3.38,3.38,0,0,1,1-.78c.84-.61,1.69-1.2,2.49-1.85C55,34,56.4,32.82,57.74,31.5c.16-.15.3-.34.56-.33v3.16c-.61.2-1,.74-1.45,1.11s-.69.58-1,.85c-1.39,1.08-2.79,2.12-4.25,3.1-.22.15-.46.28-.69.41a.24.24,0,0,1-.16-.25c0-.51-.29-.95-.28-1.47C50.44,37.8,50.28,37.72,50,37.83Z"/><path class="cls-1" d="M58.3,56.65h-.18a4.5,4.5,0,0,0-.43.23,28.73,28.73,0,0,1-2.61,1.58c-.13.06-.29.24-.38,0s-.13-.52-.19-.78.1-.62-.24-.81l0-.28a.64.64,0,0,0-.18-.81A6.39,6.39,0,0,1,53.71,54a5,5,0,0,0,1.76-1c.85-.56,1.67-1.16,2.5-1.75a.58.58,0,0,1,.33-.12Z"/><path class="cls-1" d="M55.72,92.27a1.07,1.07,0,0,0,.68.18c.54,0,1.09,0,1.63,0,.38,0,.49-.14.48-.5s0-1,0-1.54V80.08c0-1,0-.85-.84-.86H56.53c-.75,0-.77,0-.77.75,0,1.25,0,2.5,0,3.75,0,.42-.14.54-.55.54-1.13,0-2.25,0-3.38,0-.45,0-.57-.15-.56-.58,0-1.29,0-2.59,0-3.88,0-.43-.13-.6-.57-.58s-1.14,0-1.71,0c-.32,0-.47.08-.46.43V92.06c0,.17,0,.34.19.43,0,.17-.12.19-.25.07a.69.69,0,0,1-.13-.55V79.72c0-.63.1-.73.74-.73h1.72c.54,0,.7.17.7.7,0,1.28,0,2.56,0,3.84,0,.39.12.53.51.52,1,0,2,0,3,0,.36,0,.5-.11.5-.49,0-1.3,0-2.59,0-3.89,0-.57.12-.68.7-.68H58c.58,0,.73.15.73.71V91.94c0,.6-.16.76-.74.77H56.16a.62.62,0,0,1-.54-.27C55.53,92.32,55.62,92.28,55.72,92.27Z"/><path class="cls-1" d="M34.63,21.32A5.46,5.46,0,0,1,36.07,20a60.65,60.65,0,0,1,5-3.61,57.17,57.17,0,0,1,5.39-3.17A39.45,39.45,0,0,1,51.51,11c.94-.33,1.87-.68,2.82-1a4.17,4.17,0,0,1,1.35-.28c.09.24.32.15.48.2l-.09.22-.57,0c-.18,0-.37,0-.48.18l-.33,0c-.15,0-.3,0-.37.14l-.26.05a.46.46,0,0,0-.5.22l-.32,0c-.14,0-.26,0-.31.16l-.14,0c-.17,0-.37-.06-.45.18l-.18,0a.54.54,0,0,0-.5.22l-.13,0a.27.27,0,0,0-.31.17l-.24,0c-.14,0-.3,0-.36.17l-.18,0a.38.38,0,0,0-.4.22,0,0,0,0,0,0,0c-.16,0-.32,0-.39.17l-.15,0c-.13,0-.27,0-.3.17l-.15,0a.31.31,0,0,0-.33.22l-.13,0c-.15,0-.31,0-.37.18h0c-.2,0-.41,0-.5.25h-.13a.26.26,0,0,0-.28.2h0c-.16,0-.32,0-.39.18h-.05a.36.36,0,0,0-.43.24h-.12A.26.26,0,0,0,46,14h0c-.16,0-.3,0-.36.2h0c-.13,0-.26,0-.29.18l-.16,0c-.25.08-.54.12-.66.41l-.15,0a.23.23,0,0,0-.23.15l0,0a.35.35,0,0,0-.34.23h0c-.13,0-.26,0-.28.2h0a.76.76,0,0,0-.68.44l-.12,0a.26.26,0,0,0-.28.18h-.08a2,2,0,0,0-.91.62h0c-.13,0-.25,0-.28.18h0a.94.94,0,0,0-.64.46h0a.72.72,0,0,0-.65.44h0c-.12,0-.18.07-.21.19l-.13,0c-.13,0-.24,0-.26.18h0a1,1,0,0,0-.56.44h0c-.13,0-.26,0-.27.19h0a.28.28,0,0,0-.24.25h-.12c-.13,0-.25,0-.27.2h0c-.28.2-.62.32-.81.63h0c-.2.09-.43.17-.48.43h0a.21.21,0,0,0-.2.19l-.15,0a.26.26,0,0,0-.28.26h0a.2.2,0,0,0-.18.19h0a.49.49,0,0,0-.44.39v.1A1.5,1.5,0,0,0,34.63,21.32Z"/><path class="cls-1" d="M36.34,67.32c.48.24.87-.1,1.28-.21.63-.18.63-.19.59.45a.57.57,0,0,0,0,.22l0,.44c-.28.17-.23.44-.21.69-.19,1-.29,2.06-.55,3.07a14.57,14.57,0,0,0-.31,1.49A18.62,18.62,0,0,1,36.59,76a2.76,2.76,0,0,0-.07.49c0,.14,0,.32-.17.38a3.72,3.72,0,0,1,.06-1.41,3.5,3.5,0,0,0,.11-.79V69A4.19,4.19,0,0,0,36.34,67.32Z"/><path class="cls-1" d="M24.7,33.83V34h-.18c-.11-.23-.18-.06-.23,0a5.38,5.38,0,0,0-.58,1h-.08a3.61,3.61,0,0,1,.55-1.36,29.4,29.4,0,0,1,2-3.31c.36-.49.72-1,1.07-1.46a.54.54,0,0,0,.42-.48.93.93,0,0,1,.08-.2c1-1.13,1.92-2.3,3-3.35.54-.53,1.06-1.09,1.6-1.63.16-.16.42-.21.53-.44l.31,0V23a13.68,13.68,0,0,1-1.45,1.5,41.75,41.75,0,0,0-5.07,6.11c-.55.81-1,1.67-1.55,2.5a.25.25,0,0,0-.16.27l-.07.18A.21.21,0,0,0,24.7,33.83Z"/><path class="cls-1" d="M37.17,79.17l0,.55V91.86c0,.59,0,.59.6.59h8.45a1.05,1.05,0,0,0,.67-.19c.09,0,.21,0,.13.16a.65.65,0,0,1-.57.29H37.56c-.48,0-.67-.2-.67-.7V79.63C36.89,79.43,36.83,79.18,37.17,79.17Z"/><path class="cls-1" d="M33.36,45.18c.11-.23.33-.17.51-.19.55-.05.61-.12.61-.67V24c0-.52,0-1.05,0-1.58,0-.11,0-.26-.1-.32s-.16.11-.24.16l-.54.38h0c.05-.18-.06-.22-.21-.21l0,0a3.69,3.69,0,0,1,1.28-1.07c0,2.56,0,5.12,0,7.68V44.19C34.64,45.14,34.34,45.37,33.36,45.18Z"/><path class="cls-1" d="M61,31.72a.38.38,0,0,1-.24.4.86.86,0,0,0-.43.9c0,5.14,0,10.28,0,15.42,0,.27,0,.58.39.54,0,.09-.1.18-.16.27s-.17.18-.31.14-.13-.18-.14-.3a1.62,1.62,0,0,1,0-.22c0-5.23,0-10.45,0-15.67A1.45,1.45,0,0,1,61,31.72Z"/><path class="cls-1" d="M54.71,14.39a.49.49,0,0,1-.46.22,6.61,6.61,0,0,0-1.85.51,23,23,0,0,0-3.22,1.42c-.24.11-.46.27-.69.4a40.64,40.64,0,0,0-5.84,4,.5.5,0,0,0-.25.4s0,0,0,.06h-.17l-.34-.05v-.19H42a.28.28,0,0,0,.28-.27h0a.2.2,0,0,0,.19-.18h0a.24.24,0,0,0,.25-.2h0a3.1,3.1,0,0,0,.81-.63h0c.14,0,.18-.12.2-.25h0a.28.28,0,0,0,.28-.18H44l.09-.09.09-.09a.4.4,0,0,0,.37-.27h0a.2.2,0,0,0,.19-.18h0c.54-.1.86-.53,1.26-.83h0a.93.93,0,0,0,.64-.45h0a2.51,2.51,0,0,0,1.29-.8l.15,0a1,1,0,0,0,.66-.43l.24,0a.18.18,0,0,0,.19-.16l.08,0a.33.33,0,0,0,.4-.24h.15c.22-.11.48-.14.63-.37h0A1.9,1.9,0,0,0,51.53,15h0c.17,0,.36,0,.45-.18h.09a2.67,2.67,0,0,0,1.19-.43l.25,0a1.57,1.57,0,0,0,.74-.16C54.34,14.41,54.55,14.34,54.71,14.39Z"/><path class="cls-1" d="M51.26,92.46l0-5.1c0-.59,0-.6.61-.6h3.43c.26,0,.43,0,.43.37,0,1.44,0,2.89,0,4.33a.58.58,0,0,1,0,.18c-.25-.1-.2-.32-.2-.5V87.61c0-.59,0-.59-.61-.59-.95,0-1.9,0-2.85,0-.47,0-.54.13-.53.54,0,1.51,0,3,0,4.52C51.52,92.22,51.66,92.53,51.26,92.46Z"/><path class="cls-1" d="M46.86,90.17A1.17,1.17,0,0,0,46.1,90c-1.86,0-3.72,0-5.59,0-.62,0-.63,0-.63-.62s0-1.32,0-2c0-.16-.06-.41.26-.34,0,.73,0,1.47,0,2.21,0,.4.13.52.52.52,1.9,0,3.8,0,5.69,0C46.63,89.74,47,89.71,46.86,90.17Z"/><path class="cls-1" d="M46.64,79.25c-.24,0-.48,0-.72,0H37.84l-.67,0c.06-.22.24-.19.4-.19h8.65C46.41,79,46.63,79,46.64,79.25Z"/><path class="cls-1" d="M40.14,84.47c-.22,0-.26-.1-.26-.26V82.08c0-.38.26-.37.53-.37h5.51l.72,0c0,.36-.3.28-.51.28H40.82c-.68,0-.69,0-.68.7Z"/><path class="cls-1" d="M44.93,21.32h7.88c.21,0,.41,0,.62,0l0,.21H44.77a2.07,2.07,0,0,0,0-.22Z"/><path class="cls-1" d="M66.08,11.82a3,3,0,0,1,1,1.84,5.29,5.29,0,0,1,.24,1.78,13,13,0,0,1-.91,4c-.1.21-.07.5-.33.63l0,0c0-.24,0-.51.11-.74.76-1.17.66-2.54.89-3.82.12-.65-.25-1.26-.19-1.91,0-.11-.13-.23-.16-.36-.15-.49-.59-.83-.65-1.36Z"/><path class="cls-1" d="M57,76.63v-.18a1.32,1.32,0,0,1,.78.48c.1.1.2.19.33.13s.11-.21.09-.32c-.1-.5-.24-1-.31-1.48a8,8,0,0,1-.27-1.61c.33.12.1.55.39.71a.55.55,0,0,1,.25.54c0,.16,0,.31.18.39v1.43c0,.6,0,.62-.63.56l-.18,0C57.46,77.06,57.4,76.69,57,76.63Z"/><path class="cls-1" d="M41.77,21.36c-.15.25-.41.21-.64.21H35.64l0-.21,1-.05h5Z"/><path class="cls-1" d="M60.38,28.73c-.23,0-.19-.2-.19-.34v-7c0-.13,0-.28.18-.31l0,0q0,3.34,0,6.69c0,.18,0,.37.19.46C60.62,28.49,60.38,28.56,60.38,28.73Z"/><path class="cls-1" d="M44.93,21.32l-.2,0-.26,0-.08,0-.1-.05A13.86,13.86,0,0,1,47.08,19a.27.27,0,0,0,.21.21c-.22.41-.68.53-1,.8s-.72.54-1.08.81A.69.69,0,0,0,44.93,21.32Z"/><path class="cls-1" d="M68.61,21.32c.07.26-.09.46-.19.67a22.57,22.57,0,0,1-2.16,3.63,1.13,1.13,0,0,1-.18.12.44.44,0,0,1,.12-.36,28.68,28.68,0,0,0,2.25-3.91C68.48,21.4,68.56,21.37,68.61,21.32Z"/><path class="cls-1" d="M61,19.69a3.84,3.84,0,0,1,.25-1.22,4.22,4.22,0,0,0-.23-3,.83.83,0,0,1,0-.22l0,0c.22.1.28.31.36.5a5.25,5.25,0,0,1,0,3.3c-.06.22,0,.52-.33.66Z"/><path class="cls-1" d="M64.18,23.66c0,.41-.36.64-.55.94-.45.69-.94,1.34-1.44,2-.08.11-.16.26-.35.25l0,0c0-.06,0-.13.06-.17a29.67,29.67,0,0,0,2-2.79.5.5,0,0,1,.34-.22Z"/><path class="cls-1" d="M59.56,9.1c.14-.18.35-.16.54-.17a15.54,15.54,0,0,1,3,0,.54.54,0,0,1,.41.17Z"/><path class="cls-1" d="M58.48,75.29c-.17-.08-.18-.23-.18-.39a.55.55,0,0,0-.25-.54c-.29-.16-.06-.59-.39-.71l0-.32,0-.23c.25.14.47.36.8.28Z"/><path class="cls-1" d="M67.8,1.07a.67.67,0,0,1-.23.13c-1.07.11-2.14.2-3.21.3a.41.41,0,0,1,.36-.24A15.84,15.84,0,0,1,67.8,1.07Z"/><path class="cls-1" d="M72.4,1.07H67.8c.09-.22.29-.18.46-.18h3.68C72.11.89,72.31.85,72.4,1.07Z"/><path class="cls-1" d="M60.75,49c.19-.46.63-.67,1-.94s.86-.82,1.36-1.16c.15-.09.27-.23.47-.24a.41.41,0,0,1-.15.26c-.82.67-1.63,1.35-2.45,2C60.91,49,60.82,49,60.75,49Z"/><path class="cls-1" d="M9.49,36.77a2.82,2.82,0,0,1-.6,1c-.37.5-.73,1-1.09,1.53a.24.24,0,0,1-.21.14A6.69,6.69,0,0,1,8.8,37.61C9,37.32,9.1,36.91,9.49,36.77Z"/><path class="cls-1" d="M66.08,20.06c0,.5-.33.83-.49,1.26a3,3,0,0,1-.77,1.27l0,0a1.41,1.41,0,0,1,.4-1c.33-.49.41-1.14.87-1.56Z"/><path class="cls-1" d="M23.62,35.06h.08l-1,2.88s-.09.07-.14.11a6,6,0,0,1,.53-1.92C23.26,35.76,23.28,35.33,23.62,35.06Z"/><path class="cls-1" d="M58.66,9.54l.73,0h.54a.23.23,0,0,0,.27,0,5.57,5.57,0,0,0,1.08,0l.14,0a1.8,1.8,0,0,1,.08.21H58.63Z"/><path class="cls-1" d="M53.61,21.33c.26-.66.73-1.2,1-1.88.07-.22,0-.53.3-.66a2.32,2.32,0,0,1-.48,1.49c-.23.39-.29.94-.8,1.14Z"/><path class="cls-1" d="M54.71,14.39c-.16-.05-.37,0-.46-.2.23-.08.53.07.71-.19l.18-.05a3.07,3.07,0,0,1,.8,0l.38.2c-.3.29-.69.11-1,.18A3.6,3.6,0,0,1,54.71,14.39Z"/><path class="cls-1" d="M23.22,38.39v2.36l-.08,0A3.11,3.11,0,0,1,23.22,38.39Z"/><path class="cls-1" d="M45.65,87a.72.72,0,0,0,.16-.55c0-.43,0-.87,0-1.3a.84.84,0,0,0-.25-.68c.24-.12.41,0,.42.22,0,.72,0,1.44,0,2.16C46,87,45.89,87.26,45.65,87Z"/><path class="cls-1" d="M58.34,14a14,14,0,0,1-2.24,0c0-.07,0-.14.07-.21h2.09Z"/><path class="cls-1" d="M56.16,10c-.16,0-.39,0-.48-.2l.26,0c.19,0,.4.07.48-.19l.18,0c.3.06.6.12.81-.19h.27a.23.23,0,0,0,.18.15v.24C57.27,9.68,56.73,9.94,56.16,10Z"/><path class="cls-1" d="M62.29,9.72a9.85,9.85,0,0,1,1.77.48.23.23,0,0,1,.13.17l0,0c-.76-.09-1.45-.46-2.22-.52,0,0-.07-.09-.11-.13Z"/><path class="cls-1" d="M36.37,77.16a2.18,2.18,0,0,0,1.22-1.32l0,0h.17c.11.45-.29.64-.48.93a4.52,4.52,0,0,0-.34.51,1.31,1.31,0,0,0-.47.09C36.3,77.43,36.26,77.33,36.37,77.16Z"/><path class="cls-1" d="M58.34,14l-.08-.21a1.86,1.86,0,0,1,1.36.33c.27.16.65.18.78.53l0,0c-.32,0-.54-.24-.81-.37a1.63,1.63,0,0,0-.42-.11c-.1-.23-.28-.22-.47-.17Z"/><path class="cls-1" d="M54.69,17.34c-.28-.14-.45-.46-.81-.46-.15-.28-.42-.14-.63-.18s-.49.1-.64-.18a10.94,10.94,0,0,1,1.81,0v.17c-.09,0-.16.09,0,.18S54.7,17.11,54.69,17.34Z"/><path class="cls-1" d="M29.38,45.43a8.62,8.62,0,0,1,1.9,0,.26.26,0,0,1-.24.18H29.62A.26.26,0,0,1,29.38,45.43Z"/><path class="cls-1" d="M20.88,24.29a3.63,3.63,0,0,1-1.44,1.28A3.63,3.63,0,0,1,20.88,24.29Z"/><path class="cls-1" d="M44.29,21.31l.1.05a3.06,3.06,0,0,1-1.43.21h-.54a1.29,1.29,0,0,0,0-.19s0,0,0-.06Z"/><path class="cls-1" d="M61.84,26.84c0,.36-.32.57-.54.82s-.26.23-.29.42l-.24,0a2.86,2.86,0,0,1,1-1.29Z"/><path class="cls-1" d="M23.66,36.49a5.78,5.78,0,0,1-.43,1.73A2.23,2.23,0,0,1,23.66,36.49Z"/><path class="cls-1" d="M60,17.53a16.5,16.5,0,0,0-.22-1.72A1.57,1.57,0,0,1,60,17.53Z"/><path class="cls-1" d="M64.19,10.37a1.94,1.94,0,0,1,1.27.81l0,0c-.23-.11-.46-.21-.68-.33s-.53-.15-.59-.48Z"/><path class="cls-1" d="M59.74,15.81l-1.07-1.18A1.33,1.33,0,0,1,59.74,15.81Z"/><path class="cls-1" d="M31.61,45.42a2.6,2.6,0,0,1,1.58-.22c-.14.26-.4.24-.64.24A4.24,4.24,0,0,1,31.61,45.42Z"/><path class="cls-1" d="M60.37,21.12A4,4,0,0,1,61,19.69l0,0a2.13,2.13,0,0,1-.64,1.44Z"/><path class="cls-1" d="M23.86,42.66a10.64,10.64,0,0,1,1.07,1.26C24.43,43.62,23.94,43.32,23.86,42.66Z"/><path class="cls-1" d="M57,76.63c.36.06.42.43.63.63H57C57.07,77.05,56.68,76.84,57,76.63Z"/><path class="cls-1" d="M24.51,34h.18a4.61,4.61,0,0,1-.63,1.37l0-.13C24.05,34.75,24.45,34.42,24.51,34Z"/><path class="cls-1" d="M7.59,39.48a2,2,0,0,1-.81,1.27A2.81,2.81,0,0,1,7.59,39.48Z"/><path class="cls-1" d="M64.82,22.59a2,2,0,0,1-.64,1.07l0,0a1.87,1.87,0,0,1,.63-1.08Z"/><path class="cls-1" d="M27.83,45.2c.39,0,.8-.09,1.13.22C28.57,45.41,28.14,45.63,27.83,45.2Z"/><path class="cls-1" d="M56.17,13.75,56.1,14h-.16a3.07,3.07,0,0,0-.8,0c0-.26.23-.32.46-.29Z"/><path class="cls-1" d="M54.89,18.61a4.55,4.55,0,0,0-.2-1.27A1,1,0,0,1,54.89,18.61Z"/><path class="cls-1" d="M26.58,44.81a2,2,0,0,1,1.08.38c-.4.16-.69-.26-1.08-.2Z"/><path class="cls-1" d="M24.94,43.93a2.71,2.71,0,0,1,1,.62v.09A1.75,1.75,0,0,1,24.94,43.93Z"/><path class="cls-1" d="M57.85,9.72V9.48c.27,0,.54-.07.8.06l0,.19-.51,0Z"/><path class="cls-1" d="M23.44,41.8a1.26,1.26,0,0,1,.42.85A.84.84,0,0,1,23.44,41.8Z"/><path class="cls-1" d="M65.46,11.18a1,1,0,0,1,.62.64l0,0a.91.91,0,0,1-.63-.63Z"/><path class="cls-1" d="M61.28,9.5a5.57,5.57,0,0,1-1.08,0V9.31h.75C61.09,9.3,61.23,9.32,61.28,9.5Z"/><path class="cls-1" d="M60.77,28.11l.24,0a.76.76,0,0,1-.63.65c0-.17.24-.24.2-.43h0a.19.19,0,0,0,.18-.19Z"/><path class="cls-1" d="M57.7,9.31c.28-.28.64-.15,1-.19V9.3Z"/><path class="cls-1" d="M62.29,9.72l-.46,0-.33,0-.08-.21A1,1,0,0,1,62.29,9.72Z"/><path class="cls-1" d="M59.75,18.6c0-.28-.08-.59.19-.81A.71.71,0,0,1,59.75,18.6Z"/><path class="cls-1" d="M23.23,41a.68.68,0,0,1,.19.63C23.15,41.5,23.18,41.26,23.23,41Z"/><path class="cls-1" d="M61,15.28a.64.64,0,0,1-.45-.45l0,0a.53.53,0,0,1,.45.46Z"/><path class="cls-1" d="M26,44.64v-.09c.19,0,.39,0,.47.24C26.24,44.82,26.05,44.84,26,44.64Z"/><path class="cls-1" d="M58.5,14.59a.44.44,0,0,1-.49-.22C58.22,14.35,58.43,14.3,58.5,14.59Z"/><path class="cls-1" d="M58.67,14c.19-.05.37-.06.47.17C59,14.17,58.76,14.22,58.67,14Z"/><path class="cls-1" d="M23.86,35.86c0,.18.05.37-.18.46A.33.33,0,0,1,23.86,35.86Z"/><path class="cls-1" d="M59.93,9.49h-.54c.11-.28.35-.17.55-.18Z"/><path class="cls-1" d="M35.61,21.36l0,.21c-.15,0-.3,0-.38-.14v-.1Z"/><path class="cls-1" d="M58.67,9.3V9.12h.45C59,9.33,58.84,9.29,58.67,9.3Z"/><path class="cls-1" d="M57.4,14.26a.3.3,0,0,1-.45-.08C57.11,14.16,57.27,14.12,57.4,14.26Z"/><path class="cls-1" d="M24.05,35.42a.48.48,0,0,1-.19.44v-.44Z"/><path class="cls-1" d="M59.93,9.49V9.31h.25v.18A.23.23,0,0,1,59.93,9.49Z"/><path class="cls-1" d="M46.66,79.62l0-.37C46.87,79.36,46.87,79.49,46.66,79.62Z"/><path class="cls-1" d="M46.64,81.69l0-.36C46.87,81.46,46.87,81.58,46.64,81.69Z"/><path class="cls-1" d="M44.47,21.38l.26,0a2.07,2.07,0,0,1,0,.22A.29.29,0,0,1,44.47,21.38Z"/><path class="cls-1" d="M41.77,21.36l-.19-.05a.26.26,0,0,1,.29-.17v.19Z"/><path class="cls-1" d="M53.61,21.33v.09a.19.19,0,0,1-.2.15l0-.21Z"/><path class="cls-1" d="M42.38,21.38a1.29,1.29,0,0,1,0,.19.2.2,0,0,1-.21-.19Z"/><path class="cls-1" d="M54.42,16.7v-.17c.13,0,.24,0,.28.17Z"/><path class="cls-1" d="M26.58,44.81V45a.19.19,0,0,1-.17-.19Z"/><path class="cls-1" d="M24.05,35.42h-.18a.33.33,0,0,1,.17-.21l0,.13A.22.22,0,0,1,24.05,35.42Z"/><path class="cls-1" d="M60.55,14.83c-.13,0-.19-.06-.18-.19l0,0,.18.18Z"/><path class="cls-1" d="M74.32,104.22c0-.17.06-.28.22-.28l2.47,0a.57.57,0,0,1-.53.19H74.87A.82.82,0,0,0,74.32,104.22Z"/><path class="cls-1" d="M77.27,103.86a.24.24,0,0,1,.31-.19C77.51,103.8,77.44,103.91,77.27,103.86Z"/><path class="cls-1" d="M58.76,2.41a14.41,14.41,0,0,1,2.05-.55c.06,0,.13,0,.15,0s-.06.13-.14.14c-.25.05-.48.17-.72.23a8.27,8.27,0,0,0-1.1.23A.18.18,0,0,1,58.76,2.41Z"/><path class="cls-1" d="M43.75,106a6.78,6.78,0,0,0-.09,2.06c0,.16.12.22.27.26s.36,0,.49.2c-.79,0-.94-.08-.94-.85v-1.29C43.48,106.19,43.49,106,43.75,106Z"/><path class="cls-1" d="M45.2,104.57c.22.21.26.42,0,.63Z"/><path class="cls-1" d="M45,108.52a.65.65,0,0,1,.58-.18C45.45,108.63,45.2,108.52,45,108.52Z"/><path class="cls-1" d="M45,103.85a.39.39,0,0,1,.17.45A.33.33,0,0,1,45,103.85Z"/><path class="cls-1" d="M44.77,103.26a.4.4,0,0,1,.19.41C44.73,103.61,44.74,103.44,44.77,103.26Z"/><path class="cls-1" d="M45.11,105.55l-.16.23A.21.21,0,0,1,45.11,105.55Z"/><path class="cls-1" d="M44.92,105.82a.16.16,0,0,1-.18.16A.23.23,0,0,1,44.92,105.82Z"/><path class="cls-1" d="M45.81,108.26a.19.19,0,0,1,.2-.17A.2.2,0,0,1,45.81,108.26Z"/><path class="cls-1" d="M70.78,108.27q0-5.76,0-11.52c0-.22,0-.45,0-.67.24,0,.21.22.21.38V108C71,108.07,71.06,108.29,70.78,108.27Z"/><path class="cls-1" d="M68.64,108.25c0-2.93,0-5.85,0-8.78,0-.7,0-.7-.69-.7l-1.48,0-.1-.21h2.44v9.13C68.79,107.91,68.87,108.13,68.64,108.25Z"/><path class="cls-1" d="M68.79,98.6h-2.7c0-.24.19-.2.33-.2q1.14,0,2.28,0c.14,0,.31,0,.32.2Z"/><path class="cls-1" d="M39.68,100.7c-.73,0-1.45,0-2.17,0-.14,0-.31,0-.35-.22l2,0C39.32,100.52,39.54,100.49,39.68,100.7Z"/><path class="cls-1" d="M40.34,100.93c-.14,0-.25,0-.29-.17A.28.28,0,0,1,40.34,100.93Z"/><path class="cls-1" d="M62.46,102.66c-1.05,0-2.1,0-3.15,0,0-.23.14-.27.32-.27h2.51C62.31,102.4,62.47,102.42,62.46,102.66Z"/><path class="cls-1" d="M59.3,104.56a.34.34,0,0,1,.28.16C59.44,104.75,59.31,104.75,59.3,104.56Z"/><path class="cls-1" d="M62.27,104.72a.33.33,0,0,1,.19-.16C62.47,104.7,62.39,104.74,62.27,104.72Z"/><path class="cls-1" d="M57.41,9.33c-.21.31-.51.25-.81.19A.91.91,0,0,1,57.41,9.33Z"/><path class="cls-1" d="M33.18,22.85l-.31,0a.73.73,0,0,1,.48-.44l0,0c-.06.15-.21.25-.19.43Z"/><path class="cls-1" d="M27.66,28.45a.54.54,0,0,1-.42.48A.68.68,0,0,1,27.66,28.45Z"/><path class="cls-1" d="M56.42,9.54c-.08.26-.29.21-.48.19A.39.39,0,0,1,56.42,9.54Z"/><path class="cls-1" d="M46,42.46c.49-.64,0-1-.38-1.41-.15-.14-.36-.25-.42-.48a1,1,0,0,0,.82-.46c.3.07.41.36.63.53s.3.17.41,0c.29-.44.56-.91.85-1.35A6.89,6.89,0,0,1,48.78,38c0,.39.14.46.48.28s.34-.29.59-.25a7,7,0,0,1-.8,1.45,15.64,15.64,0,0,0-1.31,2.33,1.87,1.87,0,0,0-.9.39A1.15,1.15,0,0,1,46,42.46Z"/><path class="cls-1" d="M50.08,55.75c.51.07.78.51,1.16.77.86.59,1.68,1.23,2.51,1.86.18.13.29.17.33-.1.22.16.23.42.34.64h0c-.45,0-.67.4-.9.68a.91.91,0,0,1-.93.39,1,1,0,0,1,.17-.14c.45-.22.47-.24.08-.55-.89-.71-1.8-1.38-2.69-2.08-.13-.1-.34-.15-.35-.37s.1-.17.17-.21C50.42,56.39,50.5,56.1,50.08,55.75Z"/><path class="cls-1" d="M47.56,28.74a1.28,1.28,0,0,1-.69.42c-.5.2-.53.25-.29.72a1.23,1.23,0,0,1,.07.29c-.29-.12-.34-.4-.43-.65a.23.23,0,0,1,.1-.31A2.55,2.55,0,0,1,47.56,28.74Z"/><path class="cls-1" d="M48.54,54.51a6.61,6.61,0,0,1,1.54,1.24A3.35,3.35,0,0,1,48.54,54.51Z"/><path class="cls-1" d="M47.72,29.63a.73.73,0,0,1,.11-.43c.18-.3.12-.48-.27-.46a.34.34,0,0,1,.51-.19.39.39,0,0,1,.06.52C48,29.27,48,29.53,47.72,29.63Z"/><path class="cls-1" d="M46.23,28.27c0,.26.21.29.42.28a.3.3,0,0,1-.53.12C45.94,28.53,46,28.36,46.23,28.27Z"/><path class="cls-1" d="M46.64,26.2c0,.27.13.59-.18.81A.69.69,0,0,1,46.64,26.2Z"/><path class="cls-1" d="M39.48,61.27c0,.25.07.53-.22.69C39.24,61.7,39.18,61.42,39.48,61.27Z"/><path class="cls-1" d="M46.43,27.45a.66.66,0,0,1-.2.69C46.18,27.88,46.16,27.62,46.43,27.45Z"/><path class="cls-1" d="M39.68,60.36c0,.22.11.48-.17.64A.52.52,0,0,1,39.68,60.36Z"/><path class="cls-1" d="M47.28,28.28c.06-.26.28-.17.44-.19C47.64,28.3,47.51,28.41,47.28,28.28Z"/><path class="cls-1" d="M47.72,28.09c.08-.23.27-.19.45-.2C48.1,28.14,47.9,28.09,47.72,28.09Z"/><path class="cls-1" d="M48.78,38c0-.14,0-.28,0-.42C49.08,37.72,49.1,37.86,48.78,38Z"/><path class="cls-1" d="M46.92,30.62h.36c0,.09,0,.2-.12.21S47,30.75,46.92,30.62Z"/><path class="cls-1" d="M47.3,30.45c0-.18.06-.27.21-.32C47.55,30.31,47.5,30.43,47.3,30.45Z"/><path class="cls-1" d="M46.8,28.53c.05-.15.14-.24.31-.21A.23.23,0,0,1,46.8,28.53Z"/><path class="cls-1" d="M46.65,30.17a.24.24,0,0,1,.19.27C46.68,30.42,46.64,30.31,46.65,30.17Z"/><path class="cls-1" d="M49.63,56.77c-.13,0-.19-.06-.21-.19A.19.19,0,0,1,49.63,56.77Z"/><path class="cls-1" d="M49.43,56.59a.23.23,0,0,1-.26-.2C49.31,56.39,49.42,56.43,49.43,56.59Z"/><path class="cls-1" d="M47.54,30c0-.15.05-.23.17-.3C47.73,29.84,47.7,30,47.54,30Z"/><path class="cls-1" d="M48.16,27.9a.34.34,0,0,1,.19-.27C48.37,27.78,48.34,27.89,48.16,27.9Z"/><path class="cls-1" d="M44.37,39.69c-.13,0-.24-.06-.27-.2C44.24,39.49,44.35,39.52,44.37,39.69Z"/><path class="cls-1" d="M45,40.32c-.13,0-.23-.06-.24-.21C44.89,40.12,45,40.17,45,40.32Z"/><path class="cls-1" d="M45.38,39.47c.12,0,.21.06.21.19A.24.24,0,0,1,45.38,39.47Z"/><path class="cls-1" d="M45.84,42.65c0-.13,0-.19.17-.19A.24.24,0,0,1,45.84,42.65Z"/><path class="cls-1" d="M47.74,41.82a.17.17,0,0,1,.18.19A.19.19,0,0,1,47.74,41.82Z"/><path class="cls-1" d="M45.18,40.54a.26.26,0,0,1-.19-.23A.21.21,0,0,1,45.18,40.54Z"/><path class="cls-1" d="M45.83,39.93c.13,0,.19.06.19.18A.23.23,0,0,1,45.83,39.93Z"/><path class="cls-1" d="M44.75,40.11a.17.17,0,0,1-.18-.17A.23.23,0,0,1,44.75,40.11Z"/><path class="cls-1" d="M45.65,39.73c.13,0,.17.09.19.2A.23.23,0,0,1,45.65,39.73Z"/><path class="cls-1" d="M44.55,39.91a.26.26,0,0,1-.19-.23C44.49,39.7,44.54,39.78,44.55,39.91Z"/><path class="cls-1" d="M24.7,33.83a.21.21,0,0,1,.18-.23C24.9,33.74,24.8,33.79,24.7,33.83Z"/><path class="cls-1" d="M33.6,22.64c0,.15-.11.19-.24.22l0,0a.47.47,0,0,1,.24-.2Z"/><path class="cls-1" d="M25,33.42a.25.25,0,0,1,.16-.27A.23.23,0,0,1,25,33.42Z"/><path class="cls-1" d="M33.18,23v-.19h0l.16,0,0,0C33.36,23,33.31,23,33.18,23Z"/><path class="cls-1" d="M52.59,60a.91.91,0,0,0,.93-.39c.23-.28.45-.65.9-.68a1.91,1.91,0,0,1-1.52,1.43c-.62.12-.61.12-.38.67a.68.68,0,0,1-.23.9c-.51.43-1,.94-1.44,1.4-1.33,1.29-2.56,2.67-3.94,3.9-.23.21-.44.44-.67.65-.75.68-1.16.68-1.84-.06-.19-.21-.45-.22-.66-.37l-1.17-.9a1.43,1.43,0,0,0-.75-.29.34.34,0,0,0-.36.21c-.06.15,0,.23.14.3.27.22.41.62.85.59a.2.2,0,0,1,.15.1c.23.68.88.82,1.42,1.09a1,1,0,0,1,.27,1.6c-.58.6-1.19,1.17-1.78,1.76s-1.15,1.1-1.7,1.68a.89.89,0,0,1-.88.32,12.3,12.3,0,0,1,1.41-1.48c.88-.89,1.82-1.73,2.73-2.61.36-.35.34-.46-.08-.75L41.48,67.3s0-.1-.08-.15a.23.23,0,0,0-.26-.19h0a.39.39,0,0,0-.39-.25h0c-.32-.68-.32-.68.42-1l.49-.23.1,0a.21.21,0,0,0,.21.18h0c0,.16.12.2.26.2a.55.55,0,0,1,.25.1c.87.62,1.77,1.2,2.61,1.86.33.26.49.15.7-.07,1-1.06,2.07-2,3.09-3.05s2.2-2.13,3.28-3.22c-.13-.31-.27-.3-.44,0h0c-.22,0-.49-.11-.64.19h-.13c-.27,0-.61-.15-.77.23l-.18,0c-.1-.11-.26,0-.43-.11a9.37,9.37,0,0,1,1.56-.94,2,2,0,0,0,.85-.68h0c.17,0,.37.06.46-.17Z"/><path class="cls-1" d="M57.21,71a3.6,3.6,0,0,1-.41-1.39,26.6,26.6,0,0,0-.59-2.79A8.41,8.41,0,0,1,56,65.59c-.19-1-.44-2-.64-3-.09-.42-.14-.86-.24-1.28-.06-.27-.13-.3-.33-.1L53,63l-1.56,1.53a.39.39,0,0,1-.32.13.51.51,0,0,1,.13-.5c1-.87,1.74-1.94,2.75-2.78.27-.23.43-.57.78-.72s.45-.08.56.12.43.55.42.88a13.41,13.41,0,0,0,.2,1.55,2.24,2.24,0,0,1,0,1,.25.25,0,0,0,.05.21c.46.25.31.78.52,1.15.07.11,0,.23,0,.34s-.12.26-.08.35c.2.48.07,1.07.46,1.5a.46.46,0,0,1,.14.42c-.1.33.06.63.06.92C57.07,69.75,57.51,70.35,57.21,71Z"/><path class="cls-1" d="M47.29,69.48a7,7,0,0,1,1.42.94c1.13.79,2.24,1.61,3.36,2.42a1.31,1.31,0,0,0,.9.63l3.76,2.72c.1.07.21.13.25.25a1.17,1.17,0,0,1-1.08-.33c-.32-.34-.86-.45-1-1a.21.21,0,0,0-.15-.09c-.62,0-1-.41-1.31-.81-.17-.19-.4-.2-.57-.34-.6-.46-1.24-.88-1.83-1.36a19.41,19.41,0,0,0-1.64-1.17,4.82,4.82,0,0,1-1.3-1,.42.42,0,0,0-.3-.18A.58.58,0,0,1,47.29,69.48Z"/><path class="cls-1" d="M54.42,58.92c-.11-.22-.12-.48-.34-.64l0,0c0-.32.2-.48.45-.61.06.26.11.53.19.78s.25.1.38,0a28.73,28.73,0,0,0,2.61-1.58,4.5,4.5,0,0,1,.43-.23,1.08,1.08,0,0,1-.75.81c-.3.12-.69.17-.71.63a.11.11,0,0,1-.16.1.69.69,0,0,0-.78.21A2.15,2.15,0,0,1,54.42,58.92Z"/><path class="cls-1" d="M51.11,64.63a7.53,7.53,0,0,1-1.44,1.54c-.14.14-.24.35-.47.37a.63.63,0,0,1,.24-.62,7.37,7.37,0,0,0,1-1.06A.59.59,0,0,1,51.11,64.63Z"/><path class="cls-1" d="M47.3,68.42s0,.07,0,.08c-.43.33-.37.66,0,1-.29,0-.73.2-.7-.43S46.65,68.45,47.3,68.42Z"/><path class="cls-1" d="M37.59,75.84c-.22-.08-.21-.25-.12-.4s.22-.31.34-.21c.43.32.65,0,.92-.23,0,0,.08,0,.12,0a.74.74,0,0,1-.88.67c0-.11-.11-.19-.24-.14s-.11.19-.11.31Z"/><path class="cls-1" d="M47.93,67.79a1,1,0,0,1-.64.63C47.29,67.85,47.36,67.79,47.93,67.79Z"/><path class="cls-1" d="M49.2,66.53a1,1,0,0,1-.64.63C48.55,66.58,48.63,66.51,49.2,66.53Z"/><path class="cls-1" d="M48.56,67.16a1,1,0,0,1-.64.63C47.92,67.25,48,67.18,48.56,67.16Z"/><path class="cls-1" d="M57.64,73.33c-.31-.19-.21-.5-.21-.77l.23,0,0,.52Z"/><path class="cls-1" d="M57.66,72.58l-.23,0,0-.36.07-.27C57.88,72.05,57.76,72.32,57.66,72.58Z"/><path class="cls-1" d="M57.23,71.57l0-.45c.42.12.45.21.2.54Z"/><path class="cls-1" d="M39.48,74.36c.11-.2.21-.4.45-.47C40.12,74.37,39.83,74.39,39.48,74.36Z"/><path class="cls-1" d="M57.23,71.57l.18.09a2.68,2.68,0,0,1,.07.27l-.07.27C57.15,72,57.23,71.79,57.23,71.57Z"/><path class="cls-1" d="M37.62,75.81c0-.12,0-.25.11-.31s.2,0,.24.14a.27.27,0,0,1-.18.18Z"/><path class="cls-1" d="M38.84,75a.64.64,0,0,1,.47-.46A.55.55,0,0,1,38.84,75Z"/><path class="cls-1" d="M39.3,74.53c0-.12.08-.17.19-.18A.18.18,0,0,1,39.3,74.53Z"/><path class="cls-1" d="M52.61,16.52c.15.28.42.14.64.18s.48-.1.63.18A8.48,8.48,0,0,0,49.48,18c-.77.37-1.42.93-2.19,1.28a.27.27,0,0,1-.21-.21,20.67,20.67,0,0,1,3.63-2,16.66,16.66,0,0,0,1.69-.55C52.45,16.46,52.54,16.51,52.61,16.52Z"/><path class="cls-1" d="M38,68.91c0-.25-.07-.52.21-.69A.7.7,0,0,1,38,68.91Z"/><path class="cls-1" d="M40.75,66.7a.39.39,0,0,1,.39.25A.36.36,0,0,1,40.75,66.7Z"/><path class="cls-1" d="M41.14,67a.23.23,0,0,1,.26.19C41.27,67.15,41.16,67.12,41.14,67Z"/><path class="cls-1" d="M54.51,57.65c-.25.13-.46.29-.45.61-.14-.09-.32-.24-.13-.36.45-.28.32-.68.34-1.06C54.61,57,54.48,57.37,54.51,57.65Z"/><path class="cls-1" d="M54.24,56.56c-.29-.22-.15-.53-.18-.81A.64.64,0,0,1,54.24,56.56Z"/><path class="cls-1" d="M58.12,9.75c0,.12-.12.23-.24.23-.62,0-1.2.19-1.81.19l.09-.22c.57,0,1.11-.27,1.69-.23Z"/><path class="cls-1" d="M35.7,20.94c.08.21.27.19.45.2s.37,0,.46.17l-1,.05-.35,0A.49.49,0,0,1,35.7,20.94Z"/><path class="cls-1" d="M42.31,16.08a1.13,1.13,0,0,1-.91.62A2,2,0,0,1,42.31,16.08Z"/><path class="cls-1" d="M37.79,19.24c-.07.47-.48.49-.81.63C37.17,19.56,37.51,19.44,37.79,19.24Z"/><path class="cls-1" d="M45.2,14.38c-.09.34-.37.39-.66.42C44.66,14.5,45,14.46,45.2,14.38Z"/><path class="cls-1" d="M41.13,16.88a.53.53,0,0,1-.64.46A.94.94,0,0,1,41.13,16.88Z"/><path class="cls-1" d="M40.5,17.33a.75.75,0,0,1-.65.44A.72.72,0,0,1,40.5,17.33Z"/><path class="cls-1" d="M43.47,15.43c-.12.3-.41.36-.68.44A.76.76,0,0,1,43.47,15.43Z"/><path class="cls-1" d="M39.24,18.16a.47.47,0,0,1-.56.44A1,1,0,0,1,39.24,18.16Z"/><path class="cls-1" d="M37,19.88a.49.49,0,0,1-.48.43C36.55,20.05,36.78,20,37,19.88Z"/><path class="cls-1" d="M52.79,11a.3.3,0,0,1-.45.18C52.42,11,52.62,11,52.79,11Z"/><path class="cls-1" d="M48.17,12.9c-.08.25-.29.25-.5.25C47.76,12.91,48,12.9,48.17,12.9Z"/><path class="cls-1" d="M54.06,10.59a.45.45,0,0,1-.5.22A.46.46,0,0,1,54.06,10.59Z"/><path class="cls-1" d="M51,11.65c0,.19-.14.32-.36.17C50.68,11.63,50.84,11.65,51,11.65Z"/><path class="cls-1" d="M52.16,11.22c-.09.26-.29.25-.5.22A.54.54,0,0,1,52.16,11.22Z"/><path class="cls-1" d="M55.5,10.19c-.09.24-.3.18-.48.18C55.13,10.17,55.32,10.19,55.5,10.19Z"/><path class="cls-1" d="M54.69,10.4c-.08.16-.17.28-.37.14C54.39,10.36,54.54,10.39,54.69,10.4Z"/><path class="cls-1" d="M50.44,11.86c0,.25-.21.24-.4.22A.38.38,0,0,1,50.44,11.86Z"/><path class="cls-1" d="M46.83,13.54a.36.36,0,0,1-.43.24A.36.36,0,0,1,46.83,13.54Z"/><path class="cls-1" d="M36.16,20.51a.29.29,0,0,1-.28.26A.26.26,0,0,1,36.16,20.51Z"/><path class="cls-1" d="M44.12,15c0,.21-.15.26-.34.23A.35.35,0,0,1,44.12,15Z"/><path class="cls-1" d="M46,14c0,.21-.2.21-.36.2C45.7,14,45.84,14,46,14Z"/><path class="cls-1" d="M48.54,12.72c-.06.19-.21.19-.37.18C48.23,12.71,48.39,12.73,48.54,12.72Z"/><path class="cls-1" d="M47.27,13.35c-.06.21-.22.19-.39.18C47,13.34,47.11,13.35,47.27,13.35Z"/><path class="cls-1" d="M49,12.48c0,.21-.16.25-.33.22A.31.31,0,0,1,49,12.48Z"/><path class="cls-1" d="M50,12.09c-.07.2-.23.19-.39.17C49.67,12.08,49.83,12.09,50,12.09Z"/><path class="cls-1" d="M46.28,13.78c0,.16-.13.21-.29.2A.26.26,0,0,1,46.28,13.78Z"/><path class="cls-1" d="M47.54,13.15c0,.16-.13.21-.28.2A.26.26,0,0,1,47.54,13.15Z"/><path class="cls-1" d="M49.45,12.28a.26.26,0,0,1-.3.17C49.18,12.28,49.32,12.28,49.45,12.28Z"/><path class="cls-1" d="M42.67,15.89a.25.25,0,0,1-.28.18A.26.26,0,0,1,42.67,15.89Z"/><path class="cls-1" d="M38.42,18.79c0,.15-.07.25-.24.25A.28.28,0,0,1,38.42,18.79Z"/><path class="cls-1" d="M38.69,18.6c0,.14-.14.18-.27.19C38.43,18.62,38.56,18.61,38.69,18.6Z"/><path class="cls-1" d="M51.53,11.46c-.05.16-.17.18-.31.17A.27.27,0,0,1,51.53,11.46Z"/><path class="cls-1" d="M53.24,10.83a.25.25,0,0,1-.31.16C53,10.84,53.1,10.82,53.24,10.83Z"/><path class="cls-1" d="M43.75,15.23a.23.23,0,0,1-.28.2C43.49,15.27,43.62,15.25,43.75,15.23Z"/><path class="cls-1" d="M41.4,16.7c0,.14-.14.18-.28.18C41.15,16.72,41.27,16.7,41.4,16.7Z"/><path class="cls-1" d="M45.65,14.17c0,.15-.15.18-.29.18C45.39,14.18,45.52,14.18,45.65,14.17Z"/><path class="cls-1" d="M39.51,18a.26.26,0,0,1-.26.18C39.27,18,39.38,18,39.51,18Z"/><path class="cls-1" d="M38.06,19c0,.14-.13.19-.27.2C37.81,19.07,37.93,19.05,38.06,19Z"/><path class="cls-1" d="M36.51,20.3a.21.21,0,0,1-.2.19A.21.21,0,0,1,36.51,20.3Z"/><path class="cls-1" d="M39.85,17.77a.2.2,0,0,1-.21.19C39.67,17.84,39.73,17.77,39.85,17.77Z"/><path class="cls-1" d="M35.88,20.76a.2.2,0,0,1-.18.19A.2.2,0,0,1,35.88,20.76Z"/><path class="cls-1" d="M44.39,14.82a.2.2,0,0,1-.23.15A.23.23,0,0,1,44.39,14.82Z"/><path class="cls-1" d="M33.34,22.83l-.16,0c0-.18.13-.28.19-.43s.26,0,.21.21A.47.47,0,0,0,33.34,22.83Z"/><path class="cls-1" d="M44.75,18.8A1.58,1.58,0,0,1,46,18C45.61,18.27,45.29,18.7,44.75,18.8Z"/><path class="cls-1" d="M46.65,17.52a1.73,1.73,0,0,1,1.29-.8A2.51,2.51,0,0,1,46.65,17.52Z"/><path class="cls-1" d="M53.51,14.35A1.42,1.42,0,0,1,55,14c-.18.26-.48.11-.71.19A1.57,1.57,0,0,1,53.51,14.35Z"/><path class="cls-1" d="M52.07,14.8c.21-.65.73-.47,1.19-.43A2.67,2.67,0,0,1,52.07,14.8Z"/><path class="cls-1" d="M50.44,15.44c0-.3.05-.48.43-.41a3,3,0,0,0,.66,0A1.9,1.9,0,0,1,50.44,15.44Z"/><path class="cls-1" d="M42.66,20.49a.76.76,0,0,1,.81-.63A3.1,3.1,0,0,1,42.66,20.49Z"/><path class="cls-1" d="M46,18a.57.57,0,0,1,.64-.45A.93.93,0,0,1,46,18Z"/><path class="cls-1" d="M48.09,16.7a.6.6,0,0,1,.66-.43A1,1,0,0,1,48.09,16.7Z"/><path class="cls-1" d="M49.81,15.81c.07-.36.35-.38.63-.37C50.29,15.67,50,15.7,49.81,15.81Z"/><path class="cls-1" d="M49.26,16.06a.32.32,0,0,1,.4-.24A.33.33,0,0,1,49.26,16.06Z"/><path class="cls-1" d="M51.53,15c.08-.23.28-.17.45-.18C51.89,15,51.7,15,51.53,15Z"/><path class="cls-1" d="M44.2,19.24a.31.31,0,0,1,.37-.27A.4.4,0,0,1,44.2,19.24Z"/><path class="cls-1" d="M42,21.14a.28.28,0,0,1,.28-.27A.28.28,0,0,1,42,21.14Z"/><path class="cls-1" d="M42.41,20.7c0-.15.12-.19.25-.2A.24.24,0,0,1,42.41,20.7Z"/><path class="cls-1" d="M43.48,19.86c0-.13.05-.23.2-.25C43.66,19.74,43.62,19.84,43.48,19.86Z"/><path class="cls-1" d="M43.67,19.61c0-.15.14-.19.28-.18A.28.28,0,0,1,43.67,19.61Z"/><path class="cls-1" d="M42.22,20.87a.21.21,0,0,1,.19-.18A.2.2,0,0,1,42.22,20.87Z"/><path class="cls-1" d="M44.57,19a.21.21,0,0,1,.19-.18A.2.2,0,0,1,44.57,19Z"/><path class="cls-1" d="M49,16.24a.22.22,0,0,1,.19-.16A.18.18,0,0,1,49,16.24Z"/><path class="cls-1" d="M44,19.42l.09-.09Z"/><path class="cls-1" d="M60.58,28.3a.18.18,0,0,1,.18-.19A.19.19,0,0,1,60.58,28.3Z"/><path class="cls-1" d="M85.75,102.26a8.25,8.25,0,0,1-.26,2.36,2.35,2.35,0,0,1-.8,1.37,1.57,1.57,0,0,1-2.34-.75,4.65,4.65,0,0,1-.45-1.9c0-.89,0-1.78,0-2.66a3.93,3.93,0,0,1,.57-1.87A1.53,1.53,0,0,1,83.9,98a1.62,1.62,0,0,1,1.39,1.11A7.73,7.73,0,0,1,85.75,102.26Zm-2.14,3.49H84a.29.29,0,0,0,.44-.2,3.23,3.23,0,0,0,.72-1.84,8.9,8.9,0,0,0-.3-4.38,1,1,0,0,0-.83-.74,1,1,0,0,0-1.11.55,4.33,4.33,0,0,0-.54,1.87,15.36,15.36,0,0,0,0,2.25,3.9,3.9,0,0,0,.8,2.29A.31.31,0,0,0,83.61,105.75Z"/><path class="cls-1" d="M74.32,100.07V98.81c0-.17,0-.39.22-.39a4.34,4.34,0,0,1,2,.14,1,1,0,0,1,.56.8,4.71,4.71,0,0,1,0,1.3A1.26,1.26,0,0,1,76,101.74c-.45,0-.9,0-1.35,0-.25,0-.36-.12-.35-.36v-1.31Zm.6,0h0v.27c0,.93-.13.84.84.83.2,0,.44.08.59-.12a1.83,1.83,0,0,0,.21-1.59c-.1-.48-.55-.44-.91-.5-.67-.11-.74,0-.74.61Z"/><path class="cls-1" d="M37.14,104.43c0-.35,0-.7,0-1s.24-.49.49-.45A10.27,10.27,0,0,0,39,103a.85.85,0,0,1,.79.5,2.29,2.29,0,0,1,.06,1.76,1.31,1.31,0,0,1-1.35.7c-1.34,0-1.34,0-1.34-1.32v-.22Zm.46,0c0,1,0,1,1,1h.36a.42.42,0,0,0,.41-.24,1.34,1.34,0,0,0,.06-1.17.79.79,0,0,0-.86-.5C37.43,103.49,37.62,103.33,37.6,104.42Z"/><path class="cls-1" d="M52.43,60c-.09.23-.29.17-.46.17C52.07,60,52.25,60,52.43,60Z"/><path class="cls-1" d="M53,73.47a1.31,1.31,0,0,1-.9-.63A1.69,1.69,0,0,1,53,73.47Z"/><path class="cls-1" d="M50.94,61.64c-.2.28-.49.24-.77.23C50.33,61.49,50.67,61.67,50.94,61.64Z"/><path class="cls-1" d="M51.71,61.45c-.16.25-.4.19-.64.19C51.22,61.34,51.49,61.48,51.71,61.45Z"/><path class="cls-1" d="M52.15,61.49l-.44,0C51.88,61.19,52,61.18,52.15,61.49Z"/><path class="cls-1" d="M42,65.67c.13,0,.26,0,.26.2C42.08,65.87,42,65.83,42,65.67Z"/><path class="cls-1" d="M41.76,65.5a.23.23,0,0,1,.21.18A.21.21,0,0,1,41.76,65.5Z"/><path class="cls-1" d="M84,105.75c.08-.21.27-.19.44-.2A.29.29,0,0,1,84,105.75Z"/><path class="cls-1" d="M83.17,105.55c.17,0,.36,0,.44.2A.31.31,0,0,1,83.17,105.55Z"/></g></g></svg>