<svg xmlns="http://www.w3.org/2000/svg" viewBox="0 0 45.8 51.41"><defs><style>.cls-1{fill:#f7d180;}.cls-2{fill:#f9f2dc;}.cls-3{fill:#f6b344;}.cls-4{fill:#f7d07d;}.cls-5{fill:#f8b544;}.cls-6{fill:#f7b646;}.cls-7{fill:#f5c773;}.cls-8{fill:#f4c268;}.cls-9{fill:#7c5596;}.cls-10{fill:#f5dc9e;}.cls-11{fill:#a68bbb;}.cls-12{fill:#f5bd5b;}.cls-13{fill:#b1886e;}.cls-14{fill:#8f69a3;}.cls-15{fill:#f7d384;}.cls-16{fill:#6d619d;}.cls-17{fill:#6b5f9d;}.cls-18{fill:#fcfbfc;}.cls-19{fill:#fafafb;}.cls-20{fill:#6b408a;}.cls-21{fill:#673c88;}.cls-22{fill:#6d619e;}.cls-23{fill:#f6f5f8;}.cls-24{fill:#f9f8fb;}</style></defs><title>Ресурс 1</title><g id="Слой_2" data-name="Слой 2"><g id="Слой_1-2" data-name="Слой 1"><g id="Слой_1-2-2" data-name="Слой 1-2"><path class="cls-1" d="M16,31.65c-.37.12-.75.22-1.12.35a9.32,9.32,0,0,1-.91.23l-1,.25c-.2.05-.4.08-.6.12-.49.1-1,.15-1.46.23A20.68,20.68,0,0,1,8.87,33c-.65,0-1.29,0-1.93,0a6.66,6.66,0,0,1-1.09-.16,7.53,7.53,0,0,1-1-.21l-.89-.29a7,7,0,0,1-1.79-1,5.06,5.06,0,0,1-1.55-2,3.85,3.85,0,0,1-.42-1.25c0-.15-.06-.32-.08-.48s.1-.36-.09-.49V25.83c.13,0,.09-.11.09-.18a9.39,9.39,0,0,1,.37-1.9,14.53,14.53,0,0,1,.9-2.41,22.69,22.69,0,0,1,1.42-2.55c.41-.65.85-1.27,1.31-1.89s1.2-1.52,1.85-2.25S7,13.48,7.57,12.92s1.41-1.38,2.15-2,1.66-1.36,2.49-2l.09,0c.07,0,.14,0,.15.1s-.08.12-.14.16a10.23,10.23,0,0,0-1.05.82c-.51.42-1,.85-1.52,1.29s-1,.91-1.46,1.39-.72.73-1.07,1.1-.85.9-1.24,1.37c-.61.72-1.21,1.46-1.76,2.23-.32.45-.65.9-.94,1.37a20.93,20.93,0,0,0-1.15,2.07A18.56,18.56,0,0,0,1.18,23,10.21,10.21,0,0,0,.7,25.3a5.72,5.72,0,0,0,.1,2,5.39,5.39,0,0,0,.67,1.61,4.89,4.89,0,0,0,1.78,1.66,7.4,7.4,0,0,0,1.6.63,12.54,12.54,0,0,0,2.51.35,14,14,0,0,0,2.42-.16c.6-.07,1.19-.2,1.78-.29a2.31,2.31,0,0,1,.78-.12c.08,0,.19,0,.21-.1h.08c.11,0,.24.05.31-.1H13c.1,0,.25.09.3-.09h.09c.07,0,.18,0,.2-.09h.09c.1,0,.25.09.3-.09h.08c.08,0,.19.05.21-.09h.08a.7.7,0,0,0,.5-.2H15c.08,0,.19.05.21-.09h.08a.57.57,0,0,0,.18,0A1.84,1.84,0,0,1,16,29.9Z"/><path class="cls-2" d="M0,27.14c.19.13.06.32.09.49H0Z"/><path class="cls-3" d="M16,31.65V29.76s0,0,0-.06c0-2.65,0-5.29,0-7.94,0-.3,0-.6,0-.91,0-.09,0-.19,0-.29v-9.7c0-.22,0-.44,0-.66s0-.28.28-.21h2.89c.08,0,.17,0,.2-.08h.13c.05.14.18.08.27.08h4.65a.57.57,0,0,0,.29,0l.06,0c.25-.12.48.05.72.06a20.35,20.35,0,0,0,2.34-.1v3.43c0,.57,0,1.14,0,1.71q0,3.83,0,7.65a2,2,0,0,0,0,.24.35.35,0,0,0,0,.14V25.6q0,7.63,0,15.26v2.61a1.12,1.12,0,0,1-.41,0c-2.77,0-5.55.05-8.33,0-.41,0-.82.06-1.23.05l-.4,0a7,7,0,0,1-1.45,0,.81.81,0,0,1,0-.31V32C16.05,31.88,16,31.76,16,31.65Zm.83-15.45v4.4c0,.11,0,.23,0,.34q0,4,0,8.07v6.55c0,.09-.12.24.09.28l.32,0h9.65c.09,0,.12,0,.14-.1a.63.63,0,0,0,.06-.38V11c0-.09.08-.23-.1-.25h0c-.12-.17-.25-.14-.38,0h-.1c-.07-.08-.17,0-.25,0-.61,0-1.22,0-1.83,0-.11,0-.26-.09-.34.07l-.05,0H21.84q-1.62,0-3.24,0h-.28c-.46,0-.91,0-1.37,0-.13,0-.09.11-.09.18v5.23ZM27.21,39.81V37c0-.17,0-.23-.21-.23H26c-.16,0-.21.05-.21.21,0,.62,0,1.23,0,1.84,0,.25-.05.29-.3.27a9.08,9.08,0,0,0-1.38,0c-.21,0-.28,0-.28-.26,0-.6,0-1.2,0-1.79,0-.2-.06-.28-.26-.27s-.63,0-.94,0-.22.06-.22.22v5.72c0,.18.06.23.24.23h.94c.19,0,.25,0,.25-.25,0-.7,0-1.4,0-2.11,0-.2.05-.28.27-.27h1.43c.21,0,.27.06.27.27,0,.7,0,1.41,0,2.11,0,.18,0,.28.25.25a6.76,6.76,0,0,1,.9,0c.2,0,.25,0,.24-.23Zm-10.06,0v2.34c0,.24-.1.53,0,.68s.46.06.7.06H21.5c.19,0,.26,0,.24-.24a3.53,3.53,0,0,1,0-.65c0-.24-.06-.3-.29-.3-.88,0-1.76,0-2.64,0-.23,0-.32-.08-.31-.31a5,5,0,0,0,0-.77c0-.22.06-.28.27-.28H21c.2,0,.25-.06.24-.25s0-.45,0-.68-.06-.27-.27-.27H18.74c-.18,0-.25-.05-.24-.24s0-.4,0-.6c0-.39,0-.39.4-.39h2.42c.24,0,.35,0,.32-.3a3.86,3.86,0,0,1,0-.68c0-.2-.06-.24-.25-.24h-4c-.22,0-.27.07-.26.28,0,.93,0,1.87,0,2.81Z"/><path class="cls-4" d="M27.9,25.59V23.07l0-.14,1.31-1.08c.75-.6,1.47-1.25,2.16-1.91s1.47-1.44,2.16-2.21a37.19,37.19,0,0,0,2.63-3.24,21.43,21.43,0,0,0,1.18-1.8A18.54,18.54,0,0,0,38.9,9.44a14.19,14.19,0,0,0,.49-1.69,11.43,11.43,0,0,0,.16-1.31A5.62,5.62,0,0,0,39.21,4a4.36,4.36,0,0,0-1-1.55A5.32,5.32,0,0,0,36.52,1.2,8.52,8.52,0,0,0,35.2.76,7.68,7.68,0,0,0,33.64.51a20.2,20.2,0,0,0-3.11.08l-.92.13c-.19,0-.4,0-.59.09a5.84,5.84,0,0,1-.83.18c-.1,0-.23.05-.3-.08l1-.29a4.68,4.68,0,0,1,.54-.09c.23,0,.46-.11.69-.15a2.23,2.23,0,0,0,.76-.15H31A8.65,8.65,0,0,0,32.2.11,10.82,10.82,0,0,1,34.4,0a8.34,8.34,0,0,1,1.42.15c.22.08.47,0,.71.1s.67.19,1,.28A5.63,5.63,0,0,1,38.62,1a6.31,6.31,0,0,1,1.63,1.12,5.08,5.08,0,0,1,1.32,2,6.38,6.38,0,0,1,.35,1.4,8.86,8.86,0,0,1-.19,3.16c-.12.52-.28,1-.43,1.54-.1.33-.26.63-.38.94a17.09,17.09,0,0,1-1.1,2.23,28.87,28.87,0,0,1-2.13,3.14c-.34.44-.7.86-1.06,1.29-.72.85-1.47,1.67-2.27,2.46-.65.63-1.3,1.27-2,1.87-.39.34-.79.69-1.2,1-.94.76-1.91,1.5-2.9,2.21A3,3,0,0,1,27.9,25.59Z"/><path class="cls-5" d="M41.13,39.73a3.79,3.79,0,0,1,.21-1.63,2.13,2.13,0,0,1,1.46-1.54,2.08,2.08,0,0,1,2.37.77,3.12,3.12,0,0,1,.47,1.13,6.15,6.15,0,0,1,.16,1.13A4.45,4.45,0,0,1,45.22,42,1.91,1.91,0,0,1,44,42.9a2.09,2.09,0,0,1-2.58-1.38A4.07,4.07,0,0,1,41.13,39.73Zm1.15-.08a3.32,3.32,0,0,0,.2,1.49,1,1,0,0,0,.86.68,1,1,0,0,0,1-.64,3.56,3.56,0,0,0,.27-1.88,2.57,2.57,0,0,0-.32-1.17,1,1,0,0,0-.9-.52,1,1,0,0,0-.85.54A2.79,2.79,0,0,0,42.28,39.65Z"/><path class="cls-6" d="M28.64,39.7V36.93c0-.22.06-.3.3-.3h3.12c.2,0,.25.06.24.25s0,.47,0,.7,0,.22-.22.22H30c-.21,0-.3.06-.28.28s0,.53,0,.8.06.24.24.24h1.79c.21,0,.28.06.26.26s0,.42,0,.63-.08.25-.26.25H30c-.19,0-.27,0-.26.25a6,6,0,0,1,0,.85c0,.22,0,.3.28.29.71,0,1.42,0,2.13,0,.22,0,.28.07.27.28s0,.45,0,.68,0,.2-.19.2H28.84c-.2,0-.19-.12-.19-.25,0-.54,0-1.07,0-1.6Z"/><path class="cls-5" d="M33.05,39.71c0-.92,0-1.84,0-2.76,0-.24.06-.33.32-.32.63,0,1.26,0,1.88,0a1.65,1.65,0,0,1,1.52.88,1.3,1.3,0,0,1,.11.43,4.79,4.79,0,0,1,0,1.51,1.52,1.52,0,0,1-.5.83,1.38,1.38,0,0,1-.89.35,9.37,9.37,0,0,1-1.06,0c-.2,0-.27,0-.27.26,0,.53,0,1.05,0,1.57,0,.3,0,.31-.31.31h-.44c-.32,0-.32,0-.32-.31Zm1-1.07v.65c0,.18.09.26.26.23a2.66,2.66,0,0,1,.63,0,.84.84,0,0,0,.49-.1c.36-.2.37-.55.36-.9a.7.7,0,0,0-.7-.71c-.27,0-.53,0-.8,0s-.24.07-.24.24S34.1,38.44,34.09,38.64Z"/><path class="cls-6" d="M37.67,39.69V36.83c0-.14,0-.2.19-.2h2.68c.15,0,.2.06.19.2s0,.5,0,.75,0,.22-.21.22c-.5,0-1,0-1.48,0-.24,0-.3.08-.3.31,0,1.46,0,2.93,0,4.4,0,.24-.08.31-.31.29a1.93,1.93,0,0,0-.48,0c-.24,0-.29-.07-.29-.3,0-.94,0-1.87,0-2.81Z"/><path class="cls-7" d="M30.84,50.24c0,.14-.12.19-.25.19h-.75a.24.24,0,0,1-.28-.28V44.66c0-.21.09-.33.32-.32h2.88c.22,0,.32.08.32.31,0,1.82,0,3.63,0,5.45,0,.28-.07.33-.35.34H32.1c-.13,0-.25,0-.27-.2.15,0,.09-.15.09-.24V46c0-.08,0-.21-.09-.21H30.76c.06.13.14.07.19.1a.44.44,0,0,0-.11.29c-.12,0-.08.12-.08.19V50C30.76,50.11,30.72,50.21,30.84,50.24Zm2-2.86c0-.85,0-1.71,0-2.56,0-.2-.05-.26-.25-.26H30.06c-.22,0-.29,0-.28.28,0,1.62,0,3.24,0,4.87,0,.52,0,.52.53.52.31,0,.31,0,.31-.31V46c0-.2,0-.33.28-.31a6,6,0,0,0,.85,0c.21,0,.27.06.27.27,0,1.24,0,2.49,0,3.73,0,.61,0,.6.61.6.2,0,.27-.06.26-.26,0-.87,0-1.73,0-2.6Z"/><path class="cls-8" d="M19.37,44.87v.24q-.23.12,0,.24c.05.35.14.48-.42.49H17.67c-.19,0-.26,0-.24.24a1.82,1.82,0,0,1,0,.33.87.87,0,0,0,.78,0,1.42,1.42,0,0,1,1.35,1.17,3.34,3.34,0,0,1,0,1.72,1.4,1.4,0,0,1-1,1,2.22,2.22,0,0,1-.68.08H16.44c-.21,0-.31-.09-.31-.3q0-2.76,0-5.52c0-.2.09-.27.28-.27H19.1c.19,0,.28.09.27.28S19.22,44.78,19.37,44.87Zm-.2.76c0-.3,0-.6,0-.9,0-.12-.05-.17-.17-.17H16.54c-.14,0-.18,0-.18.19,0,1.76,0,3.53,0,5.3,0,.14.05.19.2.19.55,0,1.11,0,1.67,0a1.08,1.08,0,0,0,.88-.48,2.42,2.42,0,0,0,.13-2.37,1.12,1.12,0,0,0-.87-.71,4.41,4.41,0,0,0-.81-.05c-.17,0-.32-.07-.34-.23a1.58,1.58,0,0,1,0-.65H19c.08,0,.2.06.21-.1Z"/><path class="cls-9" d="M38,43.85c-.74,0-1.48.06-2.22,0,0-.1-.09-.1-.16-.1H34c-1.43.09-2.86,0-4.29,0H28.29a.17.17,0,0,0-.15,0,.57.57,0,0,1-.29,0v-.15l0,0H45.15c.15,0,.33,0,.27.22-2.05,0-4.11,0-6.17,0a3.88,3.88,0,0,1-1,0C38.16,43.74,38,43.72,38,43.85Z"/><path class="cls-10" d="M12.45,8.93c0-.1-.08-.1-.15-.1a3.7,3.7,0,0,1,.76-.61,30.84,30.84,0,0,1,2.6-1.8c.62-.4,1.26-.78,1.9-1.15S19.11,4.39,19.9,4c.59-.31,1.2-.6,1.81-.88.85-.4,1.72-.74,2.59-1.08a17.82,17.82,0,0,1,1.86-.65,6.39,6.39,0,0,1,1.06-.29c0,.14.13.08.2.1s-.07.08-.13.1c-.94.24-1.86.56-2.79.89s-1.84.73-2.74,1.14S19.91,4.2,19,4.69s-1.58.9-2.36,1.38-1.59,1-2.36,1.57c-.35.24-.72.47-1,.74A4.85,4.85,0,0,1,12.45,8.93Z"/><path class="cls-8" d="M22.82,49.08c0-.15.09-.19.2-.18a.23.23,0,0,0,.26-.2c.07-.33.18-.65.23-1a16.81,16.81,0,0,0,.17-3.09c0-.22.09-.28.29-.28h2.47c.2,0,.29.09.29.29v1.48c0,.85,0,1.69,0,2.54,0,.17,0,.26.22.25s.28.07.27.27c0,.68,0,1.36,0,2,0,.1,0,.21-.14.2s-.13-.12-.12-.21C27,50.6,27,50,27,49.43c0-.23-.05-.34-.29-.32s-.22-.11-.22-.27c0-1.34,0-2.67,0-4,0-.22-.05-.29-.28-.29-.69,0-1.39,0-2.08,0-.19,0-.25.06-.25.25,0,.57,0,1.14,0,1.72a9.66,9.66,0,0,1-.4,2.26,1.14,1.14,0,0,1-.1.19l-.47.15A.09.09,0,0,0,22.82,49.08Z"/><path class="cls-8" d="M21.24,45.74a.31.31,0,0,1,0,.1c-.05.1,0,.15.09.19a.38.38,0,0,0,0,.1c-.06.12,0,.2.09.26s.11,0,.08-.06c.07-.6.25-1.17.36-1.75a.26.26,0,0,1,.31-.25,7.12,7.12,0,0,0,.8,0c.18,0,.24.07.22.23a7.56,7.56,0,0,1-.23,1c-.13.45-.24.9-.36,1.35s-.15.67-.26,1-.14.63-.23.94a3.6,3.6,0,0,1-.52,1.28,1,1,0,0,1-.66.34,1.21,1.21,0,0,1-.75-.1c0-.08-.07-.09-.13-.09h0c0-.44,0-.89,0-1.33a.05.05,0,0,1,0,0h.27c.15,0,.31,0,.4-.14s.17-.22,0-.34a.44.44,0,0,0,0-.1c.07-.1,0-.15-.07-.19v-.07a.12.12,0,0,0-.08-.16h0a.77.77,0,0,0,0-.15c.07-.1,0-.15-.07-.19V47.5c0-.07,0-.18.08-.22v.11c-.07.1,0,.15.08.19l0,.1c-.06.06,0,.08,0,.09l.05.2c-.06.06,0,.08,0,.09l.06.24c-.08.1,0,.12.08.15.09.49-.08.71-.56.71-.12,0-.19,0-.2.17a6.6,6.6,0,0,0,0,.77c0,.06,0,.11.07.13a1,1,0,0,0,1.33-.36,2.16,2.16,0,0,0,.27-.69c.15-.67.37-1.31.51-2,.09-.43.25-.85.36-1.28s.17-.74.28-1.09c0-.14.05-.28-.17-.26h-.49c-.19,0-.29.07-.29.26a4,4,0,0,1-.13.6c-.08.43-.2.84-.27,1.26,0,.16-.09.31-.15.53A4.9,4.9,0,0,1,21.16,46C21.18,45.88,21.12,45.77,21.24,45.74Z"/><path class="cls-8" d="M42.79,49.85a1.23,1.23,0,0,1,0-.19c.07-.11,0-.15-.08-.19s0-.14,0-.2.06-.22-.08-.29,0-.13,0-.19.06-.2-.08-.24v-.16c0-.07.05-.21-.08-.22s-.11.13-.12.22v2s0,.09-.09.09c-.29,0-.58,0-.87,0a.2.2,0,0,1-.2-.2V44.7c0-.33,0-.34.34-.34l1.11,0a.19.19,0,0,0,.1.1v.08c0,.08,0,.18.08.21l0,.17a.3.3,0,0,0,.09.32v.17a.33.33,0,0,0,.09.31c0,.06,0,.12,0,.17s0,.19.08.22l0,.17a.3.3,0,0,0,.09.32v.16c0,.11,0,.22.09.27v.12c0,.1,0,.24.1.24a.13.13,0,0,0,.09-.21l0-.2c.13-.07.11-.19.1-.31v-.12c.15-.09.12-.21.08-.34a.34.34,0,0,1,0-.1.19.19,0,0,0,.08-.29.31.31,0,0,1,0-.19c.16,0,.1-.13.1-.22v-.22H44v.24l0,.29c-.07,0-.14.1-.07.19l0,.3c-.07,0-.13.09-.08.19l0,.19a.2.2,0,0,0-.1.22V47c-.12.06-.1.17-.09.28v.21c-.13,0-.11.16-.09.27V48l-.17.1a.76.76,0,0,1,0-.26.18.18,0,0,0-.11-.22l0-.25c.08-.11,0-.18-.08-.24s0-.13,0-.19,0-.15-.07-.2,0-.13,0-.19a.19.19,0,0,0-.08-.29l0-.29c.08-.1,0-.15-.07-.19l0-.2c.07-.1,0-.15-.08-.19l0-.28c0-.08,0-.17-.08-.21s0-.13,0-.19-.11-.19-.23-.19h-.89c-.07,0-.13,0-.14.09v5c0,.63,0,.62.62.63.2,0,.26-.05.26-.26,0-1,0-2.06,0-3.09a.81.81,0,0,1,.06-.39c0,.2.08.35.11.51a7.21,7.21,0,0,1,.23,1.23c0,.09-.08.21.08.26a1,1,0,0,1,0,.17c0,.09,0,.19.09.21s0,.15,0,.22a.27.27,0,0,0,.09.27,1,1,0,0,1,0,.17C42.83,49.64,42.93,49.78,42.79,49.85Z"/><path class="cls-11" d="M27.85,43.75a.49.49,0,0,0,.29,0v.06l-.24,0H16.3c-.28,0-.28,0-.23-.29h4.27c0,.12.11.09.19.09.74,0,1.48,0,2.22,0,.25,0,.49,0,.74,0s.66,0,1,.06c.74,0,1.49,0,2.24-.06A10.68,10.68,0,0,0,27.85,43.75Z"/><path class="cls-12" d="M44.17,44.38H45.4c.15,0,.23.05.23.21q0,2.79,0,5.58a.23.23,0,0,1-.23.26c-.28,0-.56,0-.84,0a.11.11,0,0,1-.1-.09,3.36,3.36,0,0,1-.05-.84c0-.14.05-.29,0-.42v-.66c0-.08,0-.17-.06-.25,0,.08-.12.13,0,.23s0,.1,0,.14a.18.18,0,0,0-.08.25s0,.09,0,.14-.11.17-.11.28v.08c-.08-.06,0-.15-.08-.23s0-.12,0-.17a.25.25,0,0,0,.08-.27.91.91,0,0,0,0-.17c.13,0,.1-.16.09-.26a13.6,13.6,0,0,1,.35-1.68,1.35,1.35,0,0,1,.05.47v2.66c0,.6,0,.59.6.61.24,0,.27-.08.27-.29V44.7c0-.1,0-.15-.14-.15-.37,0-.74,0-1.11,0C44,44.52,44.19,44.44,44.17,44.38Z"/><path class="cls-7" d="M25.66,47.37c0,.49,0,1,0,1.47,0,.22-.09.31-.29.31h-.85c-.2,0-.24-.09-.18-.28a8.4,8.4,0,0,0,.24-1,17.65,17.65,0,0,0,.08-2.05c0-.15.06-.2.2-.19h.61c.15,0,.19.06.19.2Zm-.23,0c0-.42,0-.83,0-1.25,0-.2,0-.3-.26-.29s-.3,0-.3.27a8,8,0,0,1-.27,2.63c0,.12,0,.16.14.16h.48c.16,0,.21-.06.21-.21,0-.44,0-.87,0-1.31Z"/><path class="cls-8" d="M40.72,45.93a2.7,2.7,0,0,1,.18.93,3.76,3.76,0,0,1,0,1.06,3.51,3.51,0,0,1-.76,2.1,1.63,1.63,0,0,1-1.43.59,1.83,1.83,0,0,1-1.34-.89,3.65,3.65,0,0,1-.36-.93c.13,0,.07-.13.09-.2s.09.12.1.2a1.73,1.73,0,0,0,1.89,1.56,1.33,1.33,0,0,0,1-.58,4.21,4.21,0,0,0,.63-2.22c.06-.47-.13-.93-.09-1.41C40.65,46.07,40.6,46,40.72,45.93Z"/><path class="cls-12" d="M34.92,48.46l-.16,0c-.14,0-.13.07-.13.15,0,.55,0,1.09,0,1.64,0,.14-.09.16-.21.16h-.7c-.19,0-.26-.09-.29-.25a.67.67,0,0,1,0-.2V44.73c0-.35,0-.36.36-.37h1.74c.16,0,.27.1.4.14s.19.12.08.19a1.21,1.21,0,0,0-.56-.13c0-.07-.08-.07-.14-.07H33.84c-.06,0-.11,0-.14.07l-.05,0c-.1,0-.09.1-.09.17v5.32c0,.07,0,.17.11.17h.76c.17,0,.15-.1.15-.2V48.3a4.52,4.52,0,0,1,1,0c.09,0,.2.05.22-.1l.1,0c.08,0,.08,0,.09-.06l.1,0c.21.07-.07.13,0,.19l-.09,0a3.56,3.56,0,0,1-1,.12A.09.09,0,0,0,34.92,48.46Z"/><path class="cls-7" d="M20.56,47.29c-.12,0,0,.14-.08.22-.16-.09-.17-.27-.2-.4-.09-.38-.24-.74-.36-1.11s-.29-.88-.43-1.32c-.07-.22,0-.34.23-.34s.65,0,1,0c.12,0,.21,0,.23.14a11.07,11.07,0,0,1,.32,1.26c-.12,0-.06.14-.09.21a5.51,5.51,0,0,1-.32-1c0-.15,0-.39-.24-.41a6.26,6.26,0,0,0-.75,0c-.09,0-.14,0-.1.14s.13.41.19.62Z"/><path class="cls-13" d="M20.34,43.61H16.07a.15.15,0,0,1,0-.13,7,7,0,0,0,1.45,0l.4,0c.41,0,.82-.06,1.23-.05,2.78.09,5.56,0,8.34,0a1.09,1.09,0,0,0,.4,0v.1l0,0Z"/><path class="cls-8" d="M29,48.77a13.19,13.19,0,0,1-1.54,0c0-.07,0-.12-.1-.12,0-.35,0-.7,0-1.06,0-.19.09-.28.27-.28h1.3c.13,0,.17.08.23.15a.08.08,0,0,0,0,.09v1.06a.11.11,0,0,0-.06.09h0C29,48.69,29,48.69,29,48.77Zm-1.46-1.2s-.07,0-.07.06a4.22,4.22,0,0,0,0,.87s.05,0,.07,0h1.28c.16,0,.2-.06.19-.2s0-.53,0-.8a.12.12,0,0,0-.13-.08H27.63a.11.11,0,0,0-.13.09Z"/><path class="cls-8" d="M25,50.43h-.8c-.15,0-.2,0-.19.2s0,.42,0,.63,0,.15-.11.15-.11-.08-.11-.15c0-.28,0-.57,0-.85,0-.12,0-.17.17-.17h2.11c.13,0,.18,0,.18.18s0,.55,0,.83c0,.09,0,.16-.13.15s-.09-.08-.1-.15v-.61c0-.15-.06-.22-.22-.21Z"/><path class="cls-11" d="M38,43.85c0-.13.14-.11.21-.09a4.36,4.36,0,0,0,1,0c2.06,0,4.12,0,6.17,0,0,.12-.09.09-.15.09H38.13Z"/><path class="cls-8" d="M38.65,44.19h.48c.06.12.16.09.27.08h.07c0,.13.17.09.2.18-.13.09-.26,0-.37,0a1.44,1.44,0,0,0-1.23.16,2.09,2.09,0,0,0-.79,1.06c-.07.16,0,.36-.18.48-.1-.14-.08,0-.09,0s0,.13-.11.12-.09-.09-.1-.16v-.41c.14,0,0,.21.16.31a2.33,2.33,0,0,1,1-1.58c.07,0,.11,0,.11-.09h.08a.09.09,0,0,0,.12-.08h.07C38.45,44.28,38.58,44.33,38.65,44.19Z"/><path class="cls-6" d="M36.81,45.74v.41c0,.07,0,.15.09.16s.09-.07.11-.13,0-.18.1,0A9.89,9.89,0,0,1,37,47.35c0,.42.14.82.11,1.23,0,.07,0,.18-.1.2a1.39,1.39,0,0,1-.1-.67V47.2c-.17.07-.21.16-.2.28v.05c-.1,0-.1.07-.09.14h0a.09.09,0,0,1-.1-.1v-.09c.12,0,.08-.12.09-.2a5,5,0,0,0,.09-1.44c0-.07,0-.18.1-.2A.33.33,0,0,0,36.81,45.74Z"/><path class="cls-7" d="M44,49.06c0,.07,0,.17.08.23a3.28,3.28,0,0,1-.19,1,.21.21,0,0,1-.21.12h-.29c-.45,0-.55-.1-.56-.58.15-.07,0-.21.09-.31a.63.63,0,0,1,.12.4c0,.11,0,.24.15.28a.39.39,0,0,0,.56-.26c0-.05,0-.11,0-.16C43.84,49.56,43.81,49.28,44,49.06Z"/><path class="cls-3" d="M31,45.83c-.05,0-.13,0-.19-.09.37,0,.72,0,1.07,0,.13,0,.08.14.09.22v4c0,.08.06.21-.09.24,0-1.37,0-2.74,0-4.12,0-.23-.07-.31-.3-.29A5.61,5.61,0,0,1,31,45.83Z"/><path class="cls-11" d="M29.75,43.76c1.43,0,2.86.09,4.29,0l0,.1-.19,0H29.92l-.19,0Z"/><path class="cls-7" d="M39.67,44.47c0-.1-.2-.06-.2-.19a1.74,1.74,0,0,1,1.06,1.06,1.77,1.77,0,0,1,.19.59c-.13,0-.07.14-.09.21s-.07,0-.08-.09a2.68,2.68,0,0,0-.39-.94C40,44.86,39.81,44.7,39.67,44.47Z"/><path class="cls-12" d="M30.84,50.24c-.12,0-.08-.13-.08-.2q0-1.86,0-3.72c0-.07,0-.17.08-.19Z"/><path class="cls-4" d="M22.91,49.13l.47-.15c0,.11-.1.13-.16.14-.22,0-.23.17-.22.34,0,.58,0,1.16,0,1.74,0,.07,0,.2-.1.2s-.1-.12-.1-.2c0-.25,0-.51,0-.77.13,0,.08-.13.09-.21Z"/><path class="cls-7" d="M36.8,45.64c-.13,0-.07.13-.09.2-.18-.08-.07-.26-.13-.39a2.35,2.35,0,0,0-.56-.77c.11-.07.11-.07-.08-.19.21-.07.29.11.4.22A1.35,1.35,0,0,1,36.8,45.64Z"/><path class="cls-7" d="M34.65,50.27c0-.55,0-1.09,0-1.64,0-.08,0-.18.14-.15,0,.51,0,1,0,1.53C34.76,50.11,34.78,50.22,34.65,50.27Z"/><path class="cls-14" d="M34.05,43.86v-.1h1.6c.07,0,.15,0,.15.1A14.41,14.41,0,0,1,34.05,43.86Z"/><path class="cls-7" d="M42.28,50.34v-2c0-.09,0-.22.12-.21s.06.14.08.21-.1.23-.1.36c0,.45,0,.9,0,1.35C42.38,50.18,42.42,50.3,42.28,50.34Z"/><path class="cls-14" d="M29.75,43.76l0,.1a13.88,13.88,0,0,1-1.58,0V43.8a.17.17,0,0,1,.15,0Z"/><path class="cls-7" d="M36.52,47.57c0,.06,0,.11.09.1a.78.78,0,0,1-.49.59c-.06-.07.22-.13,0-.2Z"/><path class="cls-6" d="M22.91,49.13v1.09c0,.08,0,.19-.09.21V49.08A.08.08,0,0,1,22.91,49.13Z"/><path class="cls-7" d="M20.05,49c0,.44,0,.88,0,1.32-.08,0-.09,0-.09-.11v-1.1C20,49.05,20,49,20.05,49Z"/><path class="cls-7" d="M44.36,49.08c.1.13,0,.28,0,.42a3.39,3.39,0,0,0,.05.84c-.07,0-.13,0-.13-.11A8.84,8.84,0,0,1,44.36,49.08Z"/><path class="cls-7" d="M34.92,48.46A.1.1,0,0,1,35,48.4a3.51,3.51,0,0,0,1-.11c-.08.16-.25.16-.38.18A2,2,0,0,1,34.92,48.46Z"/><path class="cls-15" d="M36.71,47.48c0-.13,0-.21.19-.28v.91c-.15-.11,0-.27-.09-.41S36.87,47.49,36.71,47.48Z"/><path class="cls-10" d="M27.89.91c.07.13.2,0,.3.08a1.17,1.17,0,0,1-.68.19c0-.17.2,0,.27-.15s-.12,0-.17-.05S27.78.9,27.89.91Z"/><path class="cls-4" d="M27.61,1c.05,0,.12,0,.17.05s-.25,0-.27.15h-.09c-.07,0-.18,0-.2-.09A.6.6,0,0,1,27.61,1Z"/><path class="cls-4" d="M18.21,46.45a.85.85,0,0,1-.77,0A6.74,6.74,0,0,1,18.21,46.45Z"/><path class="cls-7" d="M44.17,44.38c0,.06-.21.14,0,.2,0,0,0,.06,0,.09s-.13.06-.19.1C43.94,44.59,44,44.43,44.17,44.38Z"/><path class="cls-12" d="M44,44.77c.06,0,.1-.12.19-.1v.14a.18.18,0,0,0-.08.25s0,.06,0,.1l-.08.09v0a2.17,2.17,0,0,1,0-.26Z"/><path class="cls-7" d="M20.76,48.49c.17.12.17.23,0,.35A1,1,0,0,1,20.76,48.49Z"/><path class="cls-7" d="M43.66,46.23c0,.13.07.25-.08.33A.28.28,0,0,1,43.66,46.23Z"/><path class="cls-7" d="M43.45,47.19c.06.12,0,.22-.09.21s-.1-.14-.1-.23C43.3,47.33,43.39,47.2,43.45,47.19Z"/><path class="cls-7" d="M38.65,44.19c-.07.14-.2.09-.31.09C38.43,44.19,38.52,44.13,38.65,44.19Z"/><path class="cls-7" d="M43,45.74a.34.34,0,0,1-.09-.32C43,45.51,43,45.61,43,45.74Z"/><path class="cls-7" d="M21.52,46.33c0,.09,0,.11-.08.06s-.15-.14-.09-.26C21.42,46.18,21.42,46.29,21.52,46.33Z"/><path class="cls-7" d="M43.58,46.68c0,.12,0,.24-.11.32A.31.31,0,0,1,43.58,46.68Z"/><path class="cls-7" d="M43.16,46.61a.3.3,0,0,1-.09-.32A.27.27,0,0,1,43.16,46.61Z"/><path class="cls-7" d="M43.75,45.84a.19.19,0,0,1-.08.28A.24.24,0,0,1,43.75,45.84Z"/><path class="cls-7" d="M44,44.94a2.17,2.17,0,0,0,0,.26h-.1C43.82,45.09,43.89,45,44,44.94Z"/><path class="cls-7" d="M44.26,48.4c-.08-.1,0-.16,0-.23s.05.16.06.24Z"/><path class="cls-7" d="M43.87,45.42c0,.09.06.21-.1.22S43.77,45.46,43.87,45.42Z"/><path class="cls-7" d="M43.26,47.05c-.13-.06-.11-.17-.1-.27C43.24,46.85,43.32,46.93,43.26,47.05Z"/><path class="cls-7" d="M39.4,44.28c-.11,0-.21,0-.27-.09C39.25,44.12,39.32,44.2,39.4,44.28Z"/><path class="cls-7" d="M44,49.2c0-.1,0-.21.11-.27C44.18,49.05,44.17,49.15,44,49.2Z"/><path class="cls-7" d="M42.86,45.25a.29.29,0,0,1-.08-.31A.33.33,0,0,1,42.86,45.25Z"/><path class="cls-7" d="M42.59,49c.14.07,0,.19.08.29C42.54,49.2,42.6,49.08,42.59,49Z"/><path class="cls-7" d="M44.16,48.79a.18.18,0,0,1,.08-.25A.19.19,0,0,1,44.16,48.79Z"/><path class="cls-7" d="M20.48,47.62c.08.05.14.1.07.19S20.42,47.72,20.48,47.62Z"/><path class="cls-7" d="M19.37,45.35q-.23-.12,0-.24Z"/><path class="cls-7" d="M19.37,44.87c-.15-.09-.15-.17,0-.25Z"/><path class="cls-7" d="M43.05,46.12c-.14,0-.08-.13-.08-.21S43.11,46,43.05,46.12Z"/><path class="cls-7" d="M20.67,48.2c.08,0,.14.09.07.19S20.62,48.3,20.67,48.2Z"/><path class="cls-7" d="M42.76,44.77c-.13,0-.08-.13-.08-.21S42.82,44.66,42.76,44.77Z"/><path class="cls-7" d="M42.49,48.55c.13,0,.06.15.08.24S42.49,48.64,42.49,48.55Z"/><path class="cls-7" d="M20.36,49h-.27C20.18,48.85,20.27,48.87,20.36,49Z"/><path class="cls-7" d="M21.34,46c-.08,0-.14-.09-.09-.19S21.35,46,21.34,46Z"/><path class="cls-7" d="M42.69,49.47c.08,0,.15.08.08.19S42.68,49.55,42.69,49.47Z"/><path class="cls-7" d="M42.67,44.48a.19.19,0,0,1-.1-.1C42.68,44.33,42.71,44.37,42.67,44.48Z"/><path class="cls-7" d="M20.57,48a.13.13,0,0,1,.1.16v0C20.62,48.09,20.53,48.06,20.57,48Z"/><path class="cls-7" d="M38.07,44.38a.09.09,0,0,1-.12.09S38,44.32,38.07,44.38Z"/><path class="cls-15" d="M27.32,48.64c.07,0,.1,0,.1.12S27.33,48.7,27.32,48.64Z"/><path class="cls-15" d="M29,48.77c0-.08.08-.08.14-.08S29,48.79,29,48.77Z"/><path class="cls-7" d="M36.61,47.67c0-.07,0-.13.09-.14a.12.12,0,0,1-.06.14Z"/><path class="cls-7" d="M20.07,50.33c.06,0,.12,0,.13.1S20.07,50.42,20.07,50.33Z"/><path class="cls-15" d="M29.15,47.53a.08.08,0,0,1,0-.09h.07a.05.05,0,0,1,0,.08Z"/><path class="cls-7" d="M38.26,44.29c0,.07,0,.09-.12.08S38.2,44.28,38.26,44.29Z"/><path class="cls-15" d="M29.1,48.68a.11.11,0,0,1,.06-.09C29.21,48.67,29.17,48.68,29.1,48.68Z"/><path class="cls-15" d="M15.24,30.09c0-.17.17-.11.26-.16a1.48,1.48,0,0,1,.54-.17v.14a1.61,1.61,0,0,0-.61.15A.39.39,0,0,1,15.24,30.09Z"/><path class="cls-15" d="M14.37,30.38a.68.68,0,0,1,.5-.2A.7.7,0,0,1,14.37,30.38Z"/><path class="cls-15" d="M12.63,30.86a.21.21,0,0,1,.3-.09C12.86,30.91,12.74,30.86,12.63,30.86Z"/><path class="cls-15" d="M13,30.77c.07-.12.18-.12.3-.1C13.26,30.85,13.12,30.74,13,30.77Z"/><path class="cls-15" d="M13.7,30.57c.07-.12.18-.11.3-.09C14,30.66,13.8,30.55,13.7,30.57Z"/><path class="cls-15" d="M12.34,31c0-.08.1-.15.2-.09S12.42,31,12.34,31Z"/><path class="cls-15" d="M14.08,30.47c0-.08.1-.14.21-.09S14.16,30.47,14.08,30.47Z"/><path class="cls-15" d="M13.4,30.67c0-.08.1-.15.21-.09S13.48,30.66,13.4,30.67Z"/><path class="cls-15" d="M15,30.18c.05-.08.1-.15.21-.09S15,30.18,15,30.18Z"/><path class="cls-16" d="M26.92,35.84l-.48,0H17.26l-.31,0,0-.08,2.14-2.08,1.29-1.27c.1-.1.24-.21,0-.34s-.66-.48-1-.72a8.16,8.16,0,0,1-.88-.67c.23,0,.41-.18.64-.22,0,0,0-.06.05-.09a16.82,16.82,0,0,1,1.62,1.14c.14.09.19.07.3,0,.77-.71,1.49-1.48,2.25-2.21l.76-.7-.06-.08c-.24,0-.44.12-.67.15a4.67,4.67,0,0,1-.67.14c.1-.2.32-.2.48-.32a1.94,1.94,0,0,1,.78-.37c.23,0,.47.06.6-.22,0-.06.08-.05.14,0,.28.11.37.07.48-.2a1.05,1.05,0,0,0,.08-.35v-.06c.57-.29,1.08-.7,1.65-1,0,2.87,0,5.73,0,8.6,0,.07,0,.15-.08.18l0-.31s0-.08-.07-.08c-.08-.42-.13-.84-.24-1.26,0-.17-.06-.35-.11-.51-.12-.42-.17-.86-.26-1.29s-.16-.73-.22-1.09-.11-.55-.17-.83-.16-.8-.26-1.19c-.05-.23-.12-.23-.29-.06-.41.41-.83.82-1.24,1.24l-2.23,2.21c-.11.11-.13.18,0,.29.68.48,1.35,1,2,1.47s1.53,1.08,2.29,1.64A5.83,5.83,0,0,1,26.92,35.84Z"/><path class="cls-17" d="M18.6,10.78q1.62,0,3.24,0c0,.06-.08.12,0,.18s0,.19,0,.29-.15.09-.07.19l0,.24c-.1,0-.08.1-.07.16l0,.28c-.1.06-.14.13-.08.24l0,.39h-.07a.59.59,0,0,0-.23.05,3.3,3.3,0,0,1-1.54.34.6.6,0,0,1-.61-.61A1.17,1.17,0,0,0,19,12a1.73,1.73,0,0,0-.14.76.72.72,0,0,0,.62.68,3.33,3.33,0,0,0,1.84-.33c.07.06-.15.26.11.24h0c0,.1-.08.19,0,.29v.1c0,.16,0,.27.18.29l.09.14s.05.13.13.13.06-.09.09-.14a4.87,4.87,0,0,0,.38-.8,1,1,0,0,1,.09-.41.7.7,0,0,0-.08-.47c.08,0,.16.07.23,0s.47-.34.7-.52a14,14,0,0,0,1.3-1.13h1.88a2,2,0,0,1-.51.68,17,17,0,0,1-2,1.82c-.41.31-.82.6-1.24.89l-.14-.49a.82.82,0,0,0-.17.22c-.08.23-.19.44-.29.66-.18-.06-.23.2-.4.18-.1-.17-.18-.34-.28-.5s-.08-.19-.17-.17-.12.13-.13.23a5.14,5.14,0,0,1-.18.95.53.53,0,0,0-.22,0,8.09,8.09,0,0,1-1.74.58,3.21,3.21,0,0,1-1.74,0c-.1,0-.18-.14-.3-.11V13.19A.45.45,0,0,1,17,13a8.4,8.4,0,0,1,.78-1.16Z"/><path class="cls-18" d="M26.92,35.84a5.83,5.83,0,0,0-.74-.57c-.75-.55-1.52-1.09-2.28-1.64s-1.35-1-2-1.47c-.16-.11-.14-.18,0-.29l2.23-2.21,1.25-1.24c.17-.17.23-.17.29.06.09.4.16.8.25,1.2a8,8,0,0,1,.17.82c.07.37.15.73.22,1.09s.14.87.27,1.29c0,.17.06.34.1.51.11.42.17.85.24,1.27,0,.05,0,.08.07.08l0,.3a5.52,5.52,0,0,1,.11.71C27,35.81,27,35.86,26.92,35.84Z"/><path class="cls-4" d="M27.9,13.33a.18.18,0,0,0,.19-.06c.54-.67,1.1-1.34,1.57-2.06a11.57,11.57,0,0,0,.92-1.65,6.87,6.87,0,0,0,.52-1.48,4.33,4.33,0,0,0,.08-1.44,2.53,2.53,0,0,0-.76-1.47,2.38,2.38,0,0,0-.94-.53,8.49,8.49,0,0,0-1-.22s0-.09-.07-.09h-.83s-.06,0-.07.09H27c-.05,0-.18.07-.19-.09a10.9,10.9,0,0,1,1.89-.18,5.27,5.27,0,0,1,2.36.58,2.59,2.59,0,0,1,1.13,1.33,2.33,2.33,0,0,1,.2.94,5.62,5.62,0,0,1-.12,1.53,12,12,0,0,1-.4,1.15,13.07,13.07,0,0,1-1.67,2.84A14,14,0,0,1,29,14a6.34,6.34,0,0,1-1.05,1Z"/><path class="cls-19" d="M18.59,30.68a7.4,7.4,0,0,0,.89.67c.33.24.67.47,1,.72.18.14,0,.25-.06.34l-1.29,1.27L17,35.76a.35.35,0,0,0-.05.08c-.21,0-.05-.19-.09-.28l.06,0c0-.41.2-.78.23-1.19a2.2,2.2,0,0,1,.12-.63c.12-.4.16-.81.25-1.21a7.25,7.25,0,0,0,.17-.78,2.06,2.06,0,0,0,.12-.7c0-.16.11-.29.11-.45s.08-.24.26-.14S18.41,30.66,18.59,30.68Z"/><path class="cls-20" d="M18.59,30.68c-.18,0-.27-.18-.41-.26s-.26-.06-.26.14-.12.29-.11.45l-.37.14c-.19.08-.35.28-.58.16V29q0-4,0-8.07c0-.12,0-.23,0-.34H17v8.49c0,.24,0,.26.27.16l1-.46c.05.08-.07.23,0,.26s.15-.12.21-.21a1.17,1.17,0,0,1,.35-.35,1.57,1.57,0,0,1,.46-.16c.08,0,.21-.19.33,0l-.67.93a.2.2,0,0,0,.21,0c.43-.16.89-.23,1.32-.36s.62-.2.94-.26.6-.19.91-.24a8,8,0,0,0,.84-.23,6.06,6.06,0,0,1,1-.25c.05,0,.13,0,0,.09s-.13,0-.13.11a2,2,0,0,0-.78.36c-.16.12-.38.12-.48.32a2.32,2.32,0,0,1-.69.22l-1.62.46-1.5.41c-.05,0-.1,0-.11.08s0,.09.08.13.26.13.32.28,0,.09-.06.09C19,30.5,18.82,30.66,18.59,30.68Z"/><path class="cls-15" d="M10.46,17.84a1.21,1.21,0,0,0,0-.19c.12,0,.08-.13.09-.2v-.09c.1,0,.12-.1.13-.18a1.38,1.38,0,0,1,.17-.52.09.09,0,0,0,0-.13h0v-.09c.17-.05.14-.23.21-.35s.11-.35.3-.43l0,.21c-.12.46-.35.88-.45,1.34A3.45,3.45,0,0,0,11,19.7a2.45,2.45,0,0,0,1.51,1.17A7.24,7.24,0,0,0,14.9,21a4,4,0,0,0,.83-.15,1.55,1.55,0,0,1,.31,0c0,.31,0,.61,0,.91a15.09,15.09,0,0,1-2.33.1,4.28,4.28,0,0,1-1.23-.2,2.91,2.91,0,0,1-1.68-1.21,1.6,1.6,0,0,1-.35-.87c0-.09.07-.22-.08-.29V18.23C10.52,18.13,10.47,18,10.46,17.84Z"/><path class="cls-15" d="M24.83,9.93a4.6,4.6,0,0,0,.56-1,1.61,1.61,0,0,0,0-.69.61.61,0,0,0-.6-.43l-.32,0a1,1,0,0,1,1.31.45,1.29,1.29,0,0,1-.1.91,3.55,3.55,0,0,1-.32.61c-.07.12-.08.19.1.19H27a.35.35,0,0,0,.32-.22,6.06,6.06,0,0,0,.44-1.12,2.52,2.52,0,0,0,.08-.82,1,1,0,0,0-.66-1,.18.18,0,0,0-.21-.12h-.1a.25.25,0,0,0-.29-.08h-.67c-.06,0-.18,0-.18-.1H27a1.56,1.56,0,0,1,1.34.8,1.82,1.82,0,0,1,.11,1.26,5,5,0,0,1-.54,1.38,22.65,22.65,0,0,1-2.34.1C25.31,10,25.08,9.82,24.83,9.93Z"/><path class="cls-21" d="M22.72,14.21c.42-.29.84-.59,1.24-.9a16.16,16.16,0,0,0,2-1.82,2,2,0,0,0,.51-.68.1.1,0,0,0,.1,0H27v.47c-.09,0-.13.11-.18.18a8.83,8.83,0,0,1-.62.73l-.82.78c-.49.44-1,.83-1.54,1.22a3.85,3.85,0,0,1-1,.63C22.85,14.58,22.69,14.41,22.72,14.21Z"/><path class="cls-13" d="M27,11.25v-.48c.17,0,.1.17.1.25V35.37a.63.63,0,0,1-.06.38,4.21,4.21,0,0,0-.12-.71c.1,0,.08-.11.08-.18V11.25Z"/><path class="cls-22" d="M16.86,31.31c.23.12.39-.08.58-.16l.37-.14a2.06,2.06,0,0,1-.12.7,6.33,6.33,0,0,1-.17.78c-.09.4-.13.81-.25,1.21a2.2,2.2,0,0,0-.12.63c0,.41-.21.78-.23,1.19,0,0,0,0-.06,0Z"/><path class="cls-16" d="M22,10.78h2.05c0,.09-.1.12-.14.18s-.31.21-.43.35a8,8,0,0,1-1.17.91,1.48,1.48,0,0,0,0-.19C22.19,11.62,22.09,11.2,22,10.78Z"/><path class="cls-16" d="M17,10.78c.46,0,.91,0,1.37,0,.1.07,0,.12,0,.16a11.15,11.15,0,0,0-.8,1c-.16.25-.35.48-.53.73Z"/><path class="cls-23" d="M22,10.78A10.74,10.74,0,0,0,22.3,12l0,.19a1.93,1.93,0,0,0,0,.24.76.76,0,0,1,.07.47,5.63,5.63,0,0,0-.95.4h0l0-.29,0-.09a.16.16,0,0,0,.08-.2l0-.38c.1-.06.1-.15.08-.25l0-.27c.09,0,.08-.09.07-.16l0-.24c.08,0,.09-.11.07-.2s0-.19,0-.29a.18.18,0,0,0,.1-.19Z"/><path class="cls-10" d="M18.69,8.05a21,21,0,0,0-2.32,1.78l0,.08h3c0,.11-.12.08-.2.08H16.34c-.29-.07-.29-.07-.28.21-.22,0-.29.15-.4.25a12.62,12.62,0,0,0-1,1,.31.31,0,0,1,.07-.39c.62-.6,1.29-1.15,2-1.71.49-.41,1-.77,1.52-1.16a.52.52,0,0,1,.15-.07.09.09,0,0,0,.1-.06v0L18.6,8S18.7,8,18.69,8.05Z"/><path class="cls-21" d="M22.34,12.46c0-.08,0-.16,0-.24a8,8,0,0,0,1.17-.91c.12-.14.31-.2.42-.35s.13-.09.15-.18l0,0c.15,0,.3,0,.45.05-.43.39-.84.79-1.3,1.14a7,7,0,0,0-.7.51C22.49,12.53,22.41,12.47,22.34,12.46Z"/><path class="cls-20" d="M17,12.66c.18-.25.37-.48.53-.74a12.65,12.65,0,0,1,.8-1s.14-.09,0-.16h.28l-.84,1A9.34,9.34,0,0,0,17,13a.37.37,0,0,0,0,.23v3l-.09,0c0-.74,0-1.48,0-2.21V12.84C17,12.83,16.94,12.73,17,12.66Z"/><path class="cls-10" d="M19.56,9.91h5c.08,0,.17,0,.22.06a.57.57,0,0,1-.29,0H19.83C19.74,10,19.61,10.05,19.56,9.91Z"/><path class="cls-9" d="M16.86,16.19l.09,0h0V20.6h-.09Z"/><path class="cls-13" d="M24.56,10.81c-.14-.08-.3,0-.44-.05.08-.16.23-.09.34-.08.61.08,1.22,0,1.83,0,.08,0,.18,0,.25,0a.09.09,0,0,1-.1.05Z"/><path class="cls-14" d="M17,12.66c0,.07,0,.17-.09.18,0-.63,0-1.26,0-1.89,0-.07,0-.17.1-.17Z"/><path class="cls-13" d="M27,10.77h-.39C26.77,10.64,26.9,10.61,27,10.77Z"/><path class="cls-14" d="M21.94,10.77a.18.18,0,0,1-.1.19c-.08-.06,0-.12,0-.18Z"/><path class="cls-4" d="M17.25,45.74c0-.16.15-.1.23-.1h1.69c0,.16-.13.1-.22.1Z"/><path class="cls-14" d="M20.34,43.61h7.51v.14a10.68,10.68,0,0,1-1.13,0c-.75,0-1.49.07-2.24.06-.33,0-.66-.06-1-.06s-.49.07-.74,0c-.74-.06-1.48,0-2.22,0C20.45,43.7,20.36,43.73,20.34,43.61Z"/><path class="cls-7" d="M20.57,47.39a.16.16,0,0,1,.08.19C20.56,47.55,20.5,47.49,20.57,47.39Z"/><path class="cls-7" d="M20.87,48.31c.06,0,.1.07.07.14S20.79,48.41,20.87,48.31Z"/><path class="cls-7" d="M20.77,48a.08.08,0,0,1,0,.09S20.71,48,20.77,48Z"/><path class="cls-7" d="M20.67,47.68a.07.07,0,0,1,0,.09C20.66,47.76,20.61,47.75,20.67,47.68Z"/><path class="cls-7" d="M42.57,44.67a.49.49,0,0,0-.35-.11h-.91c0-.08.08-.09.14-.09h.9C42.47,44.48,42.58,44.51,42.57,44.67Z"/><path class="cls-7" d="M43.45,48a.14.14,0,0,1-.09.22c-.08,0-.1,0-.08-.12Z"/><path class="cls-7" d="M43,46.51a.29.29,0,0,1-.08-.29A.19.19,0,0,1,43,46.51Z"/><path class="cls-7" d="M43.64,47c.07.12,0,.2-.09.27C43.54,47.21,43.52,47.1,43.64,47Z"/><path class="cls-7" d="M43.16,47.33a.18.18,0,0,1-.08-.24C43.18,47.15,43.24,47.22,43.16,47.33Z"/><path class="cls-7" d="M43.55,47.53c.06.12,0,.19-.1.27C43.44,47.69,43.42,47.58,43.55,47.53Z"/><path class="cls-7" d="M42.77,45.54c-.12,0-.09-.11-.08-.19S42.84,45.44,42.77,45.54Z"/><path class="cls-7" d="M43.06,46.9c-.11,0-.09-.11-.07-.2S43.13,46.8,43.06,46.9Z"/><path class="cls-7" d="M44.06,45.16c0,.1.06.22-.08.29v-.2Z"/><path class="cls-7" d="M42.58,48.24c.11.06.09.16.09.26C42.51,48.45,42.59,48.33,42.58,48.24Z"/><path class="cls-7" d="M44,45.74c0,.08,0,.15-.07.19S43.88,45.78,44,45.74Z"/><path class="cls-7" d="M42.86,45.93c-.11,0-.09-.11-.07-.19S42.94,45.83,42.86,45.93Z"/><path class="cls-7" d="M42.78,49.1a.24.24,0,0,1,.09.27A.25.25,0,0,1,42.78,49.1Z"/><path class="cls-7" d="M43.29,47.8c-.09,0-.15-.11-.11-.22A.18.18,0,0,1,43.29,47.8Z"/><path class="cls-7" d="M42.68,48.67a.2.2,0,0,1,.08.21C42.63,48.86,42.68,48.76,42.68,48.67Z"/><path class="cls-7" d="M42.67,45.07c-.11,0-.09-.12-.08-.21S42.66,45,42.67,45.07Z"/><path class="cls-7" d="M43.75,46.61c0,.1,0,.16-.1.22A.2.2,0,0,1,43.75,46.61Z"/><path class="cls-7" d="M43.85,46.22c0,.08,0,.14-.08.19S43.78,46.26,43.85,46.22Z"/><path class="cls-7" d="M44.07,48.45a.22.22,0,0,1,.09-.26C44.18,48.29,44.19,48.39,44.07,48.45Z"/><path class="cls-7" d="M44,48.89a.22.22,0,0,1,.08-.27A.27.27,0,0,1,44,48.89Z"/><path class="cls-15" d="M33.65,44.57c0,1.78,0,3.57,0,5.35,0,.1,0,.21,0,.31s-.1-.09-.1-.17V44.74C33.57,44.67,33.55,44.59,33.65,44.57Z"/><path class="cls-7" d="M34.43,50.24a.63.63,0,0,0,.06-.33V48.52c0-.08,0-.19.09-.22V50C34.58,50.14,34.6,50.26,34.43,50.24Z"/><path class="cls-15" d="M35.46,44.55a17.22,17.22,0,0,1-1.76,0c0-.07.08-.07.14-.07h1.48C35.38,44.48,35.44,44.48,35.46,44.55Z"/><path class="cls-7" d="M35.62,48.29c.06-.07.12-.13.23-.09S35.71,48.3,35.62,48.29Z"/><path class="cls-7" d="M35.94,48.17s.05-.05.1-.06S36,48.23,35.94,48.17Z"/><path class="cls-15" d="M29,47.56H27.51c0-.07.06-.09.12-.09h1.21C28.9,47.48,29,47.49,29,47.56Z"/><path class="cls-15" d="M27.5,47.57v1s-.07,0-.07,0a4.31,4.31,0,0,1,0-.88Z"/><path class="cls-7" d="M36.53,47.48c0-.08,0-.16.08-.19S36.65,47.46,36.53,47.48Z"/><path class="cls-7" d="M44.15,44.81a.26.26,0,0,1-.08.25A.18.18,0,0,1,44.15,44.81Z"/><path class="cls-10" d="M11.63,15a1.62,1.62,0,0,1,.39-.7,24.1,24.1,0,0,1,2.17-2.67c.07-.07.15-.24.26-.13s0,.22-.11.29A9.15,9.15,0,0,0,13.2,13a10.51,10.51,0,0,0-1.08,1.53l-.06,0c0-.05,0-.1-.09-.05a.24.24,0,0,0-.1.25c-.13,0-.14.15-.24.2Z"/><path class="cls-2" d="M18.69,8.05c0-.07,0-.09-.09-.1a2.56,2.56,0,0,1,.82-.6c.56-.35,1.15-.66,1.73-1s1.18-.56,1.77-.86c0,.07,0,.09.09.1s0,.07-.09.09A22.69,22.69,0,0,0,20,7.22C19.55,7.5,19.1,7.75,18.69,8.05Z"/><path class="cls-10" d="M23,5.59c-.05,0-.1,0-.09-.09.28-.11.56-.2.83-.32s.69-.25,1-.37c.55-.18,1.12-.27,1.66-.45a1.29,1.29,0,0,1,.39,0c0,.16.13,0,.19.09a.09.09,0,0,1-.1.09,3,3,0,0,0-.79.11c-.44.12-.88.21-1.31.34s-1,.39-1.53.53C23.2,5.52,23.12,5.62,23,5.59Z"/><path class="cls-10" d="M11.38,15.66c-.19.08-.2.29-.3.43s0,.3-.21.35A7.14,7.14,0,0,1,11.58,15l.05,0h0a.54.54,0,0,0-.05.28h0a.38.38,0,0,0-.2.39Z"/><path class="cls-10" d="M10.86,16.53a.09.09,0,0,1,0,.13h0a1.38,1.38,0,0,0-.17.52c0,.08,0,.16-.13.18A1.66,1.66,0,0,1,10.86,16.53Z"/><path class="cls-10" d="M11.34,15.87l0-.21h0a.67.67,0,0,0,.2-.39h0c.05,0,.06-.11.14-.1A1.65,1.65,0,0,1,11.34,15.87Z"/><path class="cls-15" d="M11.72,15.18c-.08,0-.09.07-.14.09a.54.54,0,0,1,.05-.28c.1,0,.11-.19.23-.2h0v.1l0,.09c-.07,0-.13,0-.11.11Z"/><path class="cls-10" d="M10.46,17.84c0,.14.06.29-.08.39C10.4,18.1,10.28,17.94,10.46,17.84Z"/><path class="cls-15" d="M11.87,14.79a.24.24,0,0,1,.1-.25c.07,0,.08,0,.09.05s0,.08-.05.1-.09.07-.15.1Z"/><path class="cls-10" d="M10.38,19.29c.15.06.06.19.08.29C10.3,19.52,10.39,19.39,10.38,19.29Z"/><path class="cls-10" d="M11.87,14.79c.05,0,.06-.11.14-.1s0,.18-.14.2Z"/><path class="cls-10" d="M10.56,17.45c0,.07,0,.17-.09.2S10.43,17.48,10.56,17.45Z"/><path class="cls-10" d="M11.73,15.09c0-.09,0-.11.12-.11S11.79,15.07,11.73,15.09Z"/><path class="cls-2" d="M18.41,8.06a.09.09,0,0,1-.08.09h0a.09.09,0,0,1,.09-.09Z"/><path class="cls-2" d="M25.69,6.47c0,.13.12.06.18.09s-.17.11-.24.12a8.55,8.55,0,0,0-2.95,1.06c-.46.24-.89.51-1.33.78a14.16,14.16,0,0,0-1.2.88h-.09a1.83,1.83,0,0,1,.61-.54,14.59,14.59,0,0,1,2.68-1.62A8.24,8.24,0,0,1,25,6.64,4.23,4.23,0,0,0,25.69,6.47Z"/><path class="cls-10" d="M27.51,4.42s0-.09.07-.09h.83s.06,0,.07.09Z"/><path class="cls-2" d="M27,6.46h-.92s0-.07,0-.08a3.84,3.84,0,0,1,.83,0S27,6.43,27,6.46Z"/><path class="cls-2" d="M26.54,6.58a.26.26,0,0,1,.29.07C26.7,6.74,26.61,6.69,26.54,6.58Z"/><path class="cls-2" d="M26.93,6.66a.21.21,0,0,1,.21.13C27,6.79,27,6.77,26.93,6.66Z"/><path class="cls-19" d="M25.36,27.25a.43.43,0,0,1,0,.05c-.06,0-.12,0-.18,0l-.57-.45c-.41-.3-.79-.63-1.23-.89s-.69-.55-1.05-.81c-.17-.13-.22-.22-.07-.41.4-.49.76-1,1.14-1.5.25-.33.5-.64.76-1,.08-.1.16-.13.19,0,.08.34.14.68.21,1a9.81,9.81,0,0,0,.21,1.08c.07.21,0,.46.18.64l0,.4a.15.15,0,0,0,.08.18c0,.09,0,.17,0,.26a.17.17,0,0,0,.08.18l0,.3a.16.16,0,0,0,.08.18.88.88,0,0,0,0,.36c0,.07,0,.14,0,.19A.12.12,0,0,0,25.36,27.25Z"/><path class="cls-24" d="M19.29,30.37c-.06-.15-.22-.18-.32-.28s-.1-.06-.08-.13.06-.06.11-.08l1.49-.41L22.12,29a2.42,2.42,0,0,0,.69-.22,5,5,0,0,0,.67-.14c.23,0,.43-.19.67-.14l.06.07-.76.7c-.76.73-1.47,1.5-2.25,2.21-.11.09-.16.11-.3,0A18,18,0,0,0,19.29,30.37Z"/><path class="cls-21" d="M25.36,27.25a.09.09,0,0,1,0-.11c.06-.09.07-.16-.06-.19a.88.88,0,0,1,0-.36c0-.08,0-.16-.07-.18l0-.3c0-.08.05-.16-.07-.18a2.28,2.28,0,0,1,0-.26c0-.08,0-.16-.08-.18l0-.4c.24-.22.52-.37.77-.56L27,23.6v2.67C26.44,26.55,25.93,27,25.36,27.25Z"/><path class="cls-22" d="M25.19,27.33c.06,0,.12,0,.18,0a.85.85,0,0,1-.08.35c-.11.27-.2.31-.48.2-.06,0-.12,0-.14,0-.13.28-.37.23-.6.23,0-.09.08-.08.13-.11s0-.07,0-.09.14-.08.22-.09.29,0,.36-.19C25,27.66,25.07,27.47,25.19,27.33Z"/><path class="cls-13" d="M26.92,34.74c-.06,0-.08,0-.07-.08S26.93,34.68,26.92,34.74Z"/><path class="cls-21" d="M17,16.24v-.48c.13,0,.21.07.31.1a3.21,3.21,0,0,0,1.74,0,8.09,8.09,0,0,0,1.74-.58.49.49,0,0,1,.21,0c0,.21-.1.38-.12.58a.35.35,0,0,0-.2.05,7,7,0,0,1-1.25.41A4.66,4.66,0,0,1,17,16.25Z"/><path class="cls-23" d="M20.83,15.86c0-.2.16-.37.12-.58a4.36,4.36,0,0,0,.19-.94c0-.11,0-.22.13-.24s.12.1.17.17.19.33.28.5a4.73,4.73,0,0,0-.37.79v.07a.14.14,0,0,0-.08.17,7,7,0,0,1-.62,1.26,2.41,2.41,0,0,1,.05-.54C20.71,16.29,20.86,16.09,20.83,15.86Z"/><path class="cls-23" d="M22.72,14.21c0,.2.13.37.1.58a1.32,1.32,0,0,1,.1.39c0,.12-.07.26.08.35s0,.06,0,.08v.33c0,.08,0,.18-.09.21L22.81,16c0-.07,0-.13-.1-.14v0c0-.07,0-.1-.08-.1h0c0-.07,0-.14-.1-.15a.09.09,0,0,0,0-.05c0-.07,0-.13-.09-.14h0c0-.11-.08-.17-.14-.23s-.2-.34-.16-.54.2-.44.29-.66a.8.8,0,0,1,.16-.23Z"/><path class="cls-20" d="M21.45,13l0,.09-.08.05a3.33,3.33,0,0,1-1.84.33.72.72,0,0,1-.62-.67A1.75,1.75,0,0,1,19,12a1.18,1.18,0,0,1,0,.55.61.61,0,0,0,.61.62,3.57,3.57,0,0,0,1.54-.34.46.46,0,0,1,.23-.06C21.47,12.82,21.37,12.88,21.45,13Z"/><path class="cls-23" d="M21.45,13.72v-.1a4.67,4.67,0,0,1,.56-.26c.09,0,.2-.13.31,0a5.4,5.4,0,0,1-.38.81s0,.14-.09.13-.1-.07-.13-.13L21.63,14C21.58,13.92,21.58,13.78,21.45,13.72Z"/><path class="cls-20" d="M22.12,14.6c0,.2.13.35.16.54a.44.44,0,0,1-.25.14h0a.08.08,0,0,0-.06-.1h0c-.06,0-.1,0-.1.09v.09c-.14,0-.17.15-.27.2h-.2a4,4,0,0,1,.36-.79C21.89,14.8,21.94,14.54,22.12,14.6Z"/><path class="cls-14" d="M22.32,13.34c-.1-.11-.22,0-.31,0a4.67,4.67,0,0,0-.56.26c-.07-.09,0-.19,0-.29a5.4,5.4,0,0,1,1-.4A.83.83,0,0,0,22.32,13.34Z"/><path class="cls-14" d="M21.45,13.72c.13.06.13.2.18.3C21.46,14,21.42,13.88,21.45,13.72Z"/><path class="cls-14" d="M21.35,13.09l.08-.05,0,.29C21.2,13.35,21.42,13.16,21.35,13.09Z"/><path class="cls-14" d="M21.63,12.12c0,.1,0,.19-.08.25A.17.17,0,0,1,21.63,12.12Z"/><path class="cls-14" d="M21.45,13c-.08-.07,0-.13,0-.2h.07A.16.16,0,0,1,21.45,13Z"/><path class="cls-14" d="M21.82,11.25a.16.16,0,0,1-.07.2C21.67,11.34,21.75,11.3,21.82,11.25Z"/><path class="cls-14" d="M21.73,11.69c0,.07,0,.13-.07.16S21.63,11.71,21.73,11.69Z"/><path class="cls-22" d="M27,23.6l-1.29.93c-.25.19-.53.34-.77.56-.17-.18-.11-.43-.18-.64a9.81,9.81,0,0,1-.21-1.08c-.07-.34-.13-.69-.21-1,0-.16-.11-.13-.19,0-.26.32-.51.63-.76,1-.38.5-.74,1-1.14,1.5-.15.19-.1.28.07.41.36.26.7.54,1.05.81a.52.52,0,0,1-.39.28c-.09,0-.14-.06-.21-.11L22,25.57c-.17-.14-.27-.12-.4.06-.24.34-.5.66-.75,1s-.46.63-.71.93a8.59,8.59,0,0,1-.59.76c-.12-.17-.25,0-.33,0a1.93,1.93,0,0,0-.46.16.3.3,0,0,1,0-.16c.44-.56.87-1.13,1.3-1.69l1.07-1.4c.08-.11.14-.2,0-.32-.43-.32-.85-.67-1.29-1a2.73,2.73,0,0,0-.47-.35c-.06,0-.12-.08-.14,0a7.21,7.21,0,0,0-.19.9c0,.41-.16.79-.23,1.19-.11.55-.22,1.09-.36,1.63s-.15,1-.31,1.45c-.32.16-.65.32-1,.46s-.27.08-.27-.15V21.47a.83.83,0,0,0,.22,0c.6-.17,1.2-.36,1.8-.58.31-.12.6-.29.91-.4a5.88,5.88,0,0,1-.15.92,8.55,8.55,0,0,0-.17.88s-.06.12,0,.14.07-.05.09-.09l1.6-2.56c.34,0,.56-.26.85-.38l.67.67L24,21.24s.07.1.14.06,0-.08,0-.13a5.13,5.13,0,0,0-.13-.75,8.23,8.23,0,0,0-.21-1.08,3.17,3.17,0,0,1-.16-.92.74.74,0,0,0,.42-.19l.78-.57c.41-.27.78-.57,1.16-.86A12.32,12.32,0,0,1,27,16V23.6Zm-7-.89a.55.55,0,0,0,.38,0,1.23,1.23,0,0,1,.41-.13c.41-.07.79-.24,1.2-.34s1-.3,1.53-.45c.07,0,.14,0,.17-.11s-.05-.12-.09-.16L22,19.88c-.11-.11-.16-.12-.26,0-.36.59-.73,1.18-1.1,1.77l-.64,1Zm3.41-.43c-.37.1-.69.16-1,.27-.73.26-1.46.47-2.2.67a.27.27,0,0,0-.17.13c0,.07.07.1.11.14l1.27,1c.26.19.27.18.46-.08.37-.51.76-1,1.13-1.51a2.82,2.82,0,0,0,.4-.58Z"/><path class="cls-19" d="M19.57,28.31a8.59,8.59,0,0,0,.59-.76c.25-.3.47-.62.71-.93s.51-.65.75-1c.13-.18.23-.2.4-.06l.77.59c.07.05.12.11.21.11.1.2.32.26.47.4.41.34.84.64,1.27,1-.07.15-.22.17-.36.19s-.18,0-.22.09a6.41,6.41,0,0,0-1.05.25,8.56,8.56,0,0,1-.83.23c-.31.05-.6.18-.91.24s-.63.17-.94.26-.89.2-1.32.36a.18.18,0,0,1-.21,0Z"/><path class="cls-24" d="M18.2,28.79c.16-.48.19-1,.31-1.45s.25-1.09.36-1.64c.07-.39.19-.78.23-1.18a7,7,0,0,1,.19-.91c0-.1.08-.05.14,0a2.86,2.86,0,0,1,.48.36c.43.31.85.66,1.28,1,.16.11.09.21,0,.32l-1.07,1.39-1.3,1.7a.27.27,0,0,0,0,.15,1.17,1.17,0,0,0-.35.35c-.06.09-.1.24-.2.21S18.25,28.88,18.2,28.79Z"/><path class="cls-21" d="M19.88,20.48c-.31.12-.6.29-.91.4-.59.22-1.19.41-1.8.59a.81.81,0,0,1-.22,0v-.92a.37.37,0,0,0,.21,0c.35-.18.75-.23,1.1-.41a14,14,0,0,0,1.84-.87.28.28,0,0,1,0,.29,5.87,5.87,0,0,0-.19.83c-.07,0-.1,0-.07.11Z"/><path class="cls-17" d="M22.81,16l.11.15c0,.09,0,.22.12.21s.07-.16.1-.24,0-.1,0-.16.08-.27-.09-.35c0,0,0,0,0-.08s.08-.27-.08-.36a1.32,1.32,0,0,0-.1-.39,3.58,3.58,0,0,0,1-.62,16.6,16.6,0,0,0,1.54-1.23c.27-.26.55-.51.82-.78a7.24,7.24,0,0,0,.62-.73.45.45,0,0,1,.19-.17V14.4c-.1,0-.16,0-.23.11a17.65,17.65,0,0,1-1.5,1.37c-.45.33-.84.74-1.32,1-.23.14-.5.24-.58.54-.2-.08-.15.18-.28.2s-.06-.1-.13,0a.28.28,0,0,1-.27.12c-.06,0-.09,0-.09-.1s.11-.11,0-.17-.15,0-.22,0a.46.46,0,0,1-.2.05c0-.11-.14-.17-.11-.28a1.63,1.63,0,0,1,.63-.25c.22-.05.21-.18.12-.32a1.08,1.08,0,0,1-.16-.3c0-.16,0-.29-.2-.33h0c0-.06,0-.1-.09-.1s0,0,0,0,0-.14-.09-.15,0,0,0,0,0-.15-.09-.15h0c0-.13,0-.29.19-.2h0c0,.07,0,.14.09.15a.06.06,0,0,1,0,0c0,.08,0,.15.1.15h0a.08.08,0,0,0,.06.1h0v0C22.71,15.92,22.71,16,22.81,16Z"/><path class="cls-21" d="M23.39,17.46c.08-.31.35-.4.58-.55.48-.29.87-.7,1.32-1a16.24,16.24,0,0,0,1.5-1.37c.07-.06.13-.12.23-.11V16c-.39.24-.7.58-1.06.85s-.76.6-1.16.87-.52.38-.78.57a.69.69,0,0,1-.42.18A3.92,3.92,0,0,1,23.39,17.46Z"/><path class="cls-17" d="M20.1,19.24a14,14,0,0,1-1.84.87c-.35.18-.75.23-1.1.41a.36.36,0,0,1-.21,0V16.24a4.66,4.66,0,0,0,2.43.08,6.34,6.34,0,0,0,1.25-.42.45.45,0,0,1,.2,0c0,.23-.12.43-.14.66a3.19,3.19,0,0,0-.05.54,7,7,0,0,0,.62-1.26c.12,0,.1-.09.08-.17v-.07h.2a.1.1,0,0,0,.08.1h0l0,.1c-.2.06-.16.23-.18.38l0,.11a.22.22,0,0,0-.16.28.44.44,0,0,1,0,.1c-.07,0-.15,0-.08.14l0,.1a1.25,1.25,0,0,0-.3.61c0,.15.06.28.24.09a.23.23,0,0,1,.2,0c.1,0,.23.08.27-.09h.07c.09,0,.2.06.22-.09s.1-.12.2-.09v.36c-.39.15-.8.26-1.18.44.06.15.22.2.26.35s0,.11.1.1h0a1.94,1.94,0,0,0,0,.2h0c-.14.05-.22-.13-.36-.09s-.15-.15-.24-.22a.18.18,0,0,0-.19-.06c-.08,0-.05.09-.07.15A2.69,2.69,0,0,1,20.1,19.24Z"/><path class="cls-8" d="M17.23,48.44c0-.67,0-.65.67-.67a.57.57,0,0,1,.61.6c0,.11,0,.21,0,.32a.42.42,0,0,1-.38.39l-.65,0c-.16,0-.25,0-.24-.24S17.23,48.58,17.23,48.44Zm.2,0v.34s0,.13.06.14a1.31,1.31,0,0,0,.71-.05c.19-.1.1-.29.11-.44,0-.33-.08-.42-.41-.42-.58,0-.45-.06-.47.43Z"/><path class="cls-8" d="M38,46.9v-.09c.11,0,.09-.11,0-.19a1.47,1.47,0,0,1,.25-.82c.17-.31.48-.31.79-.26a.75.75,0,0,1,.48.47,4.22,4.22,0,0,1,.19,1.86A1.88,1.88,0,0,1,39.37,49,.64.64,0,0,1,38.3,49c-.06-.09-.15-.18-.14-.3s0-.14-.07-.16a1.58,1.58,0,0,0-.09-.42s.06,0,.07,0A.09.09,0,0,0,38,48v-.19h.18c0,.1,0,.19,0,.29s0,0,0,0l.1.43c0,.06,0,.1.07.11.11.25.26.45.58.4s.39-.25.47-.48a4.7,4.7,0,0,0,.12-1.75,1.9,1.9,0,0,0-.18-.78.44.44,0,0,0-.42-.31c-.3,0-.4.07-.56.35a2.64,2.64,0,0,0-.2,1.07C38,47.14,38.14,46.91,38,46.9Z"/><path class="cls-12" d="M38.16,47.77H38a6.32,6.32,0,0,1,0-.87c.15,0,0,.24.17.24Z"/><path class="cls-15" d="M38,46.62c0,.08.05.15,0,.19S37.94,46.66,38,46.62Z"/><path class="cls-15" d="M38.08,48.49c.09,0,.09.09.08.16S38.07,48.57,38.08,48.49Z"/><path class="cls-15" d="M38,48s.08,0,.07.09,0,0-.06,0Z"/><path class="cls-12" d="M35.45,47.08a1.44,1.44,0,0,1-.82.07c-.1,0-.14-.09-.14-.19,0-.37,0-.73,0-1.09,0-.16.07-.25.24-.22s.5-.09.72.09c0,.07-.05.09-.11.1h-.41c-.19,0-.26.07-.25.25v.8c0,.08,0,.11.11.1H35c.14,0,.32.09.44-.1h0a.1.1,0,0,1,.09.1h0a.1.1,0,0,0-.09.08Z"/><path class="cls-8" d="M35.35,45.84c.06,0,.1,0,.1-.1a.43.43,0,0,1,.29.44c0,.25.06.51-.11.75a.1.1,0,0,1-.09.06c0-.06,0-.09-.1-.1C35.57,46.53,35.67,46.16,35.35,45.84Z"/><path class="cls-8" d="M35.45,47.08a.11.11,0,0,1,.09-.09h0C35.54,47.05,35.52,47.09,35.45,47.08Z"/><path class="cls-15" d="M11.58,15.27a.73.73,0,0,1-.2.39A.38.38,0,0,1,11.58,15.27Z"/><path class="cls-20" d="M24.75,27.63c-.43-.32-.87-.62-1.27-1-.16-.14-.38-.2-.48-.4a.53.53,0,0,0,.4-.28c.43.26.81.59,1.22.89.2.14.38.3.57.45C25.07,27.47,25,27.66,24.75,27.63Z"/><path class="cls-22" d="M25.28,27c.13,0,.12.1,0,.19S25.27,27,25.28,27Z"/><path class="cls-22" d="M25,25.49c.12,0,.1.1.08.18A.15.15,0,0,1,25,25.49Z"/><path class="cls-22" d="M25.18,26.41c.12,0,.1.1.08.18A.16.16,0,0,1,25.18,26.41Z"/><path class="cls-22" d="M25.08,25.93c.13,0,.11.1.08.18A.17.17,0,0,1,25.08,25.93Z"/><path class="cls-14" d="M21.34,15.63c0,.08,0,.16-.08.17A.14.14,0,0,1,21.34,15.63Z"/><path class="cls-22" d="M22.42,15.37c-.22-.09-.19.07-.19.2-.12-.06-.13-.19-.2-.29a.44.44,0,0,0,.25-.14C22.35,15.2,22.43,15.26,22.42,15.37Z"/><path class="cls-2" d="M23.1,16s.06.11,0,.15,0,.23-.1.24-.11-.12-.12-.21S23,16,23,15.94Z"/><path class="cls-22" d="M23.1,16l-.09,0v-.33C23.18,15.69,23.07,15.85,23.1,16Z"/><path class="cls-22" d="M22.92,15.18c.16.08.06.23.08.35C22.85,15.44,22.93,15.3,22.92,15.18Z"/><path class="cls-22" d="M22.62,15.71c-.1,0-.1-.08-.1-.15S22.62,15.64,22.62,15.71Z"/><path class="cls-22" d="M22.51,15.52c-.09,0-.09-.08-.09-.15S22.52,15.44,22.51,15.52Z"/><path class="cls-22" d="M22.81,16c-.1,0-.1-.08-.1-.15A.12.12,0,0,1,22.81,16Z"/><path class="cls-22" d="M22.71,15.81a.09.09,0,0,1-.09-.09h0C22.68,15.71,22.71,15.74,22.71,15.81Z"/><path class="cls-24" d="M22,15.28c.07.1.08.23.2.29h0a.13.13,0,0,0,.09.15h0a.06.06,0,0,0,0,0c0,.08,0,.12.09.15a.06.06,0,0,0,0,0,.09.09,0,0,0,.09.1h0a.43.43,0,0,0,.2.33.9.9,0,0,0,.17.3c.08.15.09.28-.13.33a1.52,1.52,0,0,0-.62.24H22c-.09,0-.13.07-.19.09s-.19,0-.23.1h-.07c-.09,0-.21,0-.26.09s-.16,0-.21,0-.21.05-.24-.1a1.3,1.3,0,0,0,.3-.61.3.3,0,0,0,0-.1.1.1,0,0,0,.09-.12v0l0-.1c.1-.06.1-.18.15-.28l0-.11c.13-.09.13-.25.18-.38l0-.1c.13-.06.12-.19.18-.29v-.1Z"/><path class="cls-14" d="M21.82,15.36c-.05.1,0,.24-.17.3a.09.09,0,0,1-.1-.08v0C21.65,15.51,21.69,15.37,21.82,15.36Z"/><path class="cls-14" d="M22,15.28h-.19c0-.07,0-.09.1-.09a.07.07,0,0,1,.09.07Z"/><path class="cls-24" d="M20,22.71l.64-1c.36-.58.74-1.17,1.1-1.76.09-.16.15-.15.26,0l1.6,1.61s.12.07.09.16-.1.09-.17.11c-.51.15-1,.32-1.53.45s-.79.27-1.21.33a1.47,1.47,0,0,0-.4.14A.62.62,0,0,1,20,22.71Z"/><path class="cls-24" d="M23.39,17.46a4.43,4.43,0,0,0,.2,1,3.32,3.32,0,0,0,.17.93,9.78,9.78,0,0,1,.2,1.08,4.7,4.7,0,0,1,.13.75s.06.09,0,.13-.1,0-.14-.06l-1.15-1.19-.68-.67a.6.6,0,0,1,.06-.19c.29-.53.67-1,.92-1.55C23.24,17.64,23.19,17.38,23.39,17.46Z"/><path class="cls-24" d="M23.4,22.28a2.82,2.82,0,0,1-.4.58c-.37.51-.75,1-1.13,1.51-.19.26-.2.27-.46.08l-1.27-1s-.14-.06-.1-.13a.21.21,0,0,1,.16-.13c.74-.2,1.47-.41,2.2-.67C22.71,22.44,23,22.38,23.4,22.28Z"/><path class="cls-23" d="M20.1,19.24a2.69,2.69,0,0,0,.21-.75c0-.06,0-.13.07-.16a.2.2,0,0,1,.19.06c.09.07.12.2.24.23s.14.16.2.24a1.7,1.7,0,0,0,.29.31c.21.16.17.32,0,.5l-.06.1-1.6,2.57s0,.1-.09.08,0-.09,0-.14c0-.3.14-.58.18-.88a4.76,4.76,0,0,0,.14-.92h0c.07,0,.08,0,.07-.11a5.87,5.87,0,0,1,.19-.83A.28.28,0,0,0,20.1,19.24Z"/><path class="cls-20" d="M21.28,19.77l.06-.1c.13-.18.17-.34-.05-.5a2.06,2.06,0,0,1-.28-.31c.07,0,.15-.05.16-.15h.28a.2.2,0,0,1,.08,0c.24.22.25.21.41-.06s.33-.5.49-.76a.07.07,0,0,0,.09-.06v0h0c.08,0,.18,0,.2-.09a.33.33,0,0,0,.27-.12c.06-.07.1-.08.12,0-.25.54-.62,1-.91,1.54a.49.49,0,0,0-.07.19C21.84,19.51,21.62,19.77,21.28,19.77Z"/><path class="cls-22" d="M20,20.36c0,.06,0,.1-.07.11S19.88,20.37,20,20.36Z"/><path class="cls-23" d="M22.43,17.94c-.16.25-.34.49-.49.75s-.17.29-.41.06l-.08,0c0-.11-.14-.15-.23-.2h0c0-.07,0-.09-.1-.1s-.2-.2-.26-.35c.38-.18.79-.29,1.18-.44a.37.37,0,0,0,.2-.09.35.35,0,0,0,.2-.05.2.2,0,0,1,.22,0c.06.05-.09.1,0,.18-.11,0-.1.11-.1.19h0C22.45,17.84,22.42,17.87,22.43,17.94Z"/><path class="cls-16" d="M22.24,17.53a.37.37,0,0,1-.2.09v-.36h.09C22.1,17.37,22.24,17.42,22.24,17.53Z"/><path class="cls-22" d="M22.72,16.38a.42.42,0,0,1-.2-.33C22.7,16.09,22.73,16.23,22.72,16.38Z"/><path class="cls-14" d="M22.52,17.84c0-.08,0-.17.1-.19a.08.08,0,0,0,.09.09C22.69,17.87,22.59,17.83,22.52,17.84Z"/><path class="cls-22" d="M22.42,15.91c-.07,0-.11-.07-.09-.15S22.42,15.84,22.42,15.91Z"/><path class="cls-22" d="M22.32,15.72a.13.13,0,0,1-.09-.15h0C22.33,15.57,22.33,15.64,22.32,15.72Z"/><path class="cls-22" d="M22.52,16.05a.1.1,0,0,1-.09-.1C22.5,16,22.52,16,22.52,16.05Z"/><path class="cls-14" d="M21.14,16.87a1.4,1.4,0,0,1-.3.61A1.35,1.35,0,0,1,21.14,16.87Z"/><path class="cls-22" d="M21.17,18.71c0,.1-.09.12-.16.15a.91.91,0,0,1-.2-.24C21,18.58,21,18.76,21.17,18.71Z"/><path class="cls-14" d="M21.63,15.76c-.05.13-.05.29-.18.38C21.47,16,21.43,15.82,21.63,15.76Z"/><path class="cls-22" d="M21.22,18.51c.09,0,.19.09.23.2h-.29Z"/><path class="cls-14" d="M21.42,16.25c-.05.09-.05.22-.16.28A.22.22,0,0,1,21.42,16.25Z"/><path class="cls-22" d="M21.28,17.54c.06-.12.17-.09.27-.09C21.51,17.62,21.38,17.53,21.28,17.54Z"/><path class="cls-22" d="M21.62,17.44c0-.12.14-.09.22-.09S21.71,17.44,21.62,17.44Z"/><path class="cls-14" d="M21.24,16.63a.11.11,0,0,1-.06.14h0C21.09,16.67,21.17,16.65,21.24,16.63Z"/><path class="cls-22" d="M21.12,18.41c.06,0,.11,0,.1.1S21.12,18.48,21.12,18.41Z"/><path class="cls-15" d="M38.27,48.53s.09,0,.07.12A.09.09,0,0,1,38.27,48.53Z"/><path class="cls-12" d="M38.17,48.06a.09.09,0,0,1,0,0S38.13,48.08,38.17,48.06Z"/><path class="cls-8" d="M35,47c.12-.16.3,0,.44-.1C35.34,47.08,35.16,47,35,47Z"/><path class="cls-4" d="M34.68,46.89a.11.11,0,0,1,.11.1C34.71,47,34.68,47,34.68,46.89Z"/><path class="cls-14" d="M22.43,17.94c0-.07,0-.11.09-.11a.08.08,0,0,1-.05.1Z"/></g></g></g></svg>